<?xml version="1.0" standalone="no"?>
<!DOCTYPE svg PUBLIC "-//W3C//DTD SVG 1.1//EN" "http://www.w3.org/Graphics/SVG/1.1/DTD/svg11.dtd" >
<svg xmlns="http://www.w3.org/2000/svg" xmlns:xlink="http://www.w3.org/1999/xlink" version="1.1">
<metadata></metadata>
<defs>
<font id="recoletaregular" horiz-adv-x="1228" >
<font-face units-per-em="2048" ascent="1638" descent="-410" />
<missing-glyph horiz-adv-x="460" />
<glyph unicode="&#xfb01;" horiz-adv-x="1234" d="M10 928v26q0 29 31 29h170v125q0 186 128 293.5t331 107.5q172 0 278.5 -83t106.5 -162q0 -33 -20.5 -53.5t-53.5 -20.5q-41 0 -69.5 25.5t-49 63.5t-44 75t-69 63.5t-106.5 26.5q-104 0 -180 -88t-76 -232v-141h289q12 0 20.5 -9t8.5 -20v-26q0 -27 -29 -27h-289v-756 q0 -31 22.5 -51t46 -34.5t23.5 -28.5v-6q0 -25 -30 -25h-285q-31 0 -31 25v6q0 14 19.5 28.5t39 35t19.5 50.5v756h-170q-31 0 -31 27zM827 27v8q0 14 18.5 27.5t37 33t18.5 49.5v611q0 47 -37 81.5t-37 45.5v4q0 14 31 31l162 77q31 14 47 4t16 -32v-822q0 -25 12.5 -42 t28 -25t27.5 -19.5t12 -23.5v-8q0 -27 -41 -27h-256q-39 0 -39 27z" />
<glyph unicode="&#xfb02;" horiz-adv-x="1234" d="M10 928v26q0 29 31 29h170v125q0 186 128 293.5t331 107.5q137 0 237 -55l113 55q29 14 46 4t17 -32v-1338q0 -39 40 -66.5t40 -43.5v-6q0 -27 -41 -27h-256q-39 0 -39 27v6q0 16 36 43.5t36 66.5v1082q-14 16 -48 80.5t-80 100.5t-128 38q-104 2 -180 -87t-76 -233v-141 h289q12 0 20.5 -9t8.5 -20v-26q0 -27 -29 -27h-289v-756q0 -31 22.5 -51t46 -34.5t23.5 -28.5v-6q0 -25 -30 -25h-285q-31 0 -31 25v6q0 14 19.5 28.5t39 35t19.5 50.5v756h-170q-31 0 -31 27z" />
<glyph horiz-adv-x="0" />
<glyph unicode="&#xd;" horiz-adv-x="681" />
<glyph unicode=" "  horiz-adv-x="460" />
<glyph unicode="&#x09;" horiz-adv-x="460" />
<glyph unicode="&#xa0;" horiz-adv-x="460" />
<glyph unicode="!" horiz-adv-x="499" d="M121 98.5q0 57.5 38 91t93 33.5t92 -33.5t37 -91t-37 -89.5t-92 -32t-93 32t-38 89.5zM152 1409q0 47 50 67.5t100 2t50 -67.5q-14 -610 -63 -1030q-4 -29 -41 -29t-41 29q-39 379 -55 1028z" />
<glyph unicode="&#x22;" horiz-adv-x="747" d="M98 1389q-2 47 27 73.5t70 26.5q43 0 71.5 -25.5t28.5 -74.5q-4 -88 -22.5 -248t-30.5 -219q-10 -39 -50.5 -39t-48.5 39q-35 182 -45 467zM459 1389q-2 47 26.5 73.5t69.5 26.5q43 0 71.5 -25.5t28.5 -74.5q-4 -88 -22.5 -248t-30.5 -219q-10 -39 -50 -39t-48 39 q-35 182 -45 467z" />
<glyph unicode="#" horiz-adv-x="1394" d="M63 498v57q0 20 31 20h246l82 310h-256q-29 0 -29 22v54q0 23 29 22h283l98 369q6 20 31 20h63q27 0 21 -35l-95 -354h383l99 369q2 20 28 20h66q29 0 18 -35l-92 -354h236q29 0 28 -22v-54q0 -23 -28 -22h-263l-81 -310h268q31 0 31 -20v-57q0 -20 -31 -21h-293 l-121 -459q-2 -18 -35 -18h-65q-29 0 -19 35l119 442h-381l-121 -459q-2 -18 -32 -18h-68q-25 0 -18 35l118 442h-219q-31 0 -31 21zM461 575h381l82 310h-381z" />
<glyph unicode="$" horiz-adv-x="1116" d="M66 301q0 45 22.5 69.5t61.5 24.5q43 0 80.5 -47t64.5 -105.5t85 -113.5t136 -68v586q-72 27 -103.5 40t-93 43t-92 57.5t-66.5 69.5t-51.5 96.5t-15.5 119.5q0 158 119 264.5t311 114.5v133q0 29 23 29h37q23 0 22 -29v-135q182 -12 293 -100t111 -181q0 -98 -88 -98 q-41 0 -71 44t-49.5 97.5t-69.5 104.5t-126 63v-565q207 -76 281 -127q155 -106 155 -303q0 -147 -125.5 -262t-318.5 -127v-195q0 -31 -23 -30h-38q-20 0 -21 30v193q-106 6 -196.5 42t-143.5 84t-81.5 96t-28.5 85zM281 1133q0 -111 63.5 -175.5t179.5 -111.5v536 q-109 -8 -176 -77.5t-67 -171.5zM598 59q104 10 180 90t76 181q0 109 -65.5 171t-190.5 113v-555z" />
<glyph unicode="%" horiz-adv-x="1787" d="M59 1087q0 170 97.5 279t255.5 109q147 0 249.5 -115t102.5 -279q0 -170 -99.5 -276.5t-246.5 -106.5q-152 0 -255.5 112t-103.5 277zM203 1143q0 -156 64.5 -270.5t168.5 -114.5q84 0 130 75.5t46 190.5q0 152 -63.5 270.5t-163.5 118.5q-88 0 -135 -76.5t-47 -193.5z M435.5 10q-5.5 10 2.5 25l795 1401q12 18 29 18h65q16 0 21.5 -10t-2.5 -25l-789 -1401q-10 -18 -35 -18h-65q-16 0 -21.5 10zM1024 371q0 170 97.5 277.5t254.5 107.5q147 0 250 -114t103 -277q0 -170 -100 -277.5t-247 -107.5q-152 0 -255 112.5t-103 278.5zM1167 426 q0 -156 65 -270.5t169 -114.5q84 0 130 74.5t46 189.5q0 152 -63.5 271.5t-163.5 119.5q-86 0 -134.5 -76.5t-48.5 -193.5z" />
<glyph unicode="&#x26;" horiz-adv-x="1454" d="M74 362q0 131 95 231.5t265 188.5q-96 106 -142 185.5t-46 177.5q0 147 103.5 237.5t273.5 90.5q154 0 250 -83t96 -216q0 -123 -87 -216.5t-218 -156.5l395 -430q106 213 106 495q0 29 34 42.5t69 1t35 -45.5q0 -346 -160 -583l61 -68q100 -109 160 -109h51q35 0 35 -26 v-10q0 -31 -46 -59.5t-108 -28.5q-125 0 -245 131l-29 32q-190 -164 -455 -163q-233 0 -363 99t-130 283zM258 346q0 -133 89 -218t243 -85q215 0 366 172l-460 502q-238 -145 -238 -371zM430 1188q0 -86 41 -154.5t127 -163.5q195 113 195 306q0 102 -52.5 165.5 t-136.5 63.5q-78 0 -126 -60.5t-48 -156.5z" />
<glyph unicode="'" horiz-adv-x="387" d="M98 1389q-2 47 27 73.5t70 26.5q43 0 71.5 -25.5t28.5 -74.5q-4 -88 -22.5 -248t-30.5 -219q-10 -39 -50.5 -39t-48.5 39q-35 182 -45 467z" />
<glyph unicode="(" horiz-adv-x="524" d="M80 690q0 549 336 885q31 29 54.5 11.5t2.5 -54.5q-223 -315 -223 -841.5t223 -842.5q20 -37 -4 -54.5t-55 11.5q-334 338 -334 885z" />
<glyph unicode=")" horiz-adv-x="526" d="M51 -152q225 317 225 841.5t-225 842.5q-20 37 3.5 54.5t54.5 -11.5q336 -336 335 -885q1 -543 -333 -885q-31 -29 -55.5 -11t-4.5 54z" />
<glyph unicode="*" horiz-adv-x="784" d="M74 1198q-4 47 37 68q27 12 59 -4l195 -101l-39 219q-8 39 11 62.5t60 25.5q39 2 58.5 -22.5t9.5 -65.5l-41 -219l192 101q55 31 84 -19q29 -47 -4 -82q-14 -16 -43 -18l-213 -39l164 -164q43 -41 2 -86q-37 -41 -82 -20q-23 10 -35 38l-94 199l-96 -203q-27 -57 -86 -34 q-49 20 -49 63q2 27 22 45l164 162l-215 39q-59 4 -61 55z" />
<glyph unicode="+" d="M195 516l2 76q0 20 30 20h326v330q0 31 22 31h78q23 0 23 -31v-330l328 2q31 0 30 -22v-76q0 -20 -30 -20h-326v-330q0 -31 -25 -31h-78q-23 0 -22 31v330h-326q-29 0 -32 20z" />
<glyph unicode="," horiz-adv-x="428" d="M88 102q0 59 34 96.5t91 37.5q53 0 91 -42t38 -110q0 -215 -211 -360q-23 -14 -40 4t3 39q94 92 113 182q6 31 -17 31q-45 0 -73.5 33.5t-28.5 88.5z" />
<glyph unicode="-" horiz-adv-x="937" d="M115 633v43q0 27 28 26h652q29 0 28 -26v-43q0 -31 -28 -31h-652q-29 0 -28 31z" />
<glyph unicode="." horiz-adv-x="456" d="M98 100q0 59 37 92t94 33q55 0 92 -32.5t37 -92.5q0 -57 -37 -88.5t-92 -31.5q-57 0 -94 31.5t-37 88.5z" />
<glyph unicode="/" horiz-adv-x="751" d="M59 -176l514 1788q6 20 33 20h66q29 0 18 -35l-508 -1785q-6 -20 -37 -21h-65q-31 0 -21 33z" />
<glyph unicode="0" horiz-adv-x="1347" d="M90 735q0 344 154.5 542t429.5 198q254 0 420 -209t166 -541q0 -344 -160 -544.5t-412 -200.5q-262 0 -430 205.5t-168 549.5zM272 803q0 -319 124 -530.5t319 -211.5q160 0 261 157t101 425q0 313 -124 530.5t-312 217.5q-164 0 -266.5 -158t-102.5 -430z" />
<glyph unicode="1" horiz-adv-x="598" d="M92 1307v6q0 25 39 39l225 96q41 16 64.5 6t23.5 -37q0 -14 -25.5 -52t-25.5 -91v-1118q0 -37 24.5 -59.5t50.5 -38t26 -29.5v-4q0 -25 -37 -25h-293q-37 0 -37 25v4q0 14 23.5 29.5t47 38t23.5 59.5v1038q0 41 -20.5 60.5t-44 18.5t-44 6t-20.5 28z" />
<glyph unicode="2" horiz-adv-x="1165" d="M72 37v16q0 96 56 194.5t141 177.5t184.5 166t184.5 162.5t141.5 169t56.5 183.5q0 129 -79 207t-179 78q-98 0 -165 -54.5t-91.5 -119t-59.5 -119t-78 -54.5t-69.5 25t-26.5 68q0 115 135 226.5t344 111.5q201 0 327 -100.5t126 -282.5q0 -119 -76 -229.5t-187.5 -196.5 t-224 -168t-200.5 -176.5t-105 -188.5h654q53 0 86.5 44t55 89t40.5 45h14q16 0 24.5 -10t4.5 -29l-57 -229q-14 -43 -50 -43h-888q-39 0 -39 37z" />
<glyph unicode="3" horiz-adv-x="1136" d="M72 233q0 45 23.5 71t62.5 26q33 0 59.5 -28t49 -66.5t53 -77.5t87 -67t134.5 -28q150 0 239.5 88.5t89.5 233.5q0 174 -103 270.5t-261 96.5h-23q-33 0 -44 24.5t10 48.5l382 471h-702q-41 0 -41 41v80q0 37 39 37h870q41 0 41 -35v-18q0 -29 -30 -62l-441 -497 q215 -4 350.5 -120t135.5 -304.5t-139.5 -313t-378.5 -124.5q-221 0 -342 82.5t-121 170.5z" />
<glyph unicode="4" horiz-adv-x="1150" d="M14 391v6q0 39 19 68l649 932q37 57 90 57h100q35 0 35 -37v-981h168q29 0 29 -26v-37q0 -27 -29 -27h-168v-199q0 -37 21.5 -57t43 -33.5t21.5 -27.5v-4q0 -25 -37 -25h-278q-39 0 -39 25v4q0 14 41 42.5t41 75.5v199h-653q-53 0 -54 45zM127 436h594l2 858z" />
<glyph unicode="5" horiz-adv-x="1146" d="M70 238q0 45 26.5 67.5t65.5 22.5q31 0 54.5 -27t46 -65.5t54 -76.5t92 -64.5t144.5 -26.5q147 0 241.5 101t94.5 265q0 174 -91 278.5t-251 104.5q-141 0 -303 -106q-33 -25 -71 -5.5t-34 60.5l90 661q0 27 33 27h739q27 0 27 -29v-90q0 -29 -27 -28h-679l-91 -510 q152 108 365 108q203 0 340 -123t137 -315q0 -213 -143.5 -350t-378.5 -137q-231 0 -356 82.5t-125 175.5z" />
<glyph unicode="6" horiz-adv-x="1210" d="M90 711q0 207 59.5 376.5t189.5 278.5t312 109q215 0 338 -111t123 -215q0 -47 -25.5 -69.5t-64.5 -22.5q-43 0 -72.5 33.5t-51 83t-49.5 98.5t-81 84t-129 35q-168 2 -265.5 -178.5t-101.5 -462.5q61 84 162.5 132t220.5 48q203 0 334 -133t131 -357q0 -199 -141 -329.5 t-352 -130.5q-242 0 -389.5 199.5t-147.5 531.5zM281 559q27 -231 122 -363.5t240 -132.5q133 0 215 94.5t82 250.5q0 186 -92 312t-246 126q-127 0 -220 -87t-101 -200z" />
<glyph unicode="7" horiz-adv-x="1048" d="M27 1165l43 242q10 47 53 47h872q39 0 39 -33v-18q0 -18 -22 -72l-547 -1296q-12 -35 -51 -35h-107q-23 0 -31 16.5t-2 30.5l629 1264h-659q-43 0 -72 -47t-51.5 -93.5t-46.5 -46.5h-19q-35 0 -28 41z" />
<glyph unicode="8" horiz-adv-x="1226" d="M78 350q0 258 375 400q-145 68 -225.5 148.5t-80.5 211.5q0 162 130.5 262.5t347.5 100.5q213 0 335.5 -102.5t122.5 -250.5q1 -229 -286 -348q80 -35 134 -64.5t108.5 -76.5t81 -109.5t26.5 -142.5q0 -186 -147.5 -292.5t-376.5 -106.5q-254 0 -399.5 108.5 t-145.5 261.5zM246 348q0 -127 109.5 -206t285.5 -79q145 0 239.5 75t94.5 192q0 74 -27.5 129t-100.5 103t-115 68.5t-152 65.5q-23 10 -33 15q-123 -51 -212 -146.5t-89 -216.5zM319 1155q0 -125 89.5 -195.5t263.5 -138.5q98 47 176 129t78 195q0 102 -87 176t-223 74 q-131 0 -214 -69t-83 -171z" />
<glyph unicode="9" horiz-adv-x="1204" d="M84 1020q0 190 138 322.5t353 132.5q250 0 394.5 -200t144.5 -532q0 -348 -139 -555.5t-404 -207.5q-213 0 -335.5 106.5t-122.5 216.5q0 43 26.5 67.5t67.5 24.5q37 0 63.5 -33.5t47 -83t48 -98.5t83 -83t135.5 -34q180 0 264 180.5t84 481.5q-109 -188 -383 -188 q-205 0 -335 131t-130 352zM262 1053q0 -176 94 -304t246 -128q141 0 228.5 87t87.5 218q-29 209 -123.5 337t-243.5 128q-129 0 -209 -93.5t-80 -244.5z" />
<glyph unicode=":" horiz-adv-x="481" d="M113 100q0 59 35.5 92t93.5 33q55 0 92 -32.5t37 -92.5q0 -55 -37 -87.5t-92 -32.5q-57 0 -93 31.5t-36 88.5zM113 823q0 59 35.5 92t93.5 33q55 0 92 -32.5t37 -92.5q0 -55 -37 -88t-92 -33q-57 0 -93 32t-36 89z" />
<glyph unicode=";" horiz-adv-x="522" d="M137 102q0 59 34 96.5t91 37.5q55 0 93 -41t38 -111q0 -215 -211 -360q-23 -14 -41 4t2 39q92 86 117 182q4 31 -20 31q-43 0 -73 34.5t-30 87.5zM137 823q0 59 37 92t92 33q57 0 94 -32.5t37 -92.5q0 -57 -37 -89t-94 -32q-55 0 -92 32t-37 89z" />
<glyph unicode="&#x3c;" d="M236 494v108q0 29 36 47l633 330q16 6 26.5 -2t10.5 -21v-98q0 -23 -29 -35l-565 -278l570 -275q31 -14 30 -32v-99q0 -37 -43 -18l-633 323q-37 18 -36 50z" />
<glyph unicode="=" d="M203 330v78q0 20 30 20h762q29 0 29 -20v-78q0 -20 -29 -21h-762q-31 0 -30 21zM203 698v76q0 23 30 23h762q29 0 29 -23v-76q0 -23 -29 -22h-762q-31 0 -30 22z" />
<glyph unicode="&#x3e;" d="M279 137v99q0 20 30 34l580 275l-567 278q-31 8 -31 35v98q0 12 9 20.5t26 2.5l628 -330q39 -18 39 -47v-110q0 -31 -39 -48l-632 -325q-20 -8 -31.5 -2t-11.5 20z" />
<glyph unicode="?" horiz-adv-x="1046" d="M53 1137q0 111 135.5 224.5t337.5 113.5q199 0 326 -96.5t127 -280.5q0 -98 -46 -180t-110.5 -138.5t-130 -110t-111.5 -124t-46 -152.5q0 -25 -31 -35t-65 0t-40 35q-8 80 17.5 149.5t69.5 117t98.5 100.5t101.5 99t79 113.5t32 143.5q0 125 -79 200t-183 75 q-82 0 -138.5 -36t-85 -87t-50 -101.5t-48.5 -86.5t-63 -36q-43 0 -70 25t-27 68zM342 94q0 57 36 89t91 32t90 -31.5t35 -89.5q0 -55 -35 -86t-90 -31t-91 31t-36 86z" />
<glyph unicode="@" horiz-adv-x="1851" d="M70 623q0 174 68.5 334.5t190.5 282.5t302 195.5t391 73.5q350 0 569 -203.5t219 -502.5q0 -225 -108.5 -383t-300.5 -158q-84 0 -152.5 41t-93.5 111q-115 -154 -324 -154q-147 0 -249.5 97.5t-102.5 250.5q0 219 139.5 361.5t358.5 142.5q182 0 274 -119l17 80 q2 25 26 25h99q35 0 24 -31l-112 -541q-16 -80 21.5 -128t103.5 -48q115 0 187.5 132t72.5 313q0 274 -192.5 450t-498.5 176q-334 0 -571.5 -235.5t-237.5 -560.5q0 -279 181.5 -464.5t482.5 -185.5q201 0 379 76q20 8 27.5 -2t1.5 -31l-11 -26q-8 -20 -39 -35 q-152 -68 -376 -68q-342 0 -554 211t-212 523zM662 590q-2 -123 55 -194.5t151 -71.5q98 0 182.5 72.5t106.5 174.5h2l43 191l8 37h-2q18 113 -42 180.5t-158 67.5q-143 0 -242.5 -136.5t-103.5 -320.5z" />
<glyph unicode="A" horiz-adv-x="1370" d="M12 25v4q0 16 40 43.5t57 70.5l454 1162q4 9 4 19q-1 26 -29 54q-38 38 -38 47v7q0 23 28 22h119q68 0 96 -68l529 -1243q18 -41 58 -68.5t40 -45.5v-4q0 -25 -39 -25h-289q-39 0 -38 25v4q0 12 14 24.5t29.5 20.5t25.5 26.5t0 42.5l-98 242h-664l-90 -242 q-10 -25 -1 -43t24.5 -26t31 -20.5t15.5 -24.5v-4q0 -25 -43 -25h-195q-41 0 -41 25zM346 473h594l-307 760z" />
<glyph unicode="B" horiz-adv-x="1351" d="M123 25v6q0 14 37 42.5t37 69.5v1168q0 41 -37 69.5t-37 44.5v5q0 25 41 24h446q246 0 389.5 -100.5t143.5 -261.5q0 -117 -74 -200t-203 -112q201 -27 309.5 -127t108.5 -254q0 -188 -154.5 -293.5t-404.5 -105.5h-561q-41 0 -41 25zM381 891q0 -35 22.5 -56.5 t57.5 -21.5h213q135 0 218 69.5t83 178.5q0 145 -99.5 227t-269.5 82l-162 -2q-61 0 -61 -68zM383 182q0 -45 23.5 -71.5t62.5 -26.5h240q182 0 283.5 71.5t101.5 213.5q0 156 -124 258t-345 102h-242v-547z" />
<glyph unicode="C" horiz-adv-x="1388" d="M68 741q0 322 191.5 527t488.5 205q225 0 392 -128t167 -251q0 -41 -23.5 -64.5t-66.5 -23.5q-41 0 -75 39.5t-67 95t-75 112t-118.5 96.5t-181.5 40q-184 0 -316 -154t-132 -391q0 -301 167 -501t390 -200q166 0 279.5 100.5t171.5 239.5q18 33 50.5 25t24.5 -51 q-37 -199 -187 -338t-390 -139q-272 0 -481 229t-209 532z" />
<glyph unicode="D" horiz-adv-x="1517" d="M121 25v4q0 16 38 45.5t38 68.5v1168q0 41 -38 70.5t-38 43.5v5q0 25 43 24h448q346 0 587 -199.5t241 -515.5q0 -338 -214 -538.5t-540 -200.5h-522q-43 0 -43 25zM379 197q0 -53 25.5 -83t70.5 -30h199q246 0 410.5 158.5t164.5 431.5q0 309 -199.5 502.5t-469.5 193.5 h-144q-57 0 -57 -65v-1108z" />
<glyph unicode="E" d="M121 25v4q0 14 38 43.5t38 72.5v1164q0 33 -18.5 54t-38 34.5t-19.5 27.5v7q0 23 37 22h868q41 0 51 -45l49 -203q8 -41 -24 -41h-10q-20 0 -46 32t-47.5 71t-55.5 70.5t-71 31.5h-434q-57 0 -57 -70v-514h373q27 0 45 18.5t27.5 42t20.5 42t25 18.5h9q27 0 26 -35v-251 q0 -35 -26 -35h-9q-14 0 -25 18.5t-20.5 40t-28 39.5t-44.5 18h-373l-2 -530q0 -37 19.5 -62.5t56.5 -25.5h481q37 0 69.5 33t52 72.5t45 72.5t48.5 33h12q14 0 21.5 -12.5t3.5 -28.5l-49 -207q-10 -47 -54 -47h-921q-43 0 -43 25z" />
<glyph unicode="F" horiz-adv-x="1155" d="M121 25v4q0 14 38 43.5t38 70.5v1168q0 27 -12.5 45t-26 26.5t-25.5 19.5t-12 23v5q0 25 37 24h862q41 0 51 -47l49 -203q10 -41 -26 -41h-9q-27 0 -59.5 51.5t-73.5 103.5t-88 52h-422q-59 0 -59 -65v-582h379q23 0 41 18.5t27.5 42t21.5 42t27 18.5h12q27 0 27 -35 v-252q0 -35 -27 -35h-12q-14 0 -26.5 17.5t-22 40t-28 40t-40.5 17.5h-379v-494q0 -31 19.5 -51t40 -34.5t20.5 -28.5v-4q0 -25 -41 -25h-258q-43 0 -43 25z" />
<glyph unicode="G" horiz-adv-x="1482" d="M76 721q0 334 196.5 543t489.5 209q240 0 402.5 -125t162.5 -252q0 -39 -24.5 -63.5t-63.5 -24.5q-41 0 -77 38.5t-70.5 95t-78.5 113t-122 95.5t-182 39q-188 0 -319.5 -161t-131.5 -397q0 -305 173 -516t403 -211q197 0 319 89v354q0 29 -21.5 47t-48 26.5t-48 18.5 t-21.5 20v9q0 29 43 28l350 -2q41 0 41 -26v-9q0 -10 -18.5 -20t-42 -18.5t-42 -27t-18.5 -46.5v-318q0 -55 -53 -98q-183 -151 -490 -151q-285 0 -496.5 221t-211.5 520z" />
<glyph unicode="H" horiz-adv-x="1570" d="M123 25v4q0 14 37 43.5t37 70.5v1168q0 41 -37 70.5t-37 43.5v5q0 25 41 24h256q41 0 41 -24v-5q0 -14 -19.5 -28.5t-39 -35t-19.5 -50.5l-2 -525h805l-2 525q0 41 -37 70.5t-37 43.5v5q0 25 41 24h256q43 0 43 -24v-5q0 -14 -20.5 -28.5t-40 -35t-19.5 -50.5v-1168 q0 -31 19.5 -51t40 -34.5t20.5 -28.5v-4q0 -25 -43 -25h-256q-41 0 -41 25v4q0 14 37 43.5t37 70.5l2 553h-803v-553q0 -31 19.5 -51t39 -34.5t19.5 -28.5v-4q0 -25 -41 -25h-256q-41 0 -41 25z" />
<glyph unicode="I" horiz-adv-x="581" d="M123 25v4q0 14 37 42.5t37 69.5v1170q0 41 -37 70.5t-37 43.5v5q0 25 41 24h256q41 0 41 -24v-5q0 -14 -19.5 -28.5t-39 -35t-19.5 -50.5v-1170q0 -41 39 -69.5t39 -42.5v-4q0 -25 -41 -25h-256q-41 0 -41 25z" />
<glyph unicode="J" horiz-adv-x="1058" d="M20 309q0 43 24 68.5t65 25.5q45 0 71.5 -34.5t41 -85t36 -100.5t72.5 -85t133 -35q102 0 167.5 97.5t65.5 275.5v875q0 41 -37.5 70.5t-37.5 43.5v5q0 25 43 24h258q39 0 39 -24v-5q0 -14 -19.5 -28.5t-39 -35t-19.5 -50.5l-2 -789q-2 -539 -435 -542 q-111 0 -196.5 32.5t-133.5 86t-72 107.5t-24 103z" />
<glyph unicode="K" horiz-adv-x="1390" d="M123 25v4q0 16 37 46.5t37 69.5v1166q0 41 -37 70.5t-37 43.5v5q0 25 41 24h256q41 0 41 -24v-5q0 -14 -19.5 -28.5t-39 -35t-19.5 -50.5v-668l668 662q29 37 22.5 52t-27 35.5t-20.5 32.5v5q0 25 43 24h213q41 0 41 -24v-5q0 -16 -20.5 -30.5t-59.5 -39t-65 -50.5 l-373 -369l512 -791q18 -31 39.5 -51t35 -27.5t21.5 -16.5t8 -21v-4q0 -25 -35 -25h-292q-37 0 -37 25v4q1 11 35 41q22 19 21 40q0 12 -7 25l-426 676l-297 -293v-373q0 -39 40 -69.5t40 -46.5v-4q0 -25 -43 -25h-256q-41 0 -41 25z" />
<glyph unicode="L" horiz-adv-x="1177" d="M123 25v4q0 16 37 44.5t37 69.5v1168q0 43 -37 70.5t-37 43.5v5q0 25 41 24h258q41 0 41 -24v-5q0 -16 -40 -43.5t-40 -70.5v-1147q0 -80 66 -80h454q41 0 74 35t51.5 78t43 77.5t46.5 34.5h17q33 0 22 -37l-51 -225q-10 -47 -51 -47h-891q-41 0 -41 25z" />
<glyph unicode="M" horiz-adv-x="1832" d="M43 25v4q0 16 37 46.5t45 74.5l199 1157q1 6 1 11q0 34 -32 60q-37 30 -37 45v4q0 27 35 27h135q61 0 80 -53l399 -1157l412 1159q18 51 74 51h145q31 0 31 -22v-7q0 -16 -21.5 -31.5t-37.5 -39.5q-12 -18 -13 -44q0 -9 2 -20l213 -1140q8 -45 46 -75t38 -46v-4 q0 -25 -43 -25h-252q-41 0 -41 25v4q0 14 20.5 28.5t37 36t10.5 56.5l-180 1021l-412 -1126q-18 -43 -53 -43q-37 0 -56 41l-415 1153l-177 -1046q-4 -27 6.5 -46.5t27 -28.5t30.5 -21.5t14 -24.5v-4q0 -25 -41 -25h-186q-41 0 -41 25z" />
<glyph unicode="N" horiz-adv-x="1536" d="M119 25v4q0 14 39 45.5t39 75.5v1159q0 31 -19.5 50t-39 32.5t-19.5 27.5v8q0 27 41 27h155q45 0 74 -41l850 -1175v1073q0 41 -42 69.5t-42 42.5v4q0 27 43 27h186q41 0 41 -27v-4q0 -14 -41 -42.5t-41 -69.5v-1256q0 -55 -51 -55h-51q-31 0 -65 53l-875 1192v-1095 q0 -33 21.5 -54.5t44 -37t22.5 -29.5v-4q0 -25 -43 -25h-186q-41 0 -41 25z" />
<glyph unicode="O" horiz-adv-x="1581" d="M78 731q0 322 200.5 533t514.5 211q309 0 509.5 -221.5t200.5 -534.5q0 -305 -201.5 -522t-494.5 -217q-315 0 -522 223t-207 528zM262 856q0 -326 167 -557t423 -231q201 0 334 157.5t133 370.5q0 332 -166 561t-424 229q-205 0 -336 -151.5t-131 -378.5z" />
<glyph unicode="P" horiz-adv-x="1239" d="M121 27v4q0 12 38 41.5t38 70.5v1168q0 37 -38 67.5t-38 44.5v7q0 25 43 24h381q133 0 245.5 -26.5t203.5 -82t143.5 -148.5t52.5 -216q0 -233 -158 -360t-440 -127h-211v-351q0 -41 40 -70.5t40 -41.5v-4q0 -27 -41 -27h-256q-43 0 -43 27zM381 651q0 -73 74 -73h137 q188 0 297.5 95t109.5 263q0 211 -132 322.5t-322 111.5h-111q-53 0 -53 -65v-654z" />
<glyph unicode="Q" horiz-adv-x="1579" d="M78 731q0 322 200.5 533t514.5 211q309 0 509.5 -221.5t200.5 -534.5q0 -299 -192.5 -514t-476.5 -225q16 -8 71.5 -41t82 -46.5t74.5 -34t95 -28.5t98 -8q173 0 271 59q12 6 23.5 -5t-1.5 -30q-31 -66 -123 -108.5t-202 -42.5q-94 0 -190.5 39t-163 86t-157.5 86 t-180 39q-137 0 -260 -64q-31 -12 -41 15.5t13 50.5q104 92 233 110q-184 94 -291.5 277.5t-107.5 396.5zM262 856q0 -326 167 -557t423 -231q201 0 334 157.5t133 370.5q0 332 -166 561t-424 229q-205 0 -336 -151.5t-131 -378.5z" />
<glyph unicode="R" horiz-adv-x="1327" d="M123 25v4q0 14 37 43.5t37 70.5v1168q0 41 -37 70.5t-37 43.5v5q0 25 41 24h420q276 0 446 -113.5t172 -336.5q0 -143 -90 -252t-256 -156l328 -453q23 -33 56.5 -54t53 -32.5t19.5 -27.5v-4q0 -25 -41 -25h-285q-41 0 -41 25v4q0 14 21.5 30.5t30 29.5t-10.5 54 l-307 424q-16 -2 -51 -2l-246 -4v-418q0 -31 19.5 -51t40 -34.5t20.5 -28.5v-4q0 -25 -41 -25h-258q-41 0 -41 25zM383 743q0 -96 86 -96h141q180 0 291 88t111 242q0 193 -126 293t-313 100h-137q-53 0 -53 -70v-557z" />
<glyph unicode="S" horiz-adv-x="1241" d="M68 340q0 37 20.5 59.5t56.5 22.5q39 -2 69 -40t57.5 -91t66.5 -105.5t120 -89.5t195 -37q145 0 236.5 77t91.5 198q0 102 -48 167.5t-125 95.5t-170 48.5t-187.5 41t-171 60t-125 119.5t-48.5 207q0 176 136.5 288t373.5 112q242 0 386.5 -106.5t143.5 -227.5 q0 -82 -83 -82q-41 0 -68.5 34.5t-50 84t-55.5 98.5t-103.5 84t-175.5 35q-150 0 -233.5 -78t-83.5 -199q0 -96 48 -157.5t126 -90t171 -48t186.5 -44t171 -64.5t125.5 -125t48 -210q0 -180 -151.5 -288.5t-372.5 -108.5q-270 0 -423.5 121.5t-153.5 238.5z" />
<glyph unicode="T" horiz-adv-x="1245" d="M23 1186l32 223q6 45 51 45h1018q43 0 54 -45l45 -225q8 -39 -25 -39h-20q-18 0 -40 34.5t-38.5 75.5t-46 76t-64.5 35h-282v-1223q0 -31 19 -51t39.5 -34.5t20.5 -28.5v-4q0 -25 -43 -25h-256q-41 0 -41 25v4q0 14 38 43.5t38 70.5v1223h-278q-35 0 -62.5 -35t-42 -76 t-34 -75.5t-37.5 -34.5h-19q-33 0 -26 41z" />
<glyph unicode="U" horiz-adv-x="1472" d="M98 1423v7q0 25 41 24h258q41 0 41 -24v-7q0 -14 -39 -42.5t-39 -69.5v-746q0 -227 117 -362t309 -135q170 0 289 132t119 365v746q0 41 -39 69.5t-39 42.5v7q0 25 43 24h180q43 0 43 -24v-7q0 -14 -42 -42.5t-42 -69.5v-748q0 -264 -151 -423.5t-395 -159.5 q-258 0 -419 159.5t-161 425.5v746q0 41 -37 69.5t-37 42.5z" />
<glyph unicode="V" horiz-adv-x="1433" d="M-4 1425v5q0 25 43 24h293q43 0 43 -24v-5q0 -12 -16.5 -24t-33 -21.5t-27.5 -28t1 -42.5l475 -1106l447 1108q12 31 -8.5 51t-48 34.5t-27.5 28.5v7q0 23 41 22h213q39 0 39 -22v-7q0 -16 -39 -42.5t-58 -71.5l-528 -1258q-25 -53 -74 -53q-45 0 -69 51l-574 1258 q-20 43 -56 70.5t-36 45.5z" />
<glyph unicode="W" horiz-adv-x="2009" d="M-10 1427v5q0 23 37 22h288q39 0 39 -24v-5q0 -16 -22.5 -29.5t-39 -33t-3.5 -53.5l399 -1078l301 844l-80 236q-14 43 -58 71.5t-44 44.5v5q0 23 33 22h293q35 0 34 -22v-5q0 -14 -23.5 -26t-42 -32.5t-7.5 -57.5l356 -1078l334 1078q8 25 -1 43t-24.5 26.5t-30 19.5 t-14.5 23v4q0 27 37 27h205q37 0 37 -22v-7q0 -16 -41 -43.5t-58 -70.5l-403 -1258q-18 -53 -80 -53q-51 0 -70 51l-301 877l-315 -875q-16 -53 -72 -53q-49 0 -69 51l-490 1258q-14 37 -40.5 57t-45 32.5t-18.5 28.5z" />
<glyph unicode="X" horiz-adv-x="1357" d="M-8 25v4q0 16 21.5 29.5t55 35t54.5 49.5l459 596l-430 572q-23 31 -53.5 52t-48 33.5t-17.5 28.5v5q0 25 41 24h291q41 0 41 -24v-5q0 -14 -23 -32.5t-33 -32.5t8 -49l371 -490l356 490q18 35 7 49t-34.5 32.5t-23.5 32.5v5q0 25 39 24h223q41 0 41 -24v-5 q0 -16 -21.5 -28.5t-55 -34t-56.5 -51.5l-420 -563l457 -605q20 -29 51 -50t47.5 -34.5t16.5 -29.5v-4q0 -25 -41 -25h-297q-39 0 -39 25v4q0 14 23.5 32.5t34 33t-8.5 48.5l-391 523l-387 -523q-18 -35 -10 -49t27.5 -32.5t19.5 -32.5v-4q0 -25 -41 -25h-213q-41 0 -41 25z " />
<glyph unicode="Y" horiz-adv-x="1351" d="M8 1425v5q0 25 41 24h299q41 0 41 -24v-5q0 -14 -25.5 -31.5t-39 -31.5t1.5 -51l399 -658l399 658q16 39 1 53t-42.5 30.5t-27.5 30.5v5q0 25 37 24h200q41 0 41 -22v-7q0 -18 -42 -44.5t-66 -69.5l-443 -723v-445q0 -31 19.5 -51t39 -34.5t19.5 -28.5v-4q0 -25 -39 -25 h-258q-41 0 -41 25v4q0 14 37 43.5t37 70.5v432l-475 736q-23 37 -68 66.5t-45 47.5z" />
<glyph unicode="Z" horiz-adv-x="1236" d="M45 37v12q0 16 27 55l868 1266h-643q-31 0 -60.5 -32.5t-48 -72.5t-43 -73t-49.5 -33h-8q-33 0 -33 32q0 8 2 17l56 201q10 45 51 45h954q16 0 27.5 -11t11.5 -26v-18q0 -14 -31 -60l-864 -1255h692q39 0 74 34t56.5 76t46 75.5t47.5 33.5h4q34 0 34 -26q0 -7 -2 -15 l-57 -219q-14 -43 -49 -43h-1022q-16 0 -28.5 11.5t-12.5 25.5z" />
<glyph unicode="[" horiz-adv-x="591" d="M170 -182v1745q0 33 35 32h330q27 0 26 -26v-39q0 -25 -26 -25h-205v-1630h205q27 0 26 -25v-38q0 -27 -26 -27h-330q-35 0 -35 33z" />
<glyph unicode="\" horiz-adv-x="735" d="M59 1597q-10 35 19 35h57q29 0 35 -20l506 -1788q10 -33 -25 -33h-53q-31 0 -37 21z" />
<glyph unicode="]" horiz-adv-x="591" d="M31 -150q0 25 26 25h205v1630h-205q-27 0 -26 25v39q0 27 26 26h330q35 0 35 -32v-1745q0 -33 -35 -33h-330q-27 0 -26 27v38z" />
<glyph unicode="^" d="M292 1213.5q-5 19.5 11 43.5l225 299q18 29 62 29h37q41 0 63 -26l236 -302q16 -23 12 -45t-21.5 -26t-39.5 12l-273 254l-254 -254q-14 -14 -33.5 -9t-24.5 24.5z" />
<glyph unicode="_" horiz-adv-x="993" d="M66 -29q0 29 26 29h809q27 0 27 -29v-43q0 -29 -27 -28h-809q-27 0 -26 28v43z" />
<glyph unicode="`" d="M256 1376l33 66q27 49 73 14l361 -258q27 -23 10.5 -49t-51.5 -14l-399 176q-51 16 -27 65z" />
<glyph unicode="a" horiz-adv-x="1036" d="M76 289v5q0 139 104 218q106 80 271 80q164 0 251 -82l-4 55q-18 188 -75.5 280.5t-176.5 92.5q-72 0 -118.5 -37t-64 -80t-42 -79.5t-57.5 -36.5q-37 0 -58.5 20t-21.5 55q0 86 101.5 155t260.5 69q186 0 298 -114t133 -319l41 -407q4 -43 22 -66.5t38.5 -29t37 -13.5 t16.5 -24q0 -43 -131 -43q-74 0 -108.5 27.5t-40.5 107.5q-78 -143 -295 -143q-172 0 -276.5 81.5t-104.5 227.5zM256 313q0 -115 68.5 -191.5t177.5 -76.5q100 1 164 65q60 61 59 149v11l-8 92q-16 74 -76.5 119t-148.5 45q-104 0 -170 -59t-66 -154z" />
<glyph unicode="b" horiz-adv-x="1165" d="M66 1415v6q0 18 34 33l162 78q29 14 46.5 6t17.5 -35v-633q106 134 300.5 134t333 -138.5t138.5 -359.5q0 -225 -136.5 -375.5t-332.5 -150.5q-203 0 -316 155l2 -104q0 -33 -34 -33l-179 2q-31 0 -30 23v6q0 14 37.5 44.5t37.5 71.5v1147q0 37 -20.5 59.5t-40.5 36 t-20 27.5zM324 360h2q0 -123 85 -219t191 -96q143 0 228 111.5t85 300.5q0 213 -93 347t-242 134q-102 0 -178 -77t-76 -181v-291z" />
<glyph unicode="c" horiz-adv-x="1028" d="M59 498q0 225 144.5 364t359.5 142h8q155 0 272 -81q120 -83 120 -173q0 -72 -78 -72h-4q-39 2 -73 42t-59.5 88t-82 89t-136.5 41q-127 0 -208.5 -103.5t-81.5 -256.5q0 -213 108.5 -341t280.5 -128q100 0 172.5 54t111.5 138q12 25 39 18.5t21 -34.5 q-25 -125 -130.5 -215t-271.5 -90q-215 0 -363.5 148t-148.5 370z" />
<glyph unicode="d" horiz-adv-x="1163" d="M70 494q0 223 137 366.5t342 143.5q180 0 297 -134v447q0 37 -21.5 59.5t-43 34.5t-21.5 27v4q0 20 31 35l165 55q19 8 33 8q30 0 31 -39v-1358q0 -41 38 -71.5t38 -42.5v-6q0 -23 -31 -23h-172q-31 0 -35 33l-4 102q-51 -76 -134 -115.5t-177 -39.5q-195 0 -334 143 t-139 371zM246 555v-17q0 -202 92 -342q96 -146 248 -149q98 0 179 79t81 216h2l-2 104v205q0 104 -89 195.5t-210 91.5q-133 0 -216 -105.5t-85 -277.5z" />
<glyph unicode="e" horiz-adv-x="1013" d="M70 500q0 215 139 359.5t344 144.5q174 0 277.5 -93.5t103.5 -210.5q0 -88 -96 -120l-568 -187q35 -133 124 -207.5t214 -74.5q211 0 293 178q14 23 39 17.5t21 -34.5q-23 -109 -131.5 -200.5t-284.5 -91.5q-203 0 -339 143t-136 377zM248 565q0 -61 8 -104l457 164 q49 20 49 71q0 78 -71 160t-169 82q-123 0 -198.5 -106.5t-75.5 -266.5z" />
<glyph unicode="f" horiz-adv-x="698" d="M10 928v26q0 29 31 29h170v178q0 156 88 252t246 96q109 0 189.5 -59t80.5 -141q0 -29 -20.5 -50.5t-55.5 -21.5q-53 0 -76.5 31.5t-26.5 70.5t-30.5 72t-89.5 33h-3q-98 0 -129 -123q-14 -56 -14 -119q0 -77 21 -164v-55h285q12 0 20.5 -9t8.5 -20v-26q0 -27 -29 -27 h-285v-756q0 -31 22.5 -51t46 -34.5t23.5 -28.5v-6q0 -25 -30 -25h-289q-31 0 -31 25v6q0 14 19.5 28.5t39 35t19.5 50.5v756h-170q-31 0 -31 27z" />
<glyph unicode="g" horiz-adv-x="1087" d="M61 -20q0 33 19.5 55t56.5 22q29 0 50.5 -23.5t35 -59t37 -77.5t53 -78t89 -60.5t139.5 -24.5q125 0 202.5 63.5t77.5 165.5q0 98 -61.5 160.5t-165.5 73.5q-53 -4 -78 -4q-184 0 -311 115.5t-127 281.5q0 182 125 298t327 116q55 0 166 -10.5t254 -10.5q70 0 70 -31 q0 -10 -12 -20q-16 -16 -43 -24.5t-66 -12.5t-59 -10q66 -49 104.5 -126t38.5 -157q0 -127 -65.5 -223t-180.5 -146q131 -29 199 -97t68 -161q0 -141 -132.5 -224t-343.5 -83q-217 0 -342 99.5t-125 212.5zM256 664q0 -166 85 -285t208 -119q117 0 186.5 79t69.5 200 q0 164 -87 281.5t-220 117.5q-109 0 -175.5 -78t-66.5 -196z" />
<glyph unicode="h" horiz-adv-x="1163" d="M72 1417v6q0 23 28 35l168 74q27 12 43.5 5t16.5 -32l-4 -663q104 162 305 162q160 0 267.5 -112t119.5 -333l22 -412q4 -41 39 -69.5t35 -44.5v-8q0 -25 -41 -25h-246q-41 0 -41 25v8q0 14 19.5 28.5t38 34t16.5 49.5l-20 418q-8 176 -76 268.5t-176 92.5 q-113 0 -184.5 -80t-71.5 -203v-498q0 -39 41 -66.5t41 -43.5v-6q0 -27 -43 -27h-256q-39 0 -39 27v6q0 16 38 43.5t38 66.5v1157q0 35 -19.5 56.5t-39 35t-19.5 25.5z" />
<glyph unicode="i" horiz-adv-x="497" d="M88 27v8q0 14 18.5 27.5t37 33t18.5 49.5v611q0 47 -37 81.5t-37 45.5v4q0 14 31 31l157 77q33 12 48.5 4t15.5 -32v-822q0 -25 12.5 -42t28.5 -25t28.5 -19.5t12.5 -23.5v-8q0 -27 -43 -27h-252q-39 0 -39 27zM109 1304.5q0 57.5 37.5 93.5t99.5 36q59 0 96 -36 t37 -93.5t-37 -92t-96 -34.5q-63 0 -100 34.5t-37 92z" />
<glyph unicode="j" horiz-adv-x="491" d="M-119 -213q0 35 22.5 57.5t59.5 22.5q39 0 61.5 -26.5t28.5 -59.5t26.5 -59.5t59.5 -26.5q43 0 68.5 30.5t25.5 79.5q0 51 -28.5 127t-28.5 121v703q0 47 -37 79.5t-37 45.5v6q0 14 29 31l164 77q31 14 48 4t17 -32v-961q0 -119 -34 -227q-51 -156 -217 -156 q-100 0 -164 45t-64 119zM115 1304.5q0 57.5 37.5 93.5t99.5 36q59 0 96 -36t37 -93.5t-37 -92t-96 -34.5q-63 0 -100 34.5t-37 92z" />
<glyph unicode="k" horiz-adv-x="1067" d="M68 1417v4q0 16 28 33l166 78q31 12 48.5 3t17.5 -32v-1028l413 365q23 29 12.5 42t-34 34.5t-23.5 35.5v6q0 25 33 25h232q29 0 28 -22v-7q0 -16 -20.5 -31.5t-59.5 -38t-63 -42.5l-244 -226l387 -499q16 -20 59.5 -44t43.5 -44v-4q0 -25 -31 -25h-273q-31 0 -30 25v4 q0 14 29.5 37.5t7.5 50.5l-312 391l-155 -143v-222q0 -39 40 -66.5t40 -43.5v-6q0 -27 -43 -27h-250q-41 0 -41 27v6q0 16 36.5 43.5t36.5 66.5v1151q0 35 -20.5 58.5t-39.5 38t-19 26.5z" />
<glyph unicode="l" horiz-adv-x="483" d="M78 27v6q0 16 36 43.5t36 66.5v1151q0 35 -17.5 58.5t-36 38t-18.5 26.5v4q0 16 28 33l160 78q31 12 47.5 3t16.5 -32v-1360q0 -39 40 -66.5t40 -43.5v-6q0 -27 -41 -27h-252q-39 0 -39 27z" />
<glyph unicode="m" horiz-adv-x="1843" d="M80 885v6q0 18 31 31l159 73q29 14 44.5 4t15.5 -34v-146q45 84 126 134.5t177 50.5q115 0 208 -58.5t142 -167.5q39 104 127 165t201 61q166 0 269 -112t118 -353l22 -394q2 -41 39 -70.5t37 -43.5v-8q0 -25 -41 -25h-246q-41 0 -41 25v8q0 14 37 42.5t35 69.5l-20 400 q-10 201 -75 291t-181 90q-98 0 -169 -78t-75 -193q8 -41 8 -100v-410q0 -41 36 -69.5t36 -42.5v-8q0 -25 -39 -25h-242q-43 0 -43 25v8q0 14 36 42.5t36 69.5v420q0 166 -73 263.5t-181 97.5q-106 0 -178 -80t-76 -197l2 -504q0 -41 40 -69.5t40 -42.5v-8q0 -25 -41 -25 h-256q-41 0 -41 25v8q0 14 39 42.5t39 69.5v621q0 35 -20.5 57.5t-41 35.5t-20.5 28z" />
<glyph unicode="n" horiz-adv-x="1175" d="M78 885v6q0 18 33 31l153 73q29 14 43.5 4t14.5 -34v-150q45 86 130 137.5t189 51.5q160 0 267.5 -113t121.5 -340l23 -404q2 -33 20.5 -53t35.5 -33.5t17 -27.5v-8q0 -27 -43 -27h-243q-43 0 -43 27v8q0 14 37.5 42.5t35.5 69.5l-20 410q-8 182 -74.5 275.5t-177.5 93.5 q-113 0 -184.5 -80t-71.5 -203v-498q0 -25 13.5 -42t27.5 -25t27.5 -19.5t13.5 -23.5v-8q0 -27 -43 -27h-256q-41 0 -41 27v8q0 16 40 42.5t40 67.5v621q0 39 -21.5 60.5t-43 33.5t-21.5 27z" />
<glyph unicode="o" horiz-adv-x="1157" d="M68 506q0 213 143 355.5t354 142.5q227 0 373.5 -151t146.5 -370q0 -215 -135 -359t-348 -144q-238 0 -386 154.5t-148 371.5zM250 563q0 -205 106.5 -360.5t270.5 -155.5q121 0 199.5 102.5t78.5 272.5q0 217 -102.5 365.5t-257.5 148.5q-131 0 -213 -101.5t-82 -271.5z " />
<glyph unicode="p" horiz-adv-x="1171" d="M66 881v6q0 25 32 37l148 71q19 9 31 9q26 0 26 -37l-2 -136q47 80 134.5 126.5t193.5 46.5q195 0 333 -138.5t138 -359.5q0 -225 -136.5 -375.5t-332.5 -150.5q-188 0 -303 141v-440q0 -33 20.5 -53.5t40 -34t19.5 -27.5v-6q0 -27 -41 -27h-252q-43 0 -43 27v6 q0 12 12 23.5t25.5 19.5t25.5 26.5t12 45.5v1085q0 39 -40.5 68.5t-40.5 46.5zM328 360q0 -123 84.5 -219t193.5 -96q141 0 226.5 111.5t85.5 300.5q0 213 -92.5 347t-241.5 134q-94 0 -169 -66.5t-87 -160.5v-351z" />
<glyph unicode="q" horiz-adv-x="1167" d="M70 494q0 223 137 366.5t344 143.5q199 0 313 -154v111q0 25 18.5 35t47.5 -1l139 -37q31 -8 31 -34v-6q0 -12 -19.5 -26.5t-39 -38.5t-19.5 -58v-1117q0 -31 19.5 -51t39 -34.5t19.5 -28.5v-6q0 -25 -43 -25h-248q-41 0 -41 25v6q0 14 19.5 28.5t40 35t20.5 50.5v449 q-104 -147 -305 -147q-195 0 -334 143t-139 371zM246 555v-17q0 -202 92 -342q96 -147 248 -149q98 0 180 79t82 216v315q-2 102 -91 191.5t-208 89.5q-133 0 -217 -105.5t-86 -277.5z" />
<glyph unicode="r" horiz-adv-x="780" d="M80 885v4q0 20 31 37l155 69q17 8 29 8q24 0 24 -36v-164q70 201 267 201q88 0 138 -45.5t50 -112.5q0 -96 -82 -96q-35 0 -55.5 22.5t-27.5 49t-31.5 49t-67.5 22.5q-82 0 -128 -81t-46 -202v-467q0 -41 43 -68.5t43 -41.5v-8q0 -25 -41 -25h-254q-41 0 -41 25v8 q0 14 38 41.5t38 68.5v623q0 43 -41 73.5t-41 45.5z" />
<glyph unicode="s" horiz-adv-x="956" d="M63 215q0 76 80 76q35 0 56.5 -25.5t38 -62.5t40 -74t74.5 -62.5t127 -25.5q102 0 168 48t66 132q0 82 -64.5 127t-157 64.5t-184.5 44t-156.5 90t-64.5 176.5q0 119 108.5 200t276.5 81q178 0 288.5 -76t110.5 -166q0 -31 -21.5 -51.5t-51.5 -20.5q-37 0 -63.5 39 t-44 86t-71 86t-139.5 39q-90 0 -150.5 -51t-60.5 -127q0 -80 64.5 -124t157 -64.5t183.5 -45t155.5 -91t64.5 -179.5q0 -119 -114 -197.5t-300 -78.5q-188 0 -302 75.5t-114 157.5z" />
<glyph unicode="t" horiz-adv-x="729" d="M14 932v20q0 31 31 31h74q139 0 155 195q4 41 35 41h21q33 0 32 -41l3 -195h282q12 0 21.5 -9t9.5 -22v-20q0 -31 -31 -31h-282v-614q0 -82 34.5 -127t94.5 -45q66 0 105.5 33.5t45.5 89.5q10 25 36 21.5t26 -30.5q0 -100 -73 -174.5t-190 -74.5q-123 0 -193.5 78.5 t-70.5 230.5v612h-135q-31 0 -31 31z" />
<glyph unicode="u" horiz-adv-x="1157" d="M59 928v6q0 25 31 31l172 30q12 2 22 2q33 0 33 -26l-2 -539q0 -178 62.5 -275.5t179.5 -97.5q111 0 185.5 86t74.5 226v438q0 43 -40 73.5t-40 45.5v6q0 25 31 31l174 30q12 2 21 2q32 0 32 -26v-795q0 -51 18.5 -77.5t39 -29.5t39 -11.5t18.5 -26.5q0 -43 -127 -43 q-149 0 -149 138v13l-5 13q-94 -172 -315 -172q-172 0 -275.5 121.5t-103.5 344.5v363q0 45 -38 75.5t-38 43.5z" />
<glyph unicode="v" horiz-adv-x="1056" d="M4 954v7q0 23 31 22h284q29 0 29 -25v-6q0 -8 -34 -42q-25 -24 -25 -50q0 -11 4 -22l289 -709l280 690q12 33 3 55.5t-25.5 33t-32.5 21.5t-16 23v6q0 25 30 25h207q31 0 31 -22v-7q0 -18 -45 -49t-60 -65l-323 -799q-16 -41 -53 -41h-64q-37 0 -55 41l-367 799 q-16 35 -52 65.5t-36 48.5z" />
<glyph unicode="w" horiz-adv-x="1521" d="M2 952v6q0 25 31 25h258q29 0 28 -25v-6q0 -14 -20 -26.5t-34.5 -33t-2.5 -56.5l234 -652l241 762q8 33 35 33l68 2q25 0 34 -33l236 -772l227 647q6 18 6 32q0 19 -10 31q-18 22 -43.5 37t-25.5 29v6q0 25 30 25h197q29 0 29 -25v-6q0 -16 -38 -43.5t-55 -70.5 l-286 -797q-14 -41 -51 -41h-39q-43 0 -56 41l-231 725l-234 -725q-12 -41 -51 -41h-26q-39 0 -56 41l-315 797q-16 41 -48 69.5t-32 44.5z" />
<glyph unicode="x" horiz-adv-x="1028" d="M-2 25v6q0 14 17.5 26.5t54 38t67.5 60.5l287 333l-266 338q-29 37 -60.5 60.5t-46 35t-14.5 29.5v6q0 25 29 25h280q31 0 31 -25v-6q0 -14 -17.5 -35.5t-21.5 -37t20 -54.5l205 -256l225 256q27 41 21 57.5t-28.5 37t-22.5 32.5v6q0 25 30 25h183q31 0 30 -25v-6 q0 -16 -11 -29.5t-40.5 -39t-56.5 -56.5l-279 -323l281 -352q20 -27 51 -50.5t46.5 -39t15.5 -31.5v-6q0 -25 -31 -25h-287q-31 0 -31 27v4q0 12 23 29.5t30 33.5q1 3 1 7q0 17 -23 53l-211 266l-227 -270q-25 -29 -26 -50.5t13.5 -30t29 -18.5t14.5 -20v-4q0 -27 -33 -27 h-221q-31 0 -31 25z" />
<glyph unicode="y" horiz-adv-x="1069" d="M-39 -252q0 37 20.5 59.5t57.5 22.5q35 0 59.5 -29.5t35.5 -66.5t39 -66.5t71 -29.5q121 0 250 323l-394 866q-23 45 -60.5 76t-37.5 49v6q0 25 31 25h266q29 0 29 -25v-6q0 -14 -17.5 -31.5t-26.5 -32.5q-2 -6 -2 -14q0 -18 11 -49l295 -694l293 678q16 37 6 60.5 t-28.5 34.5t-37 23.5t-18.5 24.5v6q0 25 31 25h204q29 0 29 -25v-6q0 -18 -36 -49t-56 -78l-387 -854q-35 -80 -51.5 -113.5t-56.5 -103t-72.5 -101.5t-85 -59.5t-109.5 -27.5q-109 0 -180.5 58.5t-71.5 123.5z" />
<glyph unicode="z" horiz-adv-x="974" d="M51 37v12q0 12 27 55l608 818h-379q-35 0 -66.5 -31t-50 -69t-42 -68.5t-46.5 -30.5h-8q-29 0 -29 24q0 10 5 25l51 166q16 45 53 45h672q14 0 25.5 -10t11.5 -27v-18q0 -16 -33 -60l-606 -807h444q41 0 76 33t55.5 71t46 70.5t47.5 32.5h11q39 0 24 -43l-55 -182 q-14 -43 -49 -43h-752q-16 0 -28.5 11.5t-12.5 25.5z" />
<glyph unicode="{" horiz-adv-x="602" d="M42 709.5q11 25.5 42 25.5q49 0 83 55.5t34 167.5v299q0 162 94 245t248 81q23 0 34 -19.5t1.5 -40t-35.5 -20.5q-80 0 -126 -61.5t-48 -177.5l-2 -297q0 -238 -154 -285q154 -43 152 -299v-252q-2 -244 170 -244q25 0 35 -20.5t0.5 -41t-33.5 -20.5q-152 0 -244 83 t-92 251v254q0 123 -34 181.5t-83 58.5q-29 0 -41 25.5t-1 51z" />
<glyph unicode="|" horiz-adv-x="464" d="M170 -154v1579q0 27 23 31l77 -2q25 0 25 -29v-1579q0 -14 -6 -23t-17 -7h-82q-20 0 -20 30z" />
<glyph unicode="}" horiz-adv-x="604" d="M27 1523.5q-9 20.5 2.5 40t33.5 19.5q152 2 246 -81t94 -245v-299q2 -113 36 -168t83 -55q29 0 40 -25.5t-1 -51t-39 -25.5q-49 0 -84 -58.5t-35 -181.5v-254q0 -168 -92 -251t-243 -83q-23 0 -32 20.5t1 41t35 20.5q170 0 170 244l-2 252q-2 150 47 218.5t108 80.5 q-59 14 -108 80.5t-49 204.5v297q-2 117 -48.5 178t-126.5 61q-27 0 -36 20.5z" />
<glyph unicode="~" d="M156 541q16 90 76.5 158.5t160.5 68.5q92 0 229.5 -69.5t206.5 -69.5q51 0 94.5 23.5t61.5 68.5q16 27 39 27h35q29 0 22 -33q-18 -102 -90.5 -161.5t-167.5 -59.5q-111 0 -239.5 69.5t-190.5 69.5q-94 0 -143 -96q-16 -31 -51 -31h-23q-27 0 -20 35z" />
<glyph unicode="&#xa1;" horiz-adv-x="454" d="M98 811q0 59 37 92t92.5 33t92 -33t36.5 -92q0 -57 -36.5 -89t-92 -32t-92.5 32t-37 89zM131 -356q6 467 53 899q4 27 41 26.5t41 -26.5q52 -375 64 -901q0 -49 -49.5 -68.5t-99.5 2t-50 68.5z" />
<glyph unicode="&#xa2;" horiz-adv-x="1077" d="M80 735q0 227 131 373.5t328 163.5v164q0 31 24 30h35q23 0 23 -30v-164q145 -10 253.5 -89t108.5 -163q0 -33 -22.5 -55.5t-59.5 -22.5q-39 0 -69.5 33t-50 74t-61.5 84t-99 57v-858q10 -2 30 -2q195 0 293 219q12 23 43 16.5t25 -35.5q-25 -123 -121 -225t-270 -112 v-160q0 -35 -25 -35h-31q-27 0 -26 35v162q-190 20 -324.5 175.5t-134.5 364.5zM264 825q0 -180 76 -307t199 -170v850q-111 -4 -193 -112.5t-82 -260.5z" />
<glyph unicode="&#xa3;" horiz-adv-x="1341" d="M80 645v51q0 18 31 19h225q-90 172 -90 317q0 203 135 326t377 123q176 0 310 -80t134 -176q0 -37 -23.5 -63.5t-64.5 -26.5q-37 0 -65.5 26.5t-51 65.5t-52.5 77.5t-85 65.5t-133 27q-143 0 -220 -98.5t-77 -249.5q0 -156 78 -334h391q31 0 31 -21v-49q0 -20 -31 -20 h-356q53 -141 53 -273q0 -78 -27 -149q193 -90 316 -90q113 0 201.5 52t119.5 128q14 27 45 20.5t25 -41.5q-33 -131 -136.5 -215t-283.5 -84q-145 0 -344 123q-92 -117 -231 -116q-84 0 -130.5 43t-46.5 110q0 66 51.5 108t135.5 42q74 0 160 -31q8 39 8 94q0 127 -76 279 h-272q-31 0 -31 20zM184 127q0 -33 25.5 -53.5t66.5 -20.5q92 0 142 101q-80 45 -139 45q-45 0 -70 -19.5t-25 -52.5z" />
<glyph unicode="&#xa4;" horiz-adv-x="1267" d="M121 1122.5q-2 12.5 8 18.5l33 30q18 18 39 -2l133 -133q125 92 293 92q180 0 307 -94l133 135q25 20 43 2l31 -30q23 -14 -2 -39l-135 -133q98 -111 98 -260q-1 -148 -101 -265l138 -135q23 -23 2 -41l-31 -30q-16 -14 -43 2l-135 141q-129 -94 -305 -94q-172 0 -291 90 l-135 -137q-20 -16 -39 -2l-33 30q-23 18 4 41l131 133q-98 111 -98 267q0 150 96 262l-129 131q-10 8 -12 20.5zM317 709q0 -131 87.5 -223.5t226.5 -92.5q141 0 231 92.5t90 223.5q0 129 -90 220t-231 91q-139 0 -226.5 -91t-87.5 -220z" />
<glyph unicode="&#xa5;" horiz-adv-x="1441" d="M49 1425v5q0 25 41 24h297q43 0 43 -24v-5q0 -14 -25.5 -31.5t-40 -31.5t2.5 -51l399 -658l399 658q18 33 0 52t-44.5 33.5t-26.5 28.5v5q0 25 39 24h200q39 0 39 -22v-7q0 -18 -41 -44.5t-65 -69.5l-402 -658h385q29 0 29 -20v-35q0 -20 -29 -20h-426v-129h389 q31 0 31 -21v-35q0 -20 -31 -20h-389v-230q0 -31 19.5 -51t39 -34.5t19.5 -28.5v-4q0 -25 -41 -25h-256q-41 0 -41 25v4q0 14 37 43.5t37 70.5v230h-369q-29 0 -28 20v35q0 20 28 21h369v126l-2 3h-404q-29 0 -28 20v35q0 20 28 20h355l-424 658q-23 37 -68 66.5t-45 47.5z " />
<glyph unicode="&#xa6;" horiz-adv-x="464" d="M170 -154v639q0 31 23 31h77q25 0 25 -31v-639q0 -14 -6 -23t-17 -7h-82q-20 0 -20 30zM170 743v680q0 27 23 31h77q25 0 25 -31v-680q0 -12 -6 -21t-17 -7h-82q-20 0 -20 28z" />
<glyph unicode="&#xa7;" horiz-adv-x="1253" d="M68 51q0 86 88 86q35 0 62.5 -37t57 -90t72.5 -106.5t127 -90t201 -36.5q129 0 212 64.5t83 152.5q0 80 -47 133t-124 79.5t-168 47t-183.5 46.5t-168 62.5t-121.5 108.5t-46 176q0 195 153 289q-129 92 -129 258q0 168 137.5 266.5t343.5 98.5q242 0 389.5 -108 t147.5 -230q0 -39 -22.5 -62.5t-65.5 -23.5q-35 0 -62.5 25.5t-44 62.5t-45 82t-61.5 81.5t-95.5 62.5t-146.5 26q-121 0 -209 -66t-88 -168q0 -82 47.5 -136t122 -82t165.5 -49.5t182.5 -47t166 -64.5t121.5 -111.5t47 -179.5q1 -151 -151 -260q135 -92 135 -266 q0 -139 -140.5 -243.5t-357.5 -104.5q-270 0 -427.5 115.5t-157.5 238.5zM289 713q0 -74 38 -125t107.5 -81t141 -48.5t169 -42t158.5 -47.5q92 82 92 166q0 68 -37.5 115.5t-108.5 76.5t-143.5 49.5t-170 46t-160.5 51.5q-86 -63 -86 -161z" />
<glyph unicode="&#xa8;" d="M252 1300.5q0 53.5 35 86t92 32.5q55 0 89 -32.5t34 -86t-34 -86t-89 -32.5q-57 0 -92 32.5t-35 86zM643 1300.5q0 53.5 35 86t92 32.5q53 0 89 -33.5t36 -85t-36 -85t-89 -33.5q-57 0 -92 32.5t-35 86z" />
<glyph unicode="&#xa9;" horiz-adv-x="1798" d="M74 702q0 342 241.5 582t583.5 240t583.5 -241t241.5 -581q0 -342 -241.5 -582.5t-583.5 -240.5t-583.5 240.5t-241.5 582.5zM188 702q0 -301 208 -516t503 -215q293 0 502 215t209 516q0 299 -209 514.5t-502 215.5t-502 -215.5t-209 -514.5zM442 713q0 201 131.5 328.5 t337.5 125.5q156 -2 272.5 -80.5t116.5 -171.5q0 -27 -20 -46t-53 -19q-35 0 -62.5 25.5t-50 62.5t-48.5 75t-71 63.5t-106 25.5q-125 0 -198 -93.5t-73 -236.5q0 -170 95.5 -278.5t261.5 -108.5q182 0 266 180q10 20 38 10t26 -38q-20 -123 -123 -207t-271 -84 q-195 0 -332 140t-137 327z" />
<glyph unicode="&#xaa;" horiz-adv-x="854" d="M86 965q0 102 77 161.5t204 59.5q115 0 180 -58l-4 35q-12 133 -53 190.5t-128 57.5q-49 0 -79.5 -23.5t-41 -53t-31 -53.5t-52.5 -24q-61 0 -62 60q0 66 78 112t188 46q135 0 221.5 -78t102.5 -230l29 -274q4 -31 17 -47.5t27.5 -18.5t25 -9t10.5 -25q0 -43 -113 -43 q-49 0 -72.5 18t-25.5 76q-63 -102 -219 -103q-125 0 -202 61.5t-77 162.5zM238 977q0 -76 46 -125t124 -49q63 0 110 39t45 96l-6 78q-12 45 -57 75.5t-107 30.5q-70 0 -112.5 -37.5t-42.5 -107.5z" />
<glyph unicode="&#xab;" horiz-adv-x="1052" d="M71 592q1 41 17 53q221 158 342 342q12 20 44 11t26 -31q-63 -217 -285 -381q205 -170 274 -344q2 -10 -12 -20.5t-35.5 -10.5t-38.5 18q-131 158 -315 308q-18 14 -17 55zM527.5 592q0.5 41 17.5 53q221 158 342 342q12 20 43.5 11.5t25.5 -31.5q-68 -221 -284 -381 q205 -170 274 -344q2 -10 -12 -20.5t-35.5 -10.5t-38.5 18q-131 158 -315 308q-18 14 -17.5 55z" />
<glyph unicode="&#xad;" horiz-adv-x="937" d="M115 633v43q0 27 28 26h652q29 0 28 -26v-43q0 -31 -28 -31h-652q-29 0 -28 31z" />
<glyph unicode="&#xae;" horiz-adv-x="1798" d="M74 702q0 342 241.5 582t583.5 240t583.5 -241t241.5 -581q0 -342 -241.5 -584.5t-583.5 -242.5t-583.5 242.5t-241.5 584.5zM188 702q0 -301 208 -515t503 -214q293 0 502 215t209 514t-209 514.5t-502 215.5t-502 -215.5t-209 -514.5zM559 309v15q0 8 25.5 26.5 t25.5 40.5v688q0 25 -25.5 42.5t-25.5 29.5v6q0 16 25 17h284q188 0 298 -71t112 -198q2 -80 -55.5 -147.5t-157.5 -100.5l170 -264q12 -18 24.5 -30.5t19.5 -16.5t12 -10t5 -14v-11q0 -20 -26 -20h-209q-25 0 -25 18v13q0 8 22.5 24t6.5 47l-145 244l-150 -4v-242 q0 -23 26.5 -41t26.5 -26v-15q0 -18 -26 -18h-213q-25 0 -25 18zM770 748q0 -50 49 -50h88q88 0 141.5 53.5t53.5 137.5q0 100 -55.5 160.5t-149.5 60.5h-88q-39 0 -39 -43v-319z" />
<glyph unicode="&#xaf;" d="M311 1270v57q0 31 37 31h537q37 0 37 -31v-57q0 -31 -37 -31h-537q-37 0 -37 31z" />
<glyph unicode="&#xb0;" horiz-adv-x="821" d="M70 1130q0 141 95 240.5t244.5 99.5t246 -97t96.5 -236q0 -143 -96 -242.5t-248 -99.5q-150 0 -244 98t-94 237zM201 1134.5q0 -118.5 58 -196.5t150.5 -78t150.5 78t58 196.5t-58 194.5t-150.5 76t-150.5 -76t-58 -194.5z" />
<glyph unicode="&#xb1;" d="M195 651l2 74q0 23 30 23h326v327q0 29 22 33l78 -2q23 0 23 -31v-327h328q31 0 30 -21v-76q0 -23 -30 -22h-326v-328q0 -14 -7 -23.5t-18 -7.5h-78q-23 0 -22 31v328h-326q-29 0 -32 22zM197 20v76q0 20 30 21h777q31 0 30 -21v-76q0 -20 -30 -20h-777q-31 0 -30 20z " />
<glyph unicode="&#xb4;" horiz-adv-x="851" d="M162 1149q-12 29 12 49l361 258q47 35 73 -14l33 -66q25 -45 -29 -65l-397 -174q-35 -14 -53 12z" />
<glyph unicode="&#xb6;" horiz-adv-x="1304" d="M57 983q0 209 135.5 340t335.5 131h629q43 0 43 -29v-4q0 -20 -43 -45.5t-43 -72.5l-2 -1180q0 -256 -120 -388t-310 -134q-102 0 -190.5 33.5t-140.5 86t-81.5 107.5t-29.5 100t24.5 72t65.5 27q53 0 86 -54.5t50 -119t76.5 -118.5t159.5 -54q246 0 246 366v1317h-190 v-836q0 -37 -37 -36l-193 -3q-201 -2 -336 136.5t-135 357.5z" />
<glyph unicode="&#xb7;" horiz-adv-x="468" d="M102 791q0 61 38 92.5t95.5 31.5t94.5 -32.5t37 -92t-37 -91t-94.5 -31.5t-95.5 31.5t-38 91.5z" />
<glyph unicode="&#xb8;" d="M479 -322q10 31 35 17q55 -35 125 -35q51 0 86 20.5t33 61.5q-2 76 -129 76q-59 0 -47 61l22 121h80l-6 -115q92 0 156.5 -39t64.5 -110q0 -70 -67.5 -112t-165.5 -42q-94 0 -168 41q-33 16 -19 55z" />
<glyph unicode="&#xba;" horiz-adv-x="876" d="M66 1116q0 156 104 257.5t268 101.5q154 0 262.5 -109t108.5 -266q0 -154 -104 -254.5t-256 -100.5q-164 0 -273.5 105.5t-109.5 265.5zM215 1159q0 -150 70 -251t174 -101q88 0 142 73.5t54 190.5q0 143 -68.5 242.5t-170.5 99.5q-94 0 -147.5 -72.5t-53.5 -181.5z" />
<glyph unicode="&#xbb;" horiz-adv-x="1054" d="M98 967q-6 23 26 32t44 -12q121 -184 342 -342q16 -12 16 -53t-16 -55q-184 -150 -315 -308q-16 -18 -38 -18t-36.5 10t-11.5 21q70 174 272 344q-219 164 -283 381zM557 967q-6 23 25.5 32t44.5 -12q117 -182 342 -342q16 -12 16 -53t-16 -55q-193 -154 -316 -308 q-16 -18 -37.5 -18t-36 10t-12.5 21q66 172 273 344q-219 164 -283 381z" />
<glyph unicode="&#xbc;" horiz-adv-x="1415" d="M68 1348v4q0 23 28 32l226 80q37 14 36 -16v-6q0 -8 -24.5 -38t-24.5 -77v-508q0 -37 37 -58.5t37 -29.5v-8q0 -18 -35 -18h-209q-35 0 -35 18v8q0 8 36 29.5t36 58.5v457q0 43 -27.5 52t-52 2t-28.5 18zM248 375l811 817q23 18 45 4l37 -37q23 -16 -2 -41l-805 -813 q-20 -25 -47 -2l-35 33q-23 20 -4 39zM705 221v10q0 29 14 45l356 476q25 35 58 34h67q20 0 21 -26v-500h112q23 0 23 -18v-31q0 -18 -23 -18h-112v-87q0 -35 32.5 -54t32.5 -32v-4q0 -18 -26 -18h-195q-29 0 -29 18v4q0 12 32 32t32 54v87h-361q-35 0 -34 28zM791 260h309 v422z" />
<glyph unicode="&#xbd;" horiz-adv-x="1490" d="M68 1348v4q0 25 30 32l217 80q37 12 37 -16v-6q0 -10 -24.5 -38t-24.5 -73v-512q0 -37 34 -58.5t34 -29.5v-8q0 -18 -33 -18h-197q-35 0 -35 18v8q0 8 32 29.5t32 58.5v461q0 41 -26.5 49t-49 1t-26.5 18zM242 375l811 817q25 20 45 4l37 -37q23 -16 0 -41l-807 -813 q-18 -27 -47 -2l-35 33q-23 20 -4 39zM809 23v8q0 68 45 128t109.5 105t130 88t110.5 95.5t45 107.5q0 63 -37.5 99t-99.5 36q-53 0 -89 -30.5t-50.5 -66.5t-36 -66.5t-47.5 -30.5q-57 0 -58 63q0 70 85 130.5t198 60.5q121 0 192.5 -56.5t71.5 -146.5q0 -78 -62.5 -145.5 t-140 -107.5t-159.5 -95.5t-109 -106.5h365q33 0 55.5 30t38.5 59.5t33 29.5h16q25 0 19 -23l-48 -163q-8 -23 -26 -23h-531q-20 0 -20 21z" />
<glyph unicode="&#xbe;" horiz-adv-x="1474" d="M57 901q0 55 49 55q27 0 49.5 -29.5t39 -65.5t59.5 -65.5t106 -29.5q72 0 121 44t49 108q0 78 -53 122.5t-143 44.5h-15q-20 0 -27 17.5t7 38.5l182 217h-354q-29 0 -29 24v50q0 23 29 22h498q23 0 22 -18v-9q0 -14 -16 -30l-250 -258q123 -6 198.5 -57.5t75.5 -145.5 t-80.5 -158.5t-209.5 -64.5q-137 0 -222.5 62.5t-85.5 125.5zM389 375l809 817q27 18 45 4l39 -37q20 -18 0 -41l-807 -813q-20 -25 -47 -2l-37 33q-20 20 -2 39zM752 221v10q0 27 16 45l354 476q29 35 58 34h67q23 0 23 -26v-500h112q23 0 23 -18v-31q0 -18 -23 -18h-112 v-87q0 -35 32.5 -54t32.5 -32v-4q0 -18 -26 -18h-195q-29 0 -29 18v4q0 12 32 32t32 54v87h-361q-37 0 -36 28zM840 260h309v422z" />
<glyph unicode="&#xbf;" horiz-adv-x="1032" d="M59 -90q0 98 46.5 179t112 137.5t131 110.5t111.5 124.5t46 152.5q0 25 30.5 35t63.5 1t39 -36q8 -94 -29 -174t-97 -137t-121.5 -113.5t-105.5 -132t-44 -166.5q0 -127 77.5 -200.5t184.5 -73.5q98 0 162.5 54.5t88 119t57.5 118.5t79 54q43 0 68.5 -23.5t25.5 -68.5 q0 -109 -137 -223.5t-338 -114.5q-199 0 -325 96.5t-126 280.5zM438 899q0 57 36 90t89 33t90 -33t37 -90q0 -53 -37 -85t-90 -32t-89 32t-36 85z" />
<glyph unicode="&#xc0;" horiz-adv-x="1370" d="M12 25v4q0 16 40 43.5t57 70.5l454 1162q14 35 -24.5 72.5t-38.5 47.5v7q0 23 28 22h119q68 0 96 -68l529 -1243q18 -41 58 -68.5t40 -45.5v-4q0 -25 -39 -25h-289q-39 0 -38 25v4q0 12 14 24.5t29.5 20.5t25.5 26.5t0 42.5l-98 242h-664l-90 -242q-10 -25 -1 -43 t24.5 -26t31 -20.5t15.5 -24.5v-4q0 -25 -43 -25h-195q-41 0 -41 25zM346 473h594l-307 760zM362 1761l21 70q16 53 70 29l401 -185q31 -16 20 -47q-10 -27 -49 -22l-424 96q-53 10 -39 59z" />
<glyph unicode="&#xc1;" horiz-adv-x="1370" d="M12 25v4q0 16 40 43.5t57 70.5l454 1162q14 35 -24.5 72.5t-38.5 47.5v7q0 23 28 22h119q68 0 96 -68l529 -1243q18 -41 58 -68.5t40 -45.5v-4q0 -25 -39 -25h-289q-39 0 -38 25v4q0 12 14 24.5t29.5 20.5t25.5 26.5t0 42.5l-98 242h-664l-90 -242q-10 -25 -1 -43 t24.5 -26t31 -20.5t15.5 -24.5v-4q0 -25 -43 -25h-195q-41 0 -41 25zM346 473h594l-307 760zM432 1626.5q-10 28.5 21 44.5l407 180q49 25 70 -30l16 -70q8 -23 -3 -39t-38 -18l-424 -92q-39 -4 -49 24.5z" />
<glyph unicode="&#xc2;" horiz-adv-x="1370" d="M12 25v4q0 16 40 43.5t57 70.5l454 1162q14 35 -24.5 72.5t-38.5 47.5v7q0 23 28 22h119q68 0 96 -68l529 -1243q18 -41 58 -68.5t40 -45.5v-4q0 -25 -39 -25h-289q-39 0 -38 25v4q0 12 14 24.5t29.5 20.5t25.5 26.5t0 42.5l-98 242h-664l-90 -242q-10 -25 -1 -43 t24.5 -26t31 -20.5t15.5 -24.5v-4q0 -25 -43 -25h-195q-41 0 -41 25zM346 473h594l-307 760zM351 1572q-23 23 5 52l226 207q31 29 63 29h37q29 0 63 -29l234 -207q31 -29 11.5 -54.5t-58.5 -2.5l-273 157l-256 -157q-29 -18 -52 5z" />
<glyph unicode="&#xc3;" horiz-adv-x="1370" d="M12 25v4q0 16 40 43.5t57 70.5l454 1162q14 35 -24.5 72.5t-38.5 47.5v7q0 23 28 22h119q68 0 96 -68l529 -1243q18 -41 58 -68.5t40 -45.5v-4q0 -25 -39 -25h-289q-39 0 -38 25v4q0 12 14 24.5t29.5 20.5t25.5 26.5t0 42.5l-98 242h-664l-90 -242q-10 -25 -1 -43 t24.5 -26t31 -20.5t15.5 -24.5v-4q0 -25 -43 -25h-195q-41 0 -41 25zM328 1636q16 86 66 140.5t132 54.5q70 0 172.5 -58.5t141.5 -58.5q72 0 104 70q10 27 33 26h14q31 0 21 -34q-47 -190 -195 -191q-66 0 -167 59.5t-146 59.5q-70 0 -105 -72q-14 -31 -32 -30h-19 q-27 0 -20 34zM346 473h594l-307 760z" />
<glyph unicode="&#xc4;" horiz-adv-x="1370" d="M12 25v4q0 16 40 43.5t57 70.5l454 1162q14 35 -24.5 72.5t-38.5 47.5v7q0 23 28 22h119q68 0 96 -68l529 -1243q18 -41 58 -68.5t40 -45.5v-4q0 -25 -39 -25h-289q-39 0 -38 25v4q0 12 14 24.5t29.5 20.5t25.5 26.5t0 42.5l-98 242h-664l-90 -242q-10 -25 -1 -43 t24.5 -26t31 -20.5t15.5 -24.5v-4q0 -25 -43 -25h-195q-41 0 -41 25zM346 473h594l-307 760zM348 1739q0 51 36 85t91 34t89 -33t34 -86t-34 -86t-89 -33t-91 34t-36 85zM741 1739q0 53 34 86t91 33q53 0 89 -34t36 -85t-36 -85t-89 -34q-57 0 -91 33t-34 86z" />
<glyph unicode="&#xc5;" horiz-adv-x="1370" d="M12 25v4q0 16 40 43.5t57 70.5l454 1162q14 35 -24.5 72.5t-38.5 47.5v7q0 23 28 22h119q68 0 96 -68l529 -1243q18 -41 58 -68.5t40 -45.5v-4q0 -25 -39 -25h-289q-39 0 -38 25v4q0 12 14 24.5t29.5 20.5t25.5 26.5t0 42.5l-98 242h-664l-90 -242q-10 -25 -1 -43 t24.5 -26t31 -20.5t15.5 -24.5v-4q0 -25 -43 -25h-195q-41 0 -41 25zM346 473h594l-307 760zM428 1755q0 90 66.5 149.5t173.5 59.5q102 0 170.5 -58.5t68.5 -144.5q0 -90 -66 -149.5t-175 -59.5q-102 0 -170 58.5t-68 144.5zM545 1759q0 -61 33.5 -102t89 -41t89.5 39 t34 104q0 59 -35 98t-88 39q-55 0 -89 -36.5t-34 -100.5z" />
<glyph unicode="&#xc6;" horiz-adv-x="1904" d="M-12 27v4q0 12 11 22t27.5 18.5t38 27t37.5 44.5l682 1137q20 45 10 65.5t-32.5 42t-22.5 33.5v9q0 25 37 24h926q41 0 53 -45l47 -199q4 -18 -4 -28.5t-22 -10.5h-11q-20 0 -44.5 31t-45 69t-54.5 68.5t-71 30.5h-374q-57 0 -58 -72v-507h385q27 0 46.5 18t29.5 40.5 t22.5 41t24.5 18.5h8q27 0 27 -41v-237q0 -41 -27 -41h-8q-12 0 -24.5 17.5t-22.5 39t-29.5 38.5t-46.5 17h-385v-536q0 -39 20.5 -61.5t53.5 -22.5h420q39 0 73.5 32.5t55 70.5t45 71t45.5 33h10q33 0 23 -35l-52 -207q-6 -47 -51 -47h-846q-43 0 -43 25v4q0 18 38 47.5 t38 68.5v242h-534l-144 -244q-14 -37 -1.5 -51t35 -30.5t22.5 -30.5v-4q0 -27 -41 -27h-254q-43 0 -43 27zM467 477h481v823z" />
<glyph unicode="&#xc7;" horiz-adv-x="1388" d="M68 741q0 322 191.5 527t488.5 205q225 0 392 -128t167 -251q0 -41 -23.5 -64.5t-66.5 -23.5q-41 0 -75 39.5t-67 95t-75 112t-118.5 96.5t-181.5 40q-184 0 -316 -154t-132 -391q0 -301 167 -501t390 -200q166 0 280 100.5t171 239.5q18 33 50.5 25t24.5 -51 q-35 -193 -178 -331t-371 -146l-6 -95q94 0 156.5 -39t62.5 -110q0 -70 -66.5 -112t-164.5 -42q-96 0 -170 41q-31 16 -16 55q10 31 32 17q59 -35 127 -35q51 0 86 20.5t33 61.5q-2 76 -131 76q-25 0 -38 16t-9 45l20 103q-256 27 -445 250t-189 509z" />
<glyph unicode="&#xc8;" d="M121 25v4q0 14 38 43.5t38 72.5v1164q0 33 -18.5 54t-38 34.5t-19.5 27.5v7q0 23 37 22h868q41 0 51 -45l49 -203q8 -41 -24 -41h-10q-20 0 -46 32t-47.5 71t-55.5 70.5t-71 31.5h-434q-57 0 -57 -70v-514h373q27 0 45 18.5t27.5 42t20.5 42t25 18.5h9q27 0 26 -35v-251 q0 -35 -26 -35h-9q-14 0 -25 18.5t-20.5 40t-28 39.5t-44.5 18h-373l-2 -530q0 -37 19.5 -62.5t56.5 -25.5h481q37 0 69.5 33t52 72.5t45 72.5t48.5 33h12q14 0 21.5 -12.5t3.5 -28.5l-49 -207q-10 -47 -54 -47h-921q-43 0 -43 25zM311 1761l21 70q16 53 69 29l404 -185 q29 -14 18 -47q-10 -26 -49 -22l-424 96q-53 10 -39 59z" />
<glyph unicode="&#xc9;" d="M121 25v4q0 14 38 43.5t38 72.5v1164q0 33 -18.5 54t-38 34.5t-19.5 27.5v7q0 23 37 22h868q41 0 51 -45l49 -203q8 -41 -24 -41h-10q-20 0 -46 32t-47.5 71t-55.5 70.5t-71 31.5h-434q-57 0 -57 -70v-514h373q27 0 45 18.5t27.5 42t20.5 42t25 18.5h9q27 0 26 -35v-251 q0 -35 -26 -35h-9q-14 0 -25 18.5t-20.5 40t-28 39.5t-44.5 18h-373l-2 -530q0 -37 19.5 -62.5t56.5 -25.5h481q37 0 69.5 33t52 72.5t45 72.5t48.5 33h12q14 0 21.5 -12.5t3.5 -28.5l-49 -207q-10 -47 -54 -47h-921q-43 0 -43 25zM381 1626q-10 31 20 45l406 180 q53 25 70 -30l18 -70q6 -23 -5 -39t-36 -18l-426 -92q-37 -4 -47 24z" />
<glyph unicode="&#xca;" d="M121 25v4q0 14 38 43.5t38 72.5v1164q0 33 -18.5 54t-38 34.5t-19.5 27.5v7q0 23 37 22h868q41 0 51 -45l49 -203q8 -41 -24 -41h-10q-20 0 -46 32t-47.5 71t-55.5 70.5t-71 31.5h-434q-57 0 -57 -70v-514h373q27 0 45 18.5t27.5 42t20.5 42t25 18.5h9q27 0 26 -35v-251 q0 -35 -26 -35h-9q-14 0 -25 18.5t-20.5 40t-28 39.5t-44.5 18h-373l-2 -530q0 -37 19.5 -62.5t56.5 -25.5h481q37 0 69.5 33t52 72.5t45 72.5t48.5 33h12q14 0 21.5 -12.5t3.5 -28.5l-49 -207q-10 -47 -54 -47h-921q-43 0 -43 25zM299.5 1572q-23.5 23 7.5 52l225 207 q29 29 62 29h37q29 0 63 -29l234 -207q31 -29 11.5 -54.5t-58.5 -2.5l-273 157l-256 -157q-29 -18 -52.5 5z" />
<glyph unicode="&#xcb;" d="M121 25v4q0 14 38 43.5t38 72.5v1164q0 33 -18.5 54t-38 34.5t-19.5 27.5v7q0 23 37 22h868q41 0 51 -45l49 -203q8 -41 -24 -41h-10q-20 0 -46 32t-47.5 71t-55.5 70.5t-71 31.5h-434q-57 0 -57 -70v-514h373q27 0 45 18.5t27.5 42t20.5 42t25 18.5h9q27 0 26 -35v-251 q0 -35 -26 -35h-9q-14 0 -25 18.5t-20.5 40t-28 39.5t-44.5 18h-373l-2 -530q0 -37 19.5 -62.5t56.5 -25.5h481q37 0 69.5 33t52 72.5t45 72.5t48.5 33h12q14 0 21.5 -12.5t3.5 -28.5l-49 -207q-10 -47 -54 -47h-921q-43 0 -43 25zM293 1739q0 53 34.5 86t92.5 33 q55 0 89 -33t34 -86t-34 -86t-89 -33q-57 0 -92 33t-35 86zM684 1739q0 53 34 86t91 33q55 0 90 -33t35 -86t-35 -86t-90 -33q-57 0 -91 33t-34 86z" />
<glyph unicode="&#xcc;" horiz-adv-x="581" d="M-20 1761l20 70q16 53 70 29l403 -185q31 -16 21 -47q-11 -26 -50 -22l-424 96q-55 10 -40 59zM123 25v4q0 14 37 42.5t37 69.5v1170q0 41 -37 70.5t-37 43.5v5q0 25 41 24h256q41 0 41 -24v-5q0 -14 -19.5 -28.5t-39 -35t-19.5 -50.5v-1170q0 -41 39 -69.5t39 -42.5v-4 q0 -25 -41 -25h-256q-41 0 -41 25z" />
<glyph unicode="&#xcd;" horiz-adv-x="581" d="M51 1626q-10 31 21 45l405 180q53 25 70 -30l18 -70q6 -23 -5 -39t-36 -18l-426 -92q-37 -4 -47 24zM123 25v4q0 14 37 42.5t37 69.5v1170q0 41 -37 70.5t-37 43.5v5q0 25 41 24h256q41 0 41 -24v-5q0 -14 -19.5 -28.5t-39 -35t-19.5 -50.5v-1170q0 -41 39 -69.5 t39 -42.5v-4q0 -25 -41 -25h-256q-41 0 -41 25z" />
<glyph unicode="&#xce;" horiz-adv-x="581" d="M-32 1572q-23 23 7 52l226 207q29 29 61 29h39q29 0 61 -29l236 -207q31 -29 10.5 -54.5t-59.5 -2.5l-273 157l-256 -157q-29 -18 -52 5zM123 25v4q0 14 37 42.5t37 69.5v1170q0 41 -37 70.5t-37 43.5v5q0 25 41 24h256q41 0 41 -24v-5q0 -14 -19.5 -28.5t-39 -35 t-19.5 -50.5v-1170q0 -41 39 -69.5t39 -42.5v-4q0 -25 -41 -25h-256q-41 0 -41 25z" />
<glyph unicode="&#xcf;" horiz-adv-x="581" d="M-33 1739q0 53 35 86t92 33q55 0 89 -33t34 -86t-34 -86t-89 -33q-57 0 -92 33t-35 86zM123 25v4q0 14 37 42.5t37 69.5v1170q0 41 -37 70.5t-37 43.5v5q0 25 41 24h256q41 0 41 -24v-5q0 -14 -19.5 -28.5t-39 -35t-19.5 -50.5v-1170q0 -41 39 -69.5t39 -42.5v-4 q0 -25 -41 -25h-256q-41 0 -41 25zM358 1739q0 53 34 86t91 33q55 0 90 -33t35 -86t-35 -86t-90 -33q-57 0 -91 33t-34 86z" />
<glyph unicode="&#xd0;" horiz-adv-x="1525" d="M59 719v33q0 25 31 24h113v535q0 41 -38 70.5t-38 43.5v5q0 25 43 24h448q346 0 587 -199.5t241 -515.5q0 -338 -214 -538.5t-540 -200.5h-522q-43 0 -43 25v4q0 16 38 45.5t38 68.5v551h-113q-31 0 -31 25zM385 197q0 -53 25.5 -83t70.5 -30h199q246 0 410.5 158.5 t164.5 431.5q0 309 -199.5 502.5t-469.5 193.5h-144q-57 0 -57 -65v-529h285q31 0 30 -24v-31q0 -27 -30 -27h-285v-497z" />
<glyph unicode="&#xd1;" horiz-adv-x="1536" d="M119 25v4q0 14 39 45.5t39 75.5v1159q0 31 -19.5 50t-39 32.5t-19.5 27.5v8q0 27 41 27h155q45 0 74 -41l850 -1175v1073q0 41 -42 69.5t-42 42.5v4q0 27 43 27h186q41 0 41 -27v-4q0 -14 -41 -42.5t-41 -69.5v-1256q0 -55 -51 -55h-51q-31 0 -65 53l-875 1192v-1095 q0 -33 21.5 -54.5t44 -37t22.5 -29.5v-4q0 -25 -43 -25h-186q-41 0 -41 25zM455 1636q16 84 67 139.5t131 55.5q72 0 174.5 -58.5t139.5 -58.5q74 0 104 70q14 27 35 26h14q31 0 21 -34q-47 -190 -197 -191q-63 0 -165.5 59.5t-147.5 59.5q-70 0 -103 -72q-16 -31 -34 -30 h-17q-29 0 -22 34z" />
<glyph unicode="&#xd2;" horiz-adv-x="1579" d="M78 731q0 322 200.5 533t514.5 211q309 0 509.5 -221.5t200.5 -534.5q0 -305 -201.5 -522t-494.5 -217q-315 0 -522 223t-207 528zM262 856q0 -326 167 -557t423 -231q201 0 334 157.5t133 370.5q0 332 -166 561t-424 229q-205 0 -336 -151.5t-131 -378.5zM479 1761 l21 70q16 53 69 29l404 -185q29 -14 18 -47q-10 -26 -49 -22l-424 96q-53 10 -39 59z" />
<glyph unicode="&#xd3;" horiz-adv-x="1579" d="M78 731q0 322 200.5 533t514.5 211q309 0 509.5 -221.5t200.5 -534.5q0 -305 -201.5 -522t-494.5 -217q-315 0 -522 223t-207 528zM262 856q0 -326 167 -557t423 -231q201 0 334 157.5t133 370.5q0 332 -166 561t-424 229q-205 0 -336 -151.5t-131 -378.5zM549 1626 q-10 31 20 45l406 180q53 25 69 -30l19 -70q6 -23 -5 -39t-36 -18l-426 -92q-37 -4 -47 24z" />
<glyph unicode="&#xd4;" horiz-adv-x="1579" d="M78 731q0 322 201 533t514 211q309 0 509.5 -221.5t200.5 -534.5q0 -305 -201.5 -522t-494.5 -217q-315 0 -522 223t-207 528zM262 856q0 -326 167 -557t423 -231q201 0 334 157.5t133 370.5q0 332 -166 561t-424 229q-205 0 -336 -151.5t-131 -378.5zM467.5 1572 q-23.5 23 7.5 52l225 207q29 29 62 29h37q29 0 63 -29l234 -207q31 -29 11 -54.5t-58 -2.5l-273 157l-256 -157q-29 -18 -52.5 5z" />
<glyph unicode="&#xd5;" horiz-adv-x="1579" d="M78 731q0 322 200.5 533t514.5 211q309 0 509.5 -221.5t200.5 -534.5q0 -305 -201.5 -522t-494.5 -217q-315 0 -522 223t-207 528zM262 856q0 -326 167 -557t423 -231q201 0 334 157.5t133 370.5q0 332 -166 561t-424 229q-205 0 -336 -151.5t-131 -378.5zM453 1636 q16 86 66 140.5t132 54.5q70 0 172.5 -58.5t141.5 -58.5q72 0 104 70q10 27 33 26h14q31 0 21 -34q-47 -190 -195 -191q-66 0 -167 59.5t-146 59.5q-68 0 -105 -72q-14 -31 -32 -30h-19q-27 0 -20 34z" />
<glyph unicode="&#xd6;" horiz-adv-x="1579" d="M78 731q0 322 200.5 533t514.5 211q309 0 509.5 -221.5t200.5 -534.5q0 -305 -201.5 -522t-494.5 -217q-315 0 -522 223t-207 528zM262 856q0 -326 167 -557t423 -231q201 0 334 157.5t133 370.5q0 332 -166 561t-424 229q-205 0 -336 -151.5t-131 -378.5zM465 1739 q0 53 36 86t93 33q55 0 88 -33t33 -86t-33 -86t-88 -33q-57 0 -93 33t-36 86zM858 1739q0 53 34 86t91 33q53 0 89 -34t36 -85t-36 -85t-89 -34q-57 0 -91 33t-34 86z" />
<glyph unicode="&#xd7;" d="M293 285q-14 14 6 37l231 231l-231 233q-20 20 -6 37l51 54q16 12 37 -7l233 -231l234 231q23 23 37 7l51 -54q16 -14 -6 -37l-232 -229l234 -235q20 -25 4 -37l-51 -54q-14 -14 -37 9l-234 229l-233 -229q-21 -21 -37 -9z" />
<glyph unicode="&#xd8;" horiz-adv-x="1611" d="M86 84q-14 14 8 37l154 147q-152 203 -152 463q0 322 201 533t514 211q295 0 494 -205l127 121q25 25 43 6l26 -25q18 -16 -6 -41l-133 -127q160 -205 160 -485q0 -305 -202 -522t-495 -217q-309 0 -520 221l-151 -146q-23 -14 -37 0zM281 856q0 -252 106 -459l791 752 q-170 238 -430 237q-205 0 -336 -151.5t-131 -378.5zM432 319q172 -251 438 -251q201 0 334 157.5t133 370.5q0 268 -112 477z" />
<glyph unicode="&#xd9;" horiz-adv-x="1472" d="M98 1423v7q0 25 41 24h258q41 0 41 -24v-7q0 -14 -39 -42.5t-39 -69.5v-746q0 -227 117 -362t309 -135q170 0 289 132t119 365v746q0 41 -39 69.5t-39 42.5v7q0 25 43 24h180q43 0 43 -24v-7q0 -14 -42 -42.5t-42 -69.5v-748q0 -264 -151 -423.5t-395 -159.5 q-258 0 -419 159.5t-161 425.5v746q0 41 -37 69.5t-37 42.5zM477 1761l21 70q16 55 71 29l402 -185q31 -16 20 -47q-10 -26 -49 -22l-424 96q-51 10 -41 59z" />
<glyph unicode="&#xda;" horiz-adv-x="1472" d="M98 1423v7q0 25 41 24h258q41 0 41 -24v-7q0 -14 -39 -42.5t-39 -69.5v-746q0 -227 117 -362t309 -135q170 0 289 132t119 365v746q0 41 -39 69.5t-39 42.5v7q0 25 43 24h180q43 0 43 -24v-7q0 -14 -42 -42.5t-42 -69.5v-748q0 -264 -151 -423.5t-395 -159.5 q-258 0 -419 159.5t-161 425.5v746q0 41 -37 69.5t-37 42.5zM516 1626.5q-10 28.5 21 44.5l407 180q51 25 68 -30l18 -70q8 -23 -3 -39t-38 -18l-424 -92q-39 -4 -49 24.5z" />
<glyph unicode="&#xdb;" horiz-adv-x="1472" d="M98 1423v7q0 25 41 24h258q41 0 41 -24v-7q0 -14 -39 -42.5t-39 -69.5v-746q0 -227 117 -362t309 -135q170 0 289 132t119 365v746q0 41 -39 69.5t-39 42.5v7q0 25 43 24h180q43 0 43 -24v-7q0 -14 -42 -42.5t-42 -69.5v-748q0 -264 -151.5 -423.5t-394.5 -159.5 q-258 0 -419 159.5t-161 425.5v746q0 41 -37 69.5t-37 42.5zM431 1572q-23 23 7 52l226 207q29 29 61 29h39q29 0 61 -29l236 -207q31 -29 10.5 -54.5t-57.5 -2.5l-275 157l-256 -157q-29 -18 -52 5z" />
<glyph unicode="&#xdc;" horiz-adv-x="1472" d="M98 1423v7q0 25 41 24h258q41 0 41 -24v-7q0 -14 -39 -42.5t-39 -69.5v-746q0 -227 117 -362t309 -135q170 0 289 132t119 365v746q0 41 -39 69.5t-39 42.5v7q0 25 43 24h180q43 0 43 -24v-7q0 -14 -42 -42.5t-42 -69.5v-748q0 -264 -151 -423.5t-395 -159.5 q-258 0 -419 159.5t-161 425.5v746q0 41 -37 69.5t-37 42.5zM434 1739q0 53 35 86t92 33q55 0 89 -33t34 -86t-34 -86t-89 -33q-57 0 -92 33t-35 86zM825 1739q0 53 34 86t91 33q55 0 90 -33t35 -86t-35 -86t-90 -33q-57 0 -91 33t-34 86z" />
<glyph unicode="&#xdd;" horiz-adv-x="1351" d="M8 1425v5q0 25 41 24h299q41 0 41 -24v-5q0 -14 -25.5 -31.5t-39 -31.5t1.5 -51l399 -658l399 658q16 39 1 53t-42.5 30.5t-27.5 30.5v5q0 25 37 24h200q41 0 41 -22v-7q0 -18 -42 -44.5t-66 -69.5l-443 -723v-445q0 -31 19.5 -51t39 -34.5t19.5 -28.5v-4q0 -25 -39 -25 h-258q-41 0 -41 25v4q0 14 37 43.5t37 70.5v432l-475 736q-23 37 -68 66.5t-45 47.5zM463 1626q-10 31 20 45l406 180q53 25 69 -30l19 -70q6 -23 -5 -39t-36 -18l-424 -92q-39 -4 -49 24z" />
<glyph unicode="&#xde;" horiz-adv-x="1273" d="M123 27v6q0 14 37 42.5t37 69.5v1164q0 43 -37 72.5t-37 43.5v5q0 25 41 24h256q41 0 41 -24v-5q0 -14 -39 -43.5t-39 -72.5v-97h186q281 0 459 -116.5t178 -335.5q0 -229 -161.5 -354t-440.5 -125h-221v-136q0 -41 39 -69.5t39 -42.5v-6q0 -27 -41 -27h-256 q-41 0 -41 27zM383 426q0 -59 59 -59h174q184 0 293 94t109 266q0 190 -129 295.5t-314 105.5h-133q-59 0 -59 -65v-637z" />
<glyph unicode="&#xdf;" horiz-adv-x="1150" d="M70 23v6q0 14 38.5 44.5t38.5 76.5v958q0 178 114 290.5t302 112.5q172 0 290 -104t118 -272q0 -111 -62.5 -200t-154.5 -130q145 -31 238 -139.5t93 -274.5q0 -180 -127 -285.5t-313 -105.5q-25 0 -34 19.5t-1 40t29 20.5q115 0 189.5 71.5t74.5 215.5q0 170 -83 278.5 t-226 108.5q-31 0 -31 41t31 41q78 0 141.5 77.5t63.5 200.5q0 156 -63.5 243t-180.5 89q-106 0 -167.5 -77t-61.5 -198v-1021q0 -35 22.5 -55.5t45 -35t22.5 -30.5v-6q0 -16 -6.5 -19.5t-24.5 -3.5h-285q-31 0 -30 23z" />
<glyph unicode="&#xe0;" horiz-adv-x="1036" d="M76 289q-2 143 103.5 223t271.5 80q164 0 251 -82l-4 55q-18 188 -75.5 280.5t-176.5 92.5q-72 0 -118.5 -37t-64 -80t-42 -79.5t-57.5 -36.5q-37 0 -58.5 20t-21.5 55q0 86 101.5 155t260.5 69q186 0 298 -114t133 -319l41 -407q4 -43 22 -66.5t38.5 -29t37 -13.5 t16.5 -24q0 -43 -131 -43q-74 0 -108.5 27.5t-40.5 107.5q-78 -143 -295 -143q-172 0 -276.5 81.5t-104.5 227.5zM215 1376l35 66q25 51 74 14l360 -258q27 -23 10.5 -49.5t-53.5 -13.5l-397 176q-49 16 -29 65zM256 313q0 -115 68.5 -191.5t177.5 -76.5q100 0 163.5 64.5 t59.5 160.5l-8 92q-16 74 -76.5 119t-148.5 45q-104 0 -170 -59t-66 -154z" />
<glyph unicode="&#xe1;" horiz-adv-x="1036" d="M76 289q-2 143 103.5 223t271.5 80q164 0 251 -82l-4 55q-18 188 -75.5 280.5t-176.5 92.5q-72 0 -118.5 -37t-64 -80t-42 -79.5t-57.5 -36.5q-37 0 -58.5 20t-21.5 55q0 86 101.5 155t260.5 69q186 0 298 -114t133 -319l41 -407q4 -43 22 -66.5t38.5 -29t37 -13.5 t16.5 -24q0 -43 -131 -43q-74 0 -108.5 27.5t-40.5 107.5q-78 -143 -295 -143q-172 0 -276.5 81.5t-104.5 227.5zM242 1155q-14 25 10 49l362 258q45 35 74 -14l33 -66q25 -47 -29 -65l-399 -176q-35 -12 -51 14zM256 313q0 -115 68.5 -191.5t177.5 -76.5q100 0 163.5 64.5 t59.5 160.5l-8 92q-16 74 -76.5 119t-148.5 45q-104 0 -170 -59t-66 -154z" />
<glyph unicode="&#xe2;" horiz-adv-x="1036" d="M76 289q-2 143 103.5 223t271.5 80q164 0 251 -82l-4 55q-18 188 -75.5 280.5t-176.5 92.5q-72 0 -118.5 -37t-64 -80t-42 -79.5t-57.5 -36.5q-37 0 -58.5 20t-21.5 55q0 86 101.5 155t260.5 69q186 0 298 -114t133 -319l41 -407q4 -43 22 -66.5t38.5 -29t37 -13.5 t16.5 -24q0 -43 -131 -43q-74 0 -108.5 27.5t-40.5 107.5q-78 -143 -295 -143q-172 0 -276.5 81.5t-104.5 227.5zM148.5 1148q-23.5 23 5.5 52l225 207q29 27 63 27h37q33 0 62 -27l235 -207q31 -29 11.5 -54.5t-58.5 -4.5l-272 159l-256 -159q-29 -16 -52.5 7zM256 313 q0 -115 68.5 -191.5t177.5 -76.5q100 0 163.5 64.5t59.5 160.5l-8 92q-16 74 -76.5 119t-148.5 45q-104 0 -170 -59t-66 -154z" />
<glyph unicode="&#xe3;" horiz-adv-x="1036" d="M76 289q-2 143 103.5 223t271.5 80q164 0 251 -82l-4 55q-18 188 -75.5 280.5t-176.5 92.5q-72 0 -118.5 -37t-64 -80t-42 -79.5t-57.5 -36.5q-37 0 -58.5 20t-21.5 55q0 86 101.5 155t260.5 69q186 0 298 -114t133 -319l41 -407q4 -43 22 -66.5t38.5 -29t37 -13.5 t16.5 -24q0 -43 -131 -43q-74 0 -108.5 27.5t-40.5 107.5q-78 -143 -295 -143q-172 0 -276.5 81.5t-104.5 227.5zM111 1255q16 84 67 139.5t131 55.5q70 0 173.5 -58.5t140.5 -58.5q72 0 104 70q10 27 35 27h12q31 0 21 -35q-45 -190 -195 -191q-66 0 -167 59.5t-146 59.5 q-70 0 -105 -72q-14 -31 -32 -30h-19q-27 0 -20 34zM256 313q0 -115 68.5 -191.5t177.5 -76.5q100 0 163.5 64.5t59.5 160.5l-8 92q-16 74 -76.5 119t-148.5 45q-104 0 -170 -59t-66 -154z" />
<glyph unicode="&#xe4;" horiz-adv-x="1036" d="M76 289q-2 143 103.5 223t271.5 80q164 0 251 -82l-4 55q-18 188 -75.5 280.5t-176.5 92.5q-72 0 -118.5 -37t-64 -80t-42 -79.5t-57.5 -36.5q-37 0 -58.5 20t-21.5 55q0 86 101.5 155t260.5 69q186 0 298 -114t133 -319l41 -407q4 -43 22 -66.5t38.5 -29t37 -13.5 t16.5 -24q0 -43 -131 -43q-74 0 -108.5 27.5t-40.5 107.5q-78 -143 -295 -143q-172 0 -276.5 81.5t-104.5 227.5zM147 1300.5q0 53.5 35 86t92 32.5q55 0 89 -32.5t34 -86t-34 -86t-89 -32.5q-57 0 -92 32.5t-35 86zM256 313q0 -115 68.5 -191.5t177.5 -76.5 q100 0 163.5 64.5t59.5 160.5l-8 92q-16 74 -76.5 119t-148.5 45q-104 0 -170 -59t-66 -154zM539 1300.5q0 53.5 33.5 86t91.5 32.5q55 0 89.5 -32.5t34.5 -86t-34.5 -86t-89.5 -32.5q-57 0 -91 32.5t-34 86z" />
<glyph unicode="&#xe5;" horiz-adv-x="1036" d="M76 289q-2 143 103.5 223t271.5 80q164 0 251 -82l-4 55q-18 188 -75.5 280.5t-176.5 92.5q-72 0 -118.5 -37t-64 -80t-42 -79.5t-57.5 -36.5q-37 0 -58.5 20t-21.5 55q0 86 101.5 155t260.5 69q186 0 298 -114t133 -319l41 -407q4 -43 22 -66.5t38.5 -29t37 -13.5 t16.5 -24q0 -43 -131 -43q-74 0 -108.5 27.5t-40.5 107.5q-78 -143 -295 -143q-172 0 -276.5 81.5t-104.5 227.5zM225 1319q0 90 67.5 149.5t174.5 59.5q102 0 171 -58.5t69 -144.5q0 -92 -66.5 -151.5t-175.5 -59.5q-102 0 -171 59.5t-69 145.5zM256 313 q0 -115 68.5 -191.5t177.5 -76.5q100 0 163.5 64.5t59.5 160.5l-8 92q-16 74 -76.5 119t-148.5 45q-104 0 -170 -59t-66 -154zM342 1321q0 -59 35 -100t90 -41t89 38.5t34 102.5q0 59 -35 99t-88 40q-55 0 -90 -38t-35 -101z" />
<glyph unicode="&#xe6;" horiz-adv-x="1646" d="M76 289q0 139 102.5 221t272.5 82q162 0 254 -82l-5 55q-18 188 -76.5 280.5t-177.5 92.5q-72 0 -116.5 -37t-60 -80t-41 -79.5t-62.5 -36.5q-39 0 -60.5 21.5t-21.5 55.5q0 88 108.5 155t253.5 67q242 0 355 -191q137 197 383 197q174 0 278.5 -95.5t104.5 -216.5 q0 -90 -92 -118l-570 -189q37 -127 126 -200.5t212 -73.5q191 0 289 190q14 25 38.5 17.5t20.5 -35.5q-23 -119 -132 -211t-281 -92q-129 0 -232.5 61.5t-165.5 169.5q-20 -102 -105 -169.5t-218 -67.5q-170 0 -275.5 82.5t-105.5 226.5zM258 326q0 -121 67.5 -200 t176.5 -79q100 0 162.5 75t60.5 167l-6 69q-14 74 -75.5 120t-151.5 46q-104 0 -169 -55t-65 -143zM881 571q0 -63 8 -110l454 162q49 20 50 75q0 78 -71 161t-171 83q-119 0 -194.5 -105.5t-75.5 -265.5z" />
<glyph unicode="&#xe7;" horiz-adv-x="1028" d="M59 498q0 225 144.5 364t359.5 142q160 2 280 -81t120 -173q0 -74 -82 -72q-39 2 -73 42t-59.5 88t-82 89t-136.5 41q-127 0 -208.5 -103.5t-81.5 -256.5q0 -213 108.5 -341t280.5 -128q100 0 172.5 54t111.5 138q12 25 39 18.5t21 -34.5q-25 -121 -126.5 -211 t-260.5 -94l-6 -95q94 0 156.5 -39t62.5 -110q0 -70 -66.5 -112t-167.5 -42q-94 0 -168 41q-31 16 -16 55q10 31 33 17q55 -35 125 -35q51 0 85.5 20.5t32.5 61.5q-2 76 -129 76q-57 0 -47 61l21 105q-190 25 -316.5 169t-126.5 345z" />
<glyph unicode="&#xe8;" horiz-adv-x="1013" d="M70 500q0 215 139 359.5t344 144.5q174 0 277.5 -93.5t103.5 -210.5q0 -88 -96 -120l-568 -187q35 -133 124 -207.5t214 -74.5q211 0 293 178q14 23 39 17.5t21 -34.5q-23 -109 -131.5 -200.5t-284.5 -91.5q-203 0 -339 143t-136 377zM248 565q0 -61 8 -104l457 164 q49 20 49 71q0 78 -71 160t-169 82q-123 0 -198.5 -106.5t-75.5 -266.5zM260 1376l33 66q27 49 74 14l360 -258q27 -23 12 -49q-16 -27 -53 -14l-397 176q-53 16 -29 65z" />
<glyph unicode="&#xe9;" horiz-adv-x="1013" d="M70 500q0 215 139 359.5t344 144.5q174 0 277.5 -93.5t103.5 -210.5q0 -88 -96 -120l-568 -187q35 -133 124 -207.5t214 -74.5q211 0 293 178q14 23 39 17.5t21 -34.5q-23 -109 -131.5 -200.5t-284.5 -91.5q-203 0 -339 143t-136 377zM248 565q0 -61 8 -104l457 164 q49 20 49 71q0 78 -71 160t-169 82q-123 0 -198.5 -106.5t-75.5 -266.5zM285 1155q-14 25 10 49l362 258q45 35 74 -14l31 -66q12 -20 4 -38.5t-31 -26.5l-399 -176q-35 -10 -51 14z" />
<glyph unicode="&#xea;" horiz-adv-x="1013" d="M70 500q0 215 139 359.5t344 144.5q174 0 277.5 -93.5t103.5 -210.5q0 -88 -96 -120l-568 -187q35 -133 124 -207.5t214 -74.5q211 0 293 178q14 23 39 17.5t21 -34.5q-23 -109 -131.5 -200.5t-284.5 -91.5q-203 0 -339 143t-136 377zM191.5 1148q-23.5 23 7.5 52 l225 207q27 27 61 27h39q29 0 62 -27l235 -207q31 -29 10.5 -54.5t-59.5 -4.5l-272 157l-256 -157q-29 -16 -52.5 7zM248 565q0 -61 8 -104l457 164q49 20 49 71q0 78 -71 160t-169 82q-123 0 -198.5 -106.5t-75.5 -266.5z" />
<glyph unicode="&#xeb;" horiz-adv-x="1013" d="M70 500q0 215 139 359.5t344 144.5q174 0 277.5 -93.5t103.5 -210.5q0 -88 -96 -120l-568 -187q35 -133 124 -207.5t214 -74.5q211 0 293 178q14 23 39 17.5t21 -34.5q-23 -109 -131.5 -200.5t-284.5 -91.5q-203 0 -339 143t-136 377zM188 1300.5q0 53.5 36 86t93 32.5 q55 0 89 -32.5t34 -86t-34 -86t-89 -32.5q-57 0 -93 32.5t-36 86zM248 565q0 -61 8 -104l457 164q49 20 49 71q0 78 -71 160t-169 82q-123 0 -198.5 -106.5t-75.5 -266.5zM582 1300.5q0 53.5 33.5 86t91.5 32.5q55 0 89.5 -32.5t34.5 -86t-34.5 -86t-89.5 -32.5 q-57 0 -91 32.5t-34 86z" />
<glyph unicode="&#xec;" horiz-adv-x="497" d="M12 1376l35 66q25 51 74 14l360 -258q27 -23 10.5 -49t-53.5 -14l-397 176q-49 16 -29 65zM88 27v8q0 14 18.5 27.5t37 33t18.5 49.5v611q0 47 -37 81.5t-37 45.5v4q0 14 31 31l157 77q33 12 48.5 4t15.5 -32v-822q0 -25 12.5 -42t28.5 -25t28.5 -19.5t12.5 -23.5v-8 q0 -27 -43 -27h-252q-39 0 -39 27z" />
<glyph unicode="&#xed;" horiz-adv-x="497" d="M39 1155q-14 25 10 49l363 258q45 35 73 -14l31 -66q12 -20 4 -38.5t-31 -26.5l-399 -176q-35 -12 -51 14zM88 27v8q0 14 18.5 27.5t37 33t18.5 49.5v611q0 47 -37 81.5t-37 45.5v4q0 14 31 31l157 77q33 12 48.5 4t15.5 -32v-822q0 -25 12.5 -42t28.5 -25t28.5 -19.5 t12.5 -23.5v-8q0 -27 -43 -27h-252q-39 0 -39 27z" />
<glyph unicode="&#xee;" horiz-adv-x="497" d="M-56.5 1148q-23.5 23 7.5 52l225 207q29 27 64 27h36q33 0 62 -27l235 -207q31 -29 10.5 -54.5t-57.5 -4.5l-272 159l-258 -159q-29 -16 -52.5 7zM88 27v8q0 14 18.5 27.5t37 33t18.5 49.5v611q0 47 -37 81.5t-37 45.5v4q0 14 31 31l157 77q33 12 48.5 4t15.5 -32v-822 q0 -25 12.5 -42t28.5 -25t28.5 -19.5t12.5 -23.5v-8q0 -27 -43 -27h-252q-39 0 -39 27z" />
<glyph unicode="&#xef;" horiz-adv-x="497" d="M-57 1300.5q0 53.5 34.5 86t92.5 32.5q55 0 89 -32.5t34 -86t-34 -86t-89 -32.5q-57 0 -92 32.5t-35 86zM88 27v8q0 14 18.5 27.5t37 33t18.5 49.5v611q0 47 -37 81.5t-37 45.5v4q0 14 31 31l157 77q33 12 48.5 4t15.5 -32v-822q0 -25 12.5 -42t28.5 -25t28.5 -19.5 t12.5 -23.5v-8q0 -27 -43 -27h-252q-39 0 -39 27zM334 1300.5q0 53.5 34.5 86t90 32.5t90.5 -32.5t35 -86t-35 -86t-90.5 -32.5t-90 32.5t-34.5 86z" />
<glyph unicode="&#xf0;" horiz-adv-x="1163" d="M70 506q0 215 132 356.5t339 141.5q176 0 290 -132q-72 190 -217 336l-270 -92q-25 -12 -35 10l-14 27q-12 29 20 39l230 78q-82 72 -215 155q-23 16 -25 38t12.5 34t32.5 8q176 -57 334 -186l223 76q27 6 37 -11l12 -28q12 -25 -20 -39l-180 -62q154 -150 242.5 -347 t88.5 -419q0 -231 -140 -370t-359 -139q-225 0 -371.5 150.5t-146.5 375.5zM250 563q0 -221 104.5 -369.5t263.5 -148.5q121 0 202 104.5t81 258.5v36q-20 244 -116.5 369t-237.5 125q-133 0 -215 -104.5t-82 -270.5z" />
<glyph unicode="&#xf1;" horiz-adv-x="1175" d="M78 885v6q0 18 33 31l153 73q29 14 43.5 4t14.5 -34v-150q45 86 130 137.5t189 51.5q160 0 267.5 -113t121.5 -340l23 -404q2 -33 20.5 -53t35.5 -33.5t17 -27.5v-8q0 -27 -43 -27h-243q-43 0 -43 27v8q0 14 37.5 42.5t35.5 69.5l-20 410q-8 182 -74.5 275.5t-177.5 93.5 q-113 0 -184.5 -80t-71.5 -203v-498q0 -25 13.5 -42t27.5 -25t27.5 -19.5t13.5 -23.5v-8q0 -27 -43 -27h-256q-41 0 -41 27v8q0 16 40 42.5t40 67.5v621q0 39 -21.5 60.5t-43 33.5t-21.5 27zM250 1255q16 84 67.5 139.5t131.5 55.5q72 0 174 -58.5t139 -58.5q74 0 104 70 q10 27 35 27h14q27 0 21 -35q-47 -190 -197 -191q-63 0 -165.5 59.5t-147.5 59.5q-70 0 -104 -72q-14 -31 -33 -30h-17q-29 0 -22 34z" />
<glyph unicode="&#xf2;" horiz-adv-x="1157" d="M68 506q0 213 143 355.5t354 142.5q227 0 373.5 -151t146.5 -370q0 -215 -135 -359t-348 -144q-238 0 -386 154.5t-148 371.5zM250 563q0 -205 106.5 -360.5t270.5 -155.5q121 0 199.5 102.5t78.5 272.5q0 217 -102.5 365.5t-257.5 148.5q-131 0 -213 -101.5t-82 -271.5z M326 1376l34 66q27 49 74 14l361 -258q27 -23 10.5 -49t-51.5 -14l-400 176q-49 16 -28 65z" />
<glyph unicode="&#xf3;" horiz-adv-x="1157" d="M68 506q0 213 143 355.5t354 142.5q227 0 373.5 -151t146.5 -370q0 -215 -135 -359t-348 -144q-238 0 -386 154.5t-148 371.5zM250 563q0 -205 106.5 -360.5t270.5 -155.5q121 0 199.5 102.5t78.5 272.5q0 217 -102.5 365.5t-257.5 148.5q-131 0 -213 -101.5t-82 -271.5z M352 1155q-14 25 10 49l363 258q47 37 74 -14l32 -66q25 -47 -28 -65l-397 -176q-37 -10 -54 14z" />
<glyph unicode="&#xf4;" horiz-adv-x="1157" d="M68 506q0 213 143 355.5t354 142.5q227 0 373.5 -151t146.5 -370q0 -215 -135 -359t-348 -144q-238 0 -386 154.5t-148 371.5zM250 563q0 -205 106.5 -360.5t270.5 -155.5q121 0 199.5 102.5t78.5 272.5q0 217 -102.5 365.5t-257.5 148.5q-131 0 -213 -101.5t-82 -271.5z M259 1148q-23 23 5 52l225 207q29 27 64 27h37q33 0 61 -27l236 -207q31 -29 11.5 -54.5t-58.5 -4.5l-273 159l-256 -159q-29 -16 -52 7z" />
<glyph unicode="&#xf5;" horiz-adv-x="1157" d="M68 506q0 213 143 355.5t354 142.5q227 0 373.5 -151t146.5 -370q0 -215 -135 -359t-348 -144q-238 0 -386 154.5t-148 371.5zM219 1255q16 84 67.5 139.5t131.5 55.5q72 0 174 -58.5t139 -58.5q74 0 105 70q10 27 34 27h15q27 0 20 -35q-47 -190 -196 -191 q-66 0 -166.5 59.5t-147.5 59.5q-68 0 -104 -72q-14 -31 -33 -30h-16q-29 0 -23 34zM250 563q0 -205 106.5 -360.5t270.5 -155.5q121 0 199.5 102.5t78.5 272.5q0 217 -102.5 365.5t-257.5 148.5q-131 0 -213 -101.5t-82 -271.5z" />
<glyph unicode="&#xf6;" horiz-adv-x="1157" d="M68 506q0 213 143 355.5t354 142.5q227 0 373.5 -151t146.5 -370q0 -215 -135 -359t-348 -144q-238 0 -386 154.5t-148 371.5zM250 563q0 -205 106.5 -360.5t270.5 -155.5q121 0 199.5 102.5t78.5 272.5q0 217 -102.5 365.5t-257.5 148.5q-131 0 -213 -101.5t-82 -271.5z M256 1300.5q0 53.5 35 86t92 32.5q55 0 89 -32.5t34 -86t-34 -86t-89 -32.5q-57 0 -92 32.5t-35 86zM647 1300.5q0 53.5 35 86t92 32.5q53 0 89 -33.5t36 -85t-36 -85t-89 -33.5q-57 0 -92 32.5t-35 86z" />
<glyph unicode="&#xf7;" d="M205 516v76q0 23 28 22h762q31 0 31 -22v-76q0 -23 -31 -22h-762q-29 0 -28 22zM483 104.5q0 55.5 36 91t97 35.5q57 0 93 -35.5t36 -91t-36 -90t-93 -34.5q-61 0 -97 34.5t-36 90zM483 962.5q0 55.5 36 91.5t97 36q57 0 93 -36t36 -91.5t-36 -90t-93 -34.5 q-61 0 -97 34.5t-36 90z" />
<glyph unicode="&#xf8;" horiz-adv-x="1175" d="M68 20q-16 16 6 37l119 115q-115 143 -115 334q0 213 143.5 355.5t353.5 142.5q207 0 349 -130l110 107q23 23 43 4l23 -22q16 -16 -4 -41l-113 -109q113 -141 113 -330q0 -215 -135.5 -359t-348.5 -144t-362 133l-123 -119q-16 -14 -31 0zM258 563q0 -145 57 -272 l504 483q-102 162 -266 162q-131 0 -213 -101.5t-82 -271.5zM358 215q111 -168 279 -168q121 0 198.5 102.5t77.5 272.5q0 156 -53 274z" />
<glyph unicode="&#xf9;" horiz-adv-x="1157" d="M59 928v6q0 25 31 31l172 30q55 10 55 -24l-2 -539q0 -178 62.5 -275.5t179.5 -97.5q111 0 185.5 86t74.5 226v438q0 43 -40 73.5t-40 45.5v6q0 25 31 31l174 30q53 10 53 -24v-795q0 -51 18.5 -77.5t39 -29.5t39 -11.5t18.5 -26.5q0 -43 -127 -43q-156 0 -149 151l-5 13 q-94 -172 -315 -172q-172 0 -275.5 121.5t-103.5 344.5v363q0 45 -38 75.5t-38 43.5zM328 1376l32 66q27 49 74 14l361 -258q27 -23 10 -49q-14 -25 -51 -14l-400 176q-51 16 -26 65z" />
<glyph unicode="&#xfa;" horiz-adv-x="1157" d="M59 928v6q0 25 31 31l172 30q55 10 55 -24l-2 -539q0 -178 62.5 -275.5t179.5 -97.5q111 0 185.5 86t74.5 226v438q0 43 -40 73.5t-40 45.5v6q0 25 31 31l174 30q53 10 53 -24v-795q0 -51 18.5 -77.5t39 -29.5t39 -11.5t18.5 -26.5q0 -43 -127 -43q-156 0 -149 151l-5 13 q-94 -172 -315 -172q-172 0 -275.5 121.5t-103.5 344.5v363q0 45 -38 75.5t-38 43.5zM350 1155q-14 27 12 49l361 258q47 35 74 -14l32 -66q10 -20 3 -38.5t-31 -26.5l-398 -176q-37 -10 -53 14z" />
<glyph unicode="&#xfb;" horiz-adv-x="1157" d="M59 928v6q0 25 31 31l172 30q55 10 55 -24l-2 -539q0 -178 62.5 -275.5t179.5 -97.5q111 0 185.5 86t74.5 226v438q0 43 -40 73.5t-40 45.5v6q0 25 31 31l174 30q53 10 53 -24v-795q0 -51 18.5 -77.5t39 -29.5t39 -11.5t18.5 -26.5q0 -43 -127 -43q-156 0 -149 151l-5 13 q-94 -172 -315 -172q-172 0 -275.5 121.5t-103.5 344.5v363q0 45 -38 75.5t-38 43.5zM258 1148q-22 23 8 52l226 207q27 27 61 27h37q31 0 63 -27l234 -207q31 -29 11.5 -54.5t-58.5 -4.5l-273 159l-256 -159q-31 -16 -53 7z" />
<glyph unicode="&#xfc;" horiz-adv-x="1157" d="M59 928v6q0 25 31 31l172 30q55 10 55 -24l-2 -539q0 -178 62.5 -275.5t179.5 -97.5q111 0 185.5 86t74.5 226v438q0 43 -40 73.5t-40 45.5v6q0 25 31 31l174 30q53 10 53 -24v-795q0 -51 18.5 -77.5t39 -29.5t39 -11.5t18.5 -26.5q0 -43 -127 -43q-156 0 -149 151l-5 13 q-94 -172 -315 -172q-172 0 -275.5 121.5t-103.5 344.5v363q0 45 -38 75.5t-38 43.5zM256 1300.5q0 51.5 36 85t91 33.5t89 -32.5t34 -86t-34 -86t-89 -32.5t-91 33.5t-36 85zM649 1300.5q0 53.5 34 86t91 32.5q53 0 89 -33.5t36 -85t-36 -85t-89 -33.5q-57 0 -91 32.5 t-34 86z" />
<glyph unicode="&#xfd;" horiz-adv-x="1069" d="M-39 -252q0 37 20.5 59.5t57.5 22.5q35 0 59.5 -29.5t35.5 -66.5t39 -66.5t71 -29.5q121 0 250 323l-394 866q-23 45 -60.5 76t-37.5 49v6q0 25 31 25h266q29 0 29 -25v-6q0 -14 -17.5 -31.5t-26 -33t8.5 -62.5l295 -694l293 678q16 37 6 60.5t-28.5 34.5t-37 23.5 t-18.5 24.5v6q0 25 31 25h204q29 0 29 -25v-6q0 -18 -36 -49t-56 -78l-387 -854q-35 -80 -51.5 -113.5t-56.5 -103t-72.5 -101.5t-85 -59.5t-109.5 -27.5q-109 0 -180.5 58.5t-71.5 123.5zM344 1155q-14 25 10 49l363 258q45 35 74 -14l30 -66q12 -20 4 -38.5t-30 -26.5 l-400 -176q-35 -10 -51 14z" />
<glyph unicode="&#xfe;" horiz-adv-x="1150" d="M49 1407v8q0 23 33 35l168 80q61 33 61 -29v-631q105 134 295 134q197 0 335 -139.5t138 -356.5q0 -225 -136 -376.5t-335 -151.5q-186 0 -299 141v-440q0 -41 41 -70t41 -45v-6q0 -27 -41 -27h-254q-41 0 -41 27v6q0 16 38 45t38 70v1613q0 39 -41 68t-41 45zM309 340 q8 -119 92.5 -206t182.5 -87q145 0 230 111.5t85 300.5q0 209 -94 344t-244 135q-92 0 -167 -67.5t-83 -165.5z" />
<glyph unicode="&#xff;" horiz-adv-x="1069" d="M-39 -252q0 37 20.5 59.5t57.5 22.5q35 0 59.5 -29.5t35.5 -66.5t39 -66.5t71 -29.5q121 0 250 323l-394 866q-23 45 -60.5 76t-37.5 49v6q0 25 31 25h266q29 0 29 -25v-6q0 -14 -17.5 -31.5t-26 -33t8.5 -62.5l295 -694l293 678q16 37 6 60.5t-28.5 34.5t-37 23.5 t-18.5 24.5v6q0 25 31 25h204q29 0 29 -25v-6q0 -18 -36 -49t-56 -78l-387 -854q-35 -80 -51.5 -113.5t-56.5 -103t-72.5 -101.5t-85 -59.5t-109.5 -27.5q-109 0 -180.5 58.5t-71.5 123.5zM248 1300.5q0 53.5 35.5 86t93.5 32.5q55 0 89 -32.5t34 -86t-34 -86t-89 -32.5 q-57 0 -93 32.5t-36 86zM641 1300.5q0 53.5 34 86t91 32.5q55 0 90 -32.5t35 -86t-35 -86t-90 -32.5q-57 0 -91 32.5t-34 86z" />
<glyph unicode="&#x152;" horiz-adv-x="2269" d="M70 731q0 330 193.5 537t498.5 207q168 0 313.5 -78t239.5 -213v125q0 41 -35 71.5t-35 44.5v7q0 23 43 22h778q41 0 52 -45l47 -199q10 -39 -27 -39h-14q-18 0 -41 32t-40.5 69t-48 68.5t-67.5 31.5l-409 -2q-57 0 -58 -65v-523h416q33 0 53.5 31t31.5 60.5t24 29.5h14 q27 0 26 -43v-235q0 -43 -26 -43h-14q-12 0 -23.5 29.5t-32 59t-53.5 29.5h-416v-536q0 -78 74 -78h451q51 0 88.5 50t64.5 101.5t47 51.5h21q33 0 22 -35l-51 -207q-10 -47 -51 -47h-838q-43 0 -43 27v4q0 14 35 43.5t35 70.5v105q-92 -127 -228.5 -198.5t-295.5 -71.5 q-295 0 -508 216t-213 535zM254 856q0 -195 79 -377t216 -296.5t295 -114.5q203 0 335 148.5t132 379.5q0 184 -80 366.5t-218.5 303t-293.5 120.5q-203 0 -334 -150.5t-131 -379.5z" />
<glyph unicode="&#x153;" horiz-adv-x="1847" d="M68 506q0 213 146 355.5t366 142.5q119 0 225 -57.5t176 -158.5q135 215 391 216q174 0 284.5 -95.5t110.5 -214.5q0 -84 -92 -114l-571 -187q37 -131 126 -206.5t212 -75.5q191 -1 289 192q14 23 39.5 15.5t21.5 -33.5q-25 -119 -134.5 -212t-279.5 -93q-121 0 -223 56 t-166 154q-66 -98 -170 -154t-229 -56q-213 0 -367.5 152.5t-154.5 373.5zM250 578q0 -219 106.5 -375t270.5 -156q123 0 199.5 103.5t76.5 257.5q0 197 -104.5 362.5t-263.5 165.5q-127 0 -206 -103.5t-79 -254.5zM1081 565q0 -63 9 -106l456 157q49 16 49 80 q0 76 -72.5 159t-172.5 83q-119 0 -194 -106.5t-75 -266.5z" />
<glyph unicode="&#x178;" horiz-adv-x="1351" d="M8 1425v5q0 25 41 24h299q41 0 41 -24v-5q0 -14 -25.5 -31.5t-39 -31.5t1.5 -51l399 -658l399 658q16 39 1 53t-42.5 30.5t-27.5 30.5v5q0 25 37 24h200q41 0 41 -22v-7q0 -18 -42 -44.5t-66 -69.5l-443 -723v-445q0 -31 19.5 -51t39 -34.5t19.5 -28.5v-4q0 -25 -39 -25 h-258q-41 0 -41 25v4q0 14 37 43.5t37 70.5v432l-475 736q-23 37 -68 66.5t-45 47.5zM379 1739q0 53 36 86t93 33q55 0 89 -33t34 -86t-34 -86t-89 -33q-57 0 -93 33t-36 86zM772 1739q0 53 34 86t91 33q53 0 89 -34t36 -85t-36 -85t-89 -34q-57 0 -91 33t-34 86z" />
<glyph unicode="&#x2c6;" d="M90 1142q-22 23 6 52l226 207q31 29 63 29h37q29 0 61 -29l236 -207q31 -27 10.5 -52.5t-57.5 -4.5l-273 157l-258 -157q-29 -18 -51 5z" />
<glyph unicode="&#x2dc;" d="M160 1249q16 86 66 140.5t132 54.5q70 0 172.5 -58.5t141.5 -58.5q72 0 104 72q10 25 33 24h14q31 0 21 -34q-47 -188 -197 -189q-66 0 -166 59.5t-145 59.5q-68 0 -105 -74q-18 -31 -32 -31h-19q-27 0 -20 35z" />
<glyph unicode="&#x2000;" horiz-adv-x="982" />
<glyph unicode="&#x2001;" horiz-adv-x="1964" />
<glyph unicode="&#x2002;" horiz-adv-x="982" />
<glyph unicode="&#x2003;" horiz-adv-x="1964" />
<glyph unicode="&#x2004;" horiz-adv-x="654" />
<glyph unicode="&#x2005;" horiz-adv-x="491" />
<glyph unicode="&#x2006;" horiz-adv-x="327" />
<glyph unicode="&#x2007;" horiz-adv-x="327" />
<glyph unicode="&#x2008;" horiz-adv-x="245" />
<glyph unicode="&#x2009;" horiz-adv-x="392" />
<glyph unicode="&#x200a;" horiz-adv-x="109" />
<glyph unicode="&#x2010;" horiz-adv-x="937" d="M115 633v43q0 27 28 26h652q29 0 28 -26v-43q0 -31 -28 -31h-652q-29 0 -28 31z" />
<glyph unicode="&#x2011;" horiz-adv-x="937" d="M115 633v43q0 27 28 26h652q29 0 28 -26v-43q0 -31 -28 -31h-652q-29 0 -28 31z" />
<glyph unicode="&#x2012;" horiz-adv-x="937" d="M115 633v43q0 27 28 26h652q29 0 28 -26v-43q0 -31 -28 -31h-652q-29 0 -28 31z" />
<glyph unicode="&#x2013;" horiz-adv-x="1148" d="M115 633v43q0 27 28 26h863q27 0 26 -26v-43q0 -31 -26 -31h-863q-29 0 -28 31z" />
<glyph unicode="&#x2014;" horiz-adv-x="1423" d="M115 633v43q0 27 28 26h1137q29 0 29 -26v-43q0 -31 -29 -31h-1137q-29 0 -28 31z" />
<glyph unicode="&#x2018;" horiz-adv-x="415" d="M74 1208q0 216 211 361q23 14 40 -4.5t-3 -38.5q-94 -92 -113 -183q-6 -31 16 -30q45 0 74 -34t29 -89q0 -59 -34 -96t-91 -37q-53 0 -91 42t-38 109z" />
<glyph unicode="&#x2019;" horiz-adv-x="434" d="M113 1350q0 59 33.5 96t91.5 37q55 0 93 -41t38 -111q0 -210 -211 -360q-23 -12 -40.5 6t1.5 39q92 88 114 182q6 31 -18 31q-43 0 -72.5 33.5t-29.5 87.5z" />
<glyph unicode="&#x201a;" horiz-adv-x="428" d="M88 102q0 59 34 96.5t91 37.5q53 0 91 -42t38 -110q0 -215 -211 -360q-23 -14 -40 4t3 39q94 92 113 182q6 31 -17 31q-45 0 -73.5 33.5t-28.5 88.5z" />
<glyph unicode="&#x201c;" horiz-adv-x="806" d="M72 1235q0 215 211 360q23 14 41 -5t-2 -40q-94 -88 -115 -182q-6 -31 18 -31q43 0 73 -33.5t30 -86.5q0 -59 -34 -96.5t-91 -37.5q-55 0 -93 41t-38 111zM467 1235q0 215 211 360q23 14 41 -5t-2 -40q-96 -88 -115 -182q-6 -31 19 -31q43 0 71.5 -33.5t28.5 -86.5 q0 -59 -34 -96.5t-89 -37.5t-93 41t-38 111z" />
<glyph unicode="&#x201d;" horiz-adv-x="827" d="M111 1354q0 59 33.5 96t91.5 37q55 0 93 -41t38 -111q0 -215 -211 -360q-23 -14 -41.5 4t2.5 39q94 90 114 184q6 29 -18 29q-43 0 -72.5 33.5t-29.5 89.5zM506 1354q0 59 33.5 96t91.5 37q53 0 91 -42t38 -110q0 -215 -211 -360q-23 -14 -40 4t3 39q94 92 113 184 q6 29 -17 29q-45 0 -73.5 33.5t-28.5 89.5z" />
<glyph unicode="&#x201e;" horiz-adv-x="821" d="M88 102q0 59 34 96.5t91 37.5q53 0 91 -42t38 -110q0 -215 -211 -360q-23 -14 -40 4t3 39q94 92 113 182q6 31 -17 31q-45 0 -73.5 33.5t-28.5 88.5zM481 102q0 59 34 96.5t91 37.5q55 0 93 -41t38 -111q0 -215 -211 -360q-23 -14 -41 4t2 39q92 88 115 182q6 31 -18 31 q-43 0 -73 33.5t-30 88.5z" />
<glyph unicode="&#x2022;" horiz-adv-x="724" d="M141 778q0 96 62.5 155.5t163.5 59.5q96 0 155.5 -59.5t59.5 -155.5q0 -94 -59.5 -151.5t-155.5 -57.5q-100 0 -163 57.5t-63 151.5z" />
<glyph unicode="&#x2026;" horiz-adv-x="1345" d="M98 100q0 59 37 92t94 33q55 0 92 -32.5t37 -92.5q0 -57 -37 -88.5t-92 -31.5q-57 0 -94 31.5t-37 88.5zM555 100q0 59 37 92t92 33t92 -32.5t37 -92.5q0 -57 -37 -88.5t-92 -31.5t-92 31.5t-37 88.5zM987 100q0 59 37 92t94 33q55 0 92 -32.5t37 -92.5q0 -57 -37 -88.5 t-92 -31.5q-57 0 -94 31.5t-37 88.5z" />
<glyph unicode="&#x202f;" horiz-adv-x="392" />
<glyph unicode="&#x2039;" horiz-adv-x="598" d="M71 592q1 41 17 53q221 158 342 342q12 20 44 11.5t26 -31.5q-63 -217 -285 -381q205 -170 274 -344q2 -10 -12 -20.5t-35.5 -10.5t-38.5 18q-131 158 -315 308q-18 14 -17 55z" />
<glyph unicode="&#x203a;" horiz-adv-x="585" d="M98 967q-6 23 26 32t44 -12q109 -186 328 -342q16 -12 16 -53t-16 -55q-180 -145 -303 -308q-14 -18 -35 -19t-36.5 10t-12.5 22q84 211 258 348q-199 137 -269 377z" />
<glyph unicode="&#x205f;" horiz-adv-x="491" />
<glyph unicode="&#x20ac;" horiz-adv-x="1431" d="M59 637v35q0 23 29 22h184v43q0 55 2 82h-186q-29 0 -29 21v39q0 20 29 20h197q39 274 203.5 421.5t379.5 147.5q188 0 329.5 -84t141.5 -174q0 -35 -22.5 -59.5t-63.5 -24.5q-37 0 -67.5 27t-57 63.5t-60.5 74.5t-96.5 64.5t-146.5 26.5q-139 0 -245.5 -130t-122.5 -353 h622q31 0 31 -20v-39q0 -20 -31 -21h-624q0 -66 6 -125h547q29 0 28 -22v-35q0 -23 -28 -23h-535q41 -225 163 -347t279 -122q104 0 199 45t156 123q25 27 55.5 11.5t17.5 -54.5q-43 -117 -168.5 -202.5t-295.5 -85.5q-231 0 -399.5 176t-200.5 456h-191q-29 0 -29 23z" />
<glyph unicode="&#x2122;" horiz-adv-x="1546" d="M63 1305l21 129q2 18 25 18h489q20 0 23 -18l22 -129q4 -21 -14 -21h-19q-10 0 -35.5 48t-52.5 48h-100v-508q0 -18 23.5 -32.5t23.5 -22.5v-8q0 -14 -18 -14h-187q-18 0 -18 14v8q0 8 23.5 22.5t23.5 32.5v508h-111q-27 0 -51.5 -48t-34.5 -48h-18q-18 0 -15 21z M602 809v8q0 8 20.5 22.5t22.5 32.5l84 506q4 20 -15.5 36t-19.5 24v2q0 12 17 12h125q27 0 34 -20l152 -449l156 449q8 20 32 20h119q18 0 19 -10v-8q0 -6 -17.5 -23.5t-13.5 -38.5l96 -498q4 -18 23.5 -32.5t19.5 -22.5v-10q0 -14 -18 -14h-168q-18 0 -19 14v10 q0 8 19.5 21.5t15.5 33.5l-76 420l-172 -471q-10 -29 -32 -28q-27 0 -37 26l-170 475l-68 -424q-4 -20 15.5 -33.5t19.5 -21.5v-8q0 -14 -16 -14h-127q-20 0 -21 14z" />
<glyph unicode="&#x25fc;" horiz-adv-x="983" d="M0 0v983h983v-983h-983z" />
</font>
</defs>
</svg>
