<svg xmlns="http://www.w3.org/2000/svg" width="20.699" height="19.713" viewBox="0 0 20.699 19.713">
  <g id="profile" transform="translate(0 -13.415)">
    <path id="Path_9344" data-name="Path 9344" d="M135.527,24.478a5.532,5.532,0,1,0-5.54-5.54A5.541,5.541,0,0,0,135.527,24.478Zm0-9.619a4.079,4.079,0,1,1-4.079,4.079A4.091,4.091,0,0,1,135.527,14.86Z" transform="translate(-125.212 0)"/>
    <path id="Path_9345" data-name="Path 9345" d="M.731,348.607H19.968a.725.725,0,0,0,.731-.731,6.959,6.959,0,0,0-6.951-6.951h-6.8A6.959,6.959,0,0,0,0,347.877.725.725,0,0,0,.731,348.607Zm6.22-6.22h6.8a5.486,5.486,0,0,1,5.438,4.758H1.512A5.5,5.5,0,0,1,6.951,342.387Z" transform="translate(0 -315.479)"/>
  </g>
</svg>
