<?xml version="1.0" encoding="utf-8"?>
<!-- Generator: Adobe Illustrator 13.0.0, SVG Export Plug-In . SVG Version: 6.00 Build 14948)  -->
<!DOCTYPE svg PUBLIC "-//W3C//DTD SVG 1.0//EN" "http://www.w3.org/TR/2001/REC-SVG-20010904/DTD/svg10.dtd">
<svg version="1.0" id="Layer_1" xmlns="http://www.w3.org/2000/svg" xmlns:xlink="http://www.w3.org/1999/xlink" x="0px" y="0px"
	 width="11.883px" height="7.148px" viewBox="0 0 11.883 7.148" enable-background="new 0 0 11.883 7.148" xml:space="preserve">
<g>
	<g id="XMLID_1_">
		<g>
			<path fill="#393939" d="M11.201-0.219c0.101,0,0.167,0.075,0.167,0.188c0,0.109-0.066,0.184-0.167,0.184H-0.333
				C-0.419,0.153-0.5,0.078-0.5-0.031c0-0.112,0.066-0.188,0.167-0.188H11.201z"/>
		</g>
	</g>
	<g id="XMLID_2_">
		<g>
			<path fill="#3A3A3A" d="M11.383,3.574c0,0.114-0.064,0.188-0.168,0.188H-0.316c-0.103,0-0.167-0.073-0.167-0.188
				c0-0.113,0.064-0.183,0.167-0.183h11.532C11.302,3.39,11.383,3.461,11.383,3.574z"/>
		</g>
	</g>
	<g id="XMLID_3_">
		<g>
			<path fill="#3A3A3A" d="M11.383,7.178c0,0.114-0.064,0.189-0.168,0.189H-0.316c-0.103,0-0.167-0.074-0.167-0.189
				c0-0.108,0.064-0.183,0.167-0.183h11.532C11.302,6.996,11.383,7.07,11.383,7.178z"/>
		</g>
	</g>
</g>
</svg>
