<svg xmlns="http://www.w3.org/2000/svg" width="18.58" height="21.718" viewBox="0 0 18.58 21.718">
  <g id="noun_tote_bag_3219289" data-name="noun_tote bag_3219289" transform="translate(0.252 0.25)">
    <g id="Layer_25" data-name="Layer 25" transform="translate(0 0)">
      <path id="Path_16" data-name="Path 16" d="M4.136,27.483a1.581,1.581,0,0,0,1.193.543H20.24a1.582,1.582,0,0,0,1.567-1.8L20.135,14.169A1.589,1.589,0,0,0,18.568,12.8H7a1.589,1.589,0,0,0-1.567,1.365L3.762,26.226a1.582,1.582,0,0,0,.374,1.257Zm.51-1.134L6.318,14.292A.693.693,0,0,1,7,13.7H18.568a.693.693,0,0,1,.683.595l1.672,12.058a.69.69,0,0,1-.683.784H5.329a.689.689,0,0,1-.683-.784Z" transform="translate(-3.747 -6.809)" stroke="#000" stroke-width="0.5"/>
      <path id="Path_17" data-name="Path 17" d="M22.7,5.305a.446.446,0,0,0,.446-.446V4.642a3.558,3.558,0,1,0-7.116,0v.217a.446.446,0,0,0,.892,0V4.642a2.665,2.665,0,0,1,5.331,0v.217a.446.446,0,0,0,.446.446Z" transform="translate(-10.547 -1.085)" stroke="#000" stroke-width="0.5"/>
    </g>
  </g>
</svg>
