<svg xmlns="http://www.w3.org/2000/svg" xmlns:xlink="http://www.w3.org/1999/xlink" version="1.1" x="0px" y="0px" viewBox="0 0 512 512" enable-background="new 0 0 512 512" xml:space="preserve"><g><g><path d="M424.537,456H87.463l18.72-288h299.635L424.537,456z M104.537,440h302.926l-16.64-256H121.177L104.537,440z"></path></g></g><g><g><path d="M328,160h-16c0-16.924,0-40.102-7.406-58.229C296.296,81.46,280.855,72,256,72s-40.296,9.46-48.594,29.771    C200,119.898,200,143.076,200,160h-16c0-18.25,0-43.244,8.594-64.28C203.362,69.364,224.694,56,256,56s52.638,13.364,63.406,39.72    C328,116.756,328,141.75,328,160z"></path></g></g></svg>