<svg id="instagram" xmlns="http://www.w3.org/2000/svg" width="19.917" height="19.917" viewBox="0 0 19.917 19.917">
  <g id="Group_533" data-name="Group 533" transform="translate(0)">
    <g id="Group_532" data-name="Group 532">
      <path id="Path_9331" data-name="Path 9331" d="M13.693,0H6.224A6.225,6.225,0,0,0,0,6.224v7.469a6.225,6.225,0,0,0,6.224,6.224h7.469a6.225,6.225,0,0,0,6.224-6.224V6.224A6.225,6.225,0,0,0,13.693,0ZM18.05,13.693a4.362,4.362,0,0,1-4.357,4.357H6.224a4.362,4.362,0,0,1-4.357-4.357V6.224A4.362,4.362,0,0,1,6.224,1.867h7.469A4.362,4.362,0,0,1,18.05,6.224Z" transform="translate(0)" fill="#404040"/>
    </g>
  </g>
  <g id="Group_535" data-name="Group 535" transform="translate(4.979 4.979)">
    <g id="Group_534" data-name="Group 534">
      <path id="Path_9332" data-name="Path 9332" d="M132.979,128a4.979,4.979,0,1,0,4.979,4.979A4.98,4.98,0,0,0,132.979,128Zm0,8.091a3.112,3.112,0,1,1,3.112-3.112A3.116,3.116,0,0,1,132.979,136.091Z" transform="translate(-128 -128)" fill="#404040"/>
    </g>
  </g>
  <g id="Group_537" data-name="Group 537" transform="translate(14.648 3.942)">
    <g id="Group_536" data-name="Group 536">
      <ellipse id="Ellipse_22" data-name="Ellipse 22" cx="0.663" cy="0.663" rx="0.663" ry="0.663" fill="#404040"/>
    </g>
  </g>
</svg>
