<svg xmlns="http://www.w3.org/2000/svg" width="144.251" height="31.559" viewBox="0 0 144.251 31.559">
  <g id="Group_12" data-name="Group 12" transform="translate(-55.417 -130.21)">
    <path id="Path_1" data-name="Path 1" d="M237.2,139.257c-.221.042-.445.075-.664.125a1.723,1.723,0,0,0-1.517,1.8q-.111,3.491-.178,6.983a14.6,14.6,0,0,1-.362,3.361,5.6,5.6,0,0,1-5.218,4.438,8.407,8.407,0,0,1-2.858-.218,4.958,4.958,0,0,1-3.855-3.938,14.53,14.53,0,0,1-.3-3.334c-.007-2.207,0-4.413-.006-6.62a9.892,9.892,0,0,0-.1-1.281A1.209,1.209,0,0,0,221,139.391c-.188-.036-.384-.038-.568-.088-.095-.026-.17-.126-.254-.192a.815.815,0,0,1,.272-.11q3.207-.01,6.415,0c.066,0,.133.013.314.034-.124.127-.18.218-.262.259a.787.787,0,0,1-.267.027c-1.115.093-1.554.533-1.61,1.648-.036.7-.059,1.4-.063,2.1-.009,1.743-.017,3.486,0,5.228a10.322,10.322,0,0,0,.675,3.951,4.278,4.278,0,0,0,6.826,1.505,5.016,5.016,0,0,0,1.386-2.852,21.322,21.322,0,0,0,.315-3.026c.039-1.673,0-3.348-.042-5.02a19.6,19.6,0,0,0-.2-2.022,1.561,1.561,0,0,0-1.232-1.374c-.249-.07-.512-.088-.763-.151a1.47,1.47,0,0,1-.319-.168c.105-.047.209-.135.314-.136,1.619-.008,3.236-.006,4.854-.007.136,0,.272-.005.407-.008Z" transform="translate(-37.531 -1.999)" fill="#1a1818"/>
    <path id="Path_2" data-name="Path 2" d="M237.947,169.484c-.248-.091-.5-.175-.742-.274a2.541,2.541,0,0,1-1.269-3.519,2.644,2.644,0,0,1,2.312-1.571,4.026,4.026,0,0,1,2,.213c.293.114.446.242.287.568a2.245,2.245,0,0,0-.107.407,1.1,1.1,0,0,1-.229-.155,1.785,1.785,0,0,0-2.982.468,2.6,2.6,0,0,0,.1,2.649,1.81,1.81,0,0,0,2.13.666c.077-.019.158-.2.161-.315.018-.5.008-.992.008-1.513h1.113v2.105l-1.222.271Z" transform="translate(-41.062 -7.715)" fill="#b08646"/>
    <path id="Path_3" data-name="Path 3" d="M182.356,169.537l-2.044-5.219c.419,0,.8-.017,1.178.013.085.006.188.166.229.275.385,1.059.758,2.121,1.136,3.182.025.069.062.133.136.287.221-.552.418-1.023.6-1.5.223-.589.428-1.185.65-1.774.185-.491.191-.488.771-.46l-2.043,5.2Z" transform="translate(-28.45 -7.769)" fill="#b08646"/>
    <path id="Path_4" data-name="Path 4" d="M147.613,169.56c.023-.257.064-.514.065-.772,0-1.324,0-2.647-.012-3.971,0-.122-.024-.244-.04-.4h1.22v4.617l1.686-.076v.605Z" transform="translate(-21.002 -7.791)" fill="#b08646"/>
    <path id="Path_5" data-name="Path 5" d="M165.022,169.54c.033-.617.091-1.235.094-1.853,0-.97-.029-1.941-.044-2.911,0-.134,0-.268,0-.447.371,0,.72-.013,1.065.012.062,0,.159.165.16.255,0,.519-.029,1.038-.026,1.558.007,1.129.028,2.258.042,3.387Z" transform="translate(-24.967 -7.771)" fill="#b08646"/>
    <path id="Path_6" data-name="Path 6" d="M200.157,169.537c-.039-.085-.114-.17-.114-.256-.007-1.646-.005-3.291-.005-4.967h1.211v5.125l-.956.1Z" transform="translate(-32.944 -7.769)" fill="#b08646"/>
    <path id="Path_7" data-name="Path 7" d="M70.316,144.888c.9,0,1.754.007,2.61,0,.327,0,.653-.048.979-.074a1.441,1.441,0,0,0,1.367-1.245,2.491,2.491,0,0,1,.105-.426c.039-.088.139-.149.212-.222l.076.053v4.679c-.134-.115-.242-.164-.275-.243a3.2,3.2,0,0,1-.144-.522,1.4,1.4,0,0,0-1.356-1.213c-1.171-.07-2.345-.079-3.544-.114-.013.158-.029.255-.029.352,0,1.765-.007,3.531.006,5.3a6.586,6.586,0,0,0,.121,1.04.978.978,0,0,0,.927.893c1,.069,2,.081,3.008.1a3.683,3.683,0,0,0,.67-.088,2.3,2.3,0,0,0,1.669-1.107c.422-.693.82-1.4,1.244-2.127l.2.061a.616.616,0,0,1,0,.115c-.717,3.148-1.427,6.3-2.156,9.441-.147.631-.059.516-.658.516q-9.743,0-19.485,0h-.451v-.484c.514-.059,1.028-.11,1.539-.183a9.265,9.265,0,0,0,.927-.193,1.991,1.991,0,0,0,1.576-1.822,16.509,16.509,0,0,0,.151-2.093q.015-9.811,0-19.621a16.094,16.094,0,0,0-.2-2.358,1.669,1.669,0,0,0-1.389-1.445c-.67-.147-1.352-.243-2.051-.367v-.458H68.04v.485c-.507.072-1.02.13-1.527.22a2.036,2.036,0,0,0-1.968,2.12c-.073.73-.124,1.466-.124,2.2q-.014,9.572,0,19.145a13.72,13.72,0,0,0,.117,1.825,1.821,1.821,0,0,0,1.834,1.862,18.675,18.675,0,0,0,5.573-.029,4.359,4.359,0,0,0,2.993-1.913,16.355,16.355,0,0,0,1.64-3.089c-.174-.012-.3-.028-.432-.028q-5.076,0-10.15,0a4.89,4.89,0,0,1-.543-.006,1.54,1.54,0,0,1-.335-.116,1.31,1.31,0,0,1,.311-.157c.387-.08.782-.12,1.166-.21a1.109,1.109,0,0,0,.884-1,6.327,6.327,0,0,0,.077-.91q0-6.024-.005-12.05a3.371,3.371,0,0,0-.029-.507c-.153-1-.432-1.26-1.447-1.358a.98.98,0,0,1-.3-.024c-.089-.041-.15-.141-.223-.214l.063-.074H76.731c.032.395.066.785.093,1.176.049.676.093,1.352.14,2.029.012.188.033.381-.271.345-.106-.316-.2-.639-.322-.953a2.736,2.736,0,0,0-2.849-2.017c-.825-.021-1.65-.049-2.474-.023-.623.02-.731.175-.732.8q0,2.664,0,5.329Z" transform="translate(0 -0.186)" fill="#1a1818"/>
    <path id="Path_8" data-name="Path 8" d="M114.64,136.1c-.3,0-.575.015-.843-.008a.365.365,0,0,1-.236-.183,8.324,8.324,0,0,0-6.732-4.609,9.7,9.7,0,0,0-9.973,4.935,16.005,16.005,0,0,0-2.11,7.253,19.987,19.987,0,0,0,1.186,8.461,12.087,12.087,0,0,0,4.032,5.588,9.186,9.186,0,0,0,11.809-.551,23.654,23.654,0,0,0,1.9-2.161.649.649,0,0,1,.635-.324,5.827,5.827,0,0,0,.711.005c-.055.192-.086.345-.142.49q-.785,2.036-1.576,4.072a.576.576,0,0,1-.494.391c-1.757.3-3.5.716-5.269.9a18.292,18.292,0,0,1-11.4-2.114,13.625,13.625,0,0,1-6.693-9.552,15.535,15.535,0,0,1,1.327-10.2,13.834,13.834,0,0,1,6.724-6.448,20.778,20.778,0,0,1,10.95-1.724,44.064,44.064,0,0,1,5.27.9.361.361,0,0,1,.327.354C114.231,133.069,114.433,134.557,114.64,136.1Z" transform="translate(-7.675 0)" fill="#1a1818"/>
    <path id="Path_9" data-name="Path 9" d="M136.132,147.215h-7.687c-.008.122-.021.229-.021.337,0,1.9,0,3.8,0,5.7a7.829,7.829,0,0,0,.078.978,1.071,1.071,0,0,0,.89.983c.264.058.535.086.8.146.076.017.139.1.208.149-.078.042-.155.118-.234.119-.893.008-1.787,0-2.681,0-1.165,0-2.331,0-3.5,0a.871.871,0,0,1-.294-.123c.093-.053.183-.109.278-.156a.489.489,0,0,1,.132-.025c1.275-.229,1.536-.507,1.55-1.819.022-2.025.009-4.05.01-6.076,0-1.991.007-3.982-.006-5.973a7.15,7.15,0,0,0-.129-1.208.968.968,0,0,0-.788-.8c-.283-.07-.577-.1-.867-.143-.233-.034-.234-.031-.213-.316h6.2a.771.771,0,0,1,.236.005,1.246,1.246,0,0,1,.243.144.907.907,0,0,1-.25.16c-.24.058-.489.082-.731.132a1.055,1.055,0,0,0-.863.966,5.261,5.261,0,0,0-.071.808c-.006,1.731,0,3.461,0,5.222h7.683c.006-.108.019-.218.019-.327,0-1.584.005-3.168,0-4.751a6.2,6.2,0,0,0-.081-.978,1.063,1.063,0,0,0-.863-.932c-.264-.059-.537-.08-.8-.143a1.023,1.023,0,0,1-.281-.181l.051-.1c.086-.008.172-.023.258-.023,2.048,0,4.1,0,6.143,0a.942.942,0,0,1,.319.134,1.35,1.35,0,0,1-.31.171c-.207.052-.426.056-.634.105a1.09,1.09,0,0,0-.977,1.123c-.031.3-.062.608-.063.913q0,5.922,0,11.845a5.766,5.766,0,0,0,.076.877c.106.684.49,1,1.33,1.12a4.706,4.706,0,0,1,.535.078c.07.019.119.119.236.246-.236.011-.358.022-.48.022h-6.177a.353.353,0,0,1-.134,0,1.5,1.5,0,0,1-.195-.127c.058-.05.108-.127.175-.144a2.8,2.8,0,0,1,.434-.066c1-.114,1.372-.5,1.422-1.51.019-.4.015-.792.015-1.188q0-2.478,0-4.955Z" transform="translate(-15.544 -2)" fill="#1a1818"/>
    <path id="Path_10" data-name="Path 10" d="M197.432,151.684c.052.116.154.229.135.318q-.367,1.74-.772,3.471c-.015.068-.132.122-.212.162a.4.4,0,0,1-.168.005H184.6c-.1-.218-.013-.261.175-.284.4-.049.8-.114,1.2-.195a1.143,1.143,0,0,0,.943-1.061,6.074,6.074,0,0,0,.074-.877q0-6.008-.007-12.016a4.6,4.6,0,0,0-.079-.809c-.13-.723-.449-.962-1.386-1.067a1.366,1.366,0,0,1-.336-.032c-.083-.032-.14-.13-.208-.2l.059-.078h11.118c.017.131.041.262.049.392.065.958.12,1.917.195,2.875.017.219-.056.29-.264.28-.137-.381-.263-.766-.415-1.141a2.6,2.6,0,0,0-2.428-1.809c-1-.039-2.01-.034-3.015-.026-.353,0-.515.181-.516.539-.007,2.15,0,4.3,0,6.449a.561.561,0,0,0,.038.127c.839,0,1.685.008,2.53,0,.349,0,.7-.052,1.046-.083a1.372,1.372,0,0,0,1.29-1.11c.051-.185.085-.376.152-.554.027-.073.12-.12.184-.179.043.065.124.13.124.195.007,1.458.005,2.916.005,4.375l-.087.073c-.079-.076-.2-.139-.229-.229-.419-1.483-.6-1.667-2.136-1.756-.956-.056-1.917-.011-2.9-.011-.009.106-.023.193-.023.28,0,1.754-.008,3.508.008,5.262a6.912,6.912,0,0,0,.144,1.205.93.93,0,0,0,.74.757,2.935,2.935,0,0,0,.731.129c1.07-.019,2.144-.022,3.211-.114a1.987,1.987,0,0,0,1.5-1C196.541,153.222,196.959,152.486,197.432,151.684Z" transform="translate(-29.418 -2.008)" fill="#1a1818"/>
    <path id="Path_11" data-name="Path 11" d="M146.705,155.425c.069-.056.134-.157.208-.163a2.562,2.562,0,0,0,2.209-1.89q1.319-3.3,2.632-6.609,1.529-3.858,3.042-7.722c.14-.36.456-.343.741-.488.3.831.586,1.637.879,2.441q2.19,6.032,4.385,12.064c.089.243.208.476.311.714a2.269,2.269,0,0,0,1.873,1.479c.083.011.157.105.234.161-.089.041-.178.117-.267.117q-3.053.009-6.108,0a.865.865,0,0,1-.28-.11,1.086,1.086,0,0,1,.258-.188c.245-.084.506-.122.747-.215a.763.763,0,0,0,.537-.992c-.164-.633-.365-1.258-.575-1.878-.289-.856-.606-1.7-.9-2.558a.388.388,0,0,0-.442-.3c-1.459.012-2.918.007-4.377,0-.2,0-.337.019-.41.246-.418,1.3-.87,2.591-1.27,3.9-.33,1.081-.09,1.447,1.022,1.7.2.046.4.067.6.124.081.024.144.111.215.169l-.056.086h-5.144Zm9.531-6.9c-.693-2.059-1.376-4.09-2.059-6.12l-.12,0-2.287,6.124Z" transform="translate(-20.795 -1.901)" fill="#1a1818"/>
    <path id="Path_12" data-name="Path 12" d="M210.089,138.558c.52,1.446,1.022,2.86,1.534,4.272q1.838,5.063,3.686,10.122c.113.307.261.6.4.9a2.192,2.192,0,0,0,1.785,1.387c.095.013.179.114.268.173a.934.934,0,0,1-.3.12q-3.021.01-6.042,0a.983.983,0,0,1-.306-.113,1.438,1.438,0,0,1,.291-.2c.158-.057.332-.069.493-.117.7-.214.929-.572.72-1.276-.28-.941-.6-1.869-.917-2.8-.162-.482-.35-.954-.51-1.437a.37.37,0,0,0-.409-.3c-1.493.009-2.987,0-4.48.012a.383.383,0,0,0-.3.178c-.471,1.4-.948,2.8-1.371,4.218-.232.778.012,1.144.786,1.364.282.08.575.118.859.193.074.02.13.107.2.164-.066.039-.133.113-.2.113q-2.393.012-4.785,0c-.07,0-.139-.071-.209-.109.058-.055.107-.137.175-.158.161-.049.332-.065.5-.1a2.305,2.305,0,0,0,1.6-1.528c.554-1.31,1.077-2.635,1.6-3.958,1.385-3.5,2.771-6.993,4.131-10.5C209.436,138.775,209.728,138.691,210.089,138.558Zm-1.361,3.848-.128.007c-.756,2.029-1.512,4.056-2.275,6.105h4.46Z" transform="translate(-33.225 -1.902)" fill="#1a1818"/>
    <path id="Path_13" data-name="Path 13" d="M176.919,155.406h-7.388l-.066-.076c.073-.062.139-.161.222-.178.309-.062.626-.083.936-.144a1.232,1.232,0,0,0,1.107-1.19,11.989,11.989,0,0,0,.075-1.353q.008-6.365,0-12.729v-.4c-.323,0-.623-.011-.922,0-.666.03-1.331.063-2,.111A1.958,1.958,0,0,0,167.1,140.7c-.231.551-.423,1.118-.617,1.683-.064.188-.127.313-.372.2l.315-4.52a3.078,3.078,0,0,1,.29.244,1.353,1.353,0,0,0,1.082.473q5.346.006,10.692,0a1.669,1.669,0,0,0,1.164-.473,1.076,1.076,0,0,1,.32-.135,1.767,1.767,0,0,1,.076.316c.074,1.341.143,2.683.213,4.041-.163.082-.25.032-.319-.168-.179-.523-.362-1.046-.584-1.552a2.106,2.106,0,0,0-1.916-1.391c-.945-.046-1.891-.08-2.866-.12-.012.174-.026.283-.026.391q0,6.687.008,13.374c0,.135,0,.272.013.407.109,1.1.49,1.483,1.594,1.6.2.022.407.034.605.076.076.015.139.1.208.154Z" transform="translate(-25.216 -1.789)" fill="#1a1818"/>
    <path id="Path_14" data-name="Path 14" d="M216.51,165.935v3.492h-.645l.116-5.151a1,1,0,0,1,1.076.431c.8.942,1.661,1.836,2.5,2.747.082.089.175.167.34.322,0-.229,0-.367,0-.505q-.014-1.288-.03-2.576c-.005-.443-.006-.443.424-.446h.216c-.042,1.734-.083,3.444-.124,5.156-.49.191-.743-.128-1.025-.449-.907-1.029-1.832-2.041-2.75-3.059Z" transform="translate(-36.549 -7.753)" fill="#b08646"/>
    <path id="Path_15" data-name="Path 15" d="M156.938,133.724a1.816,1.816,0,0,1,.395.209q1.332,1.246,2.646,2.51a1.369,1.369,0,0,1,.191.342c-.139.012-.3.08-.412.029-.807-.375-1.611-.758-2.4-1.174a.743.743,0,0,0-.78-.016c-.746.391-1.506.754-2.261,1.127a.728.728,0,0,1-.28.111,1.129,1.129,0,0,1-.321-.093.786.786,0,0,1,.119-.245c.8-.748,1.6-1.488,2.4-2.233.124-.115.225-.254.353-.363A2.356,2.356,0,0,1,156.938,133.724Z" transform="translate(-22.393 -0.801)" fill="#b08646"/>
  </g>
</svg>
