<svg xmlns="http://www.w3.org/2000/svg" width="15.424" height="19.827" viewBox="0 0 15.424 19.827">
  <path id="pinterest" d="M9.894,13.112c-.522,2.73-1.157,5.347-3.042,6.714C6.271,15.7,7.706,12.6,8.373,9.313,7.236,7.4,8.509,3.552,10.905,4.5c2.949,1.166-2.554,7.11,1.14,7.853,3.857.774,5.431-6.691,3.04-9.119C11.63-.273,5.027,3.152,5.84,8.173c.2,1.227,1.465,1.6.507,3.293-2.212-.489-2.872-2.234-2.787-4.56A7.441,7.441,0,0,1,10.272.066C14.437-.4,18.345,1.6,18.885,5.512c.608,4.423-1.88,9.212-6.333,8.867-1.208-.094-1.713-.693-2.659-1.268Z" transform="translate(-3.552 0.001)" fill="#404040"/>
</svg>
