<svg xmlns="http://www.w3.org/2000/svg" width="15.281" height="19.092" viewBox="0 0 15.281 19.092">
  <g id="shopping-bag_2_" data-name="shopping-bag (2)" transform="translate(-48.8)">
    <path id="Path_1" data-name="Path 1" d="M64.077,16.5,62.984,4.193a.526.526,0,0,0-.523-.48H60.212a3.772,3.772,0,0,0-7.543,0H50.42a.523.523,0,0,0-.523.48L48.8,16.5c0,.016,0,.031,0,.047a2.721,2.721,0,0,0,2.866,2.542h9.55a2.721,2.721,0,0,0,2.866-2.542A.19.19,0,0,0,64.077,16.5ZM56.441,1.054a2.72,2.72,0,0,1,2.717,2.659H53.723A2.72,2.72,0,0,1,56.441,1.054Zm4.775,16.983h-9.55a1.682,1.682,0,0,1-1.812-1.464L50.9,4.771h1.765v1.6a.527.527,0,0,0,1.054,0v-1.6h5.439v1.6a.527.527,0,1,0,1.054,0v-1.6h1.765l1.05,11.8A1.685,1.685,0,0,1,61.216,18.038Z" fill="#707070"/>
  </g>
</svg>
