<svg xmlns="http://www.w3.org/2000/svg" width="23.701" height="23.815" viewBox="0 0 23.701 23.815">
  <path id="whatsapp" d="M20.5,3.461A11.8,11.8,0,0,0,1.924,17.7L.25,23.815l6.256-1.641a11.788,11.788,0,0,0,5.639,1.436h0A11.806,11.806,0,0,0,20.5,3.461ZM12.15,21.617h0A9.8,9.8,0,0,1,7.154,20.25L6.8,20.037l-3.712.974.991-3.619-.233-.371a9.808,9.808,0,1,1,8.309,4.6Zm5.38-7.346c-.295-.148-1.745-.861-2.015-.959s-.467-.147-.663.148-.762.959-.934,1.156-.344.222-.639.074a8.054,8.054,0,0,1-2.371-1.464,8.894,8.894,0,0,1-1.64-2.043c-.172-.3,0-.44.129-.6a8.341,8.341,0,0,0,.737-1.009.542.542,0,0,0-.025-.517c-.074-.148-.663-1.6-.909-2.189-.24-.575-.482-.5-.664-.506s-.368-.01-.565-.01a1.083,1.083,0,0,0-.786.369,3.307,3.307,0,0,0-1.032,2.46,5.736,5.736,0,0,0,1.2,3.05,13.144,13.144,0,0,0,5.037,4.452,16.878,16.878,0,0,0,1.681.621,4.042,4.042,0,0,0,1.857.117,3.038,3.038,0,0,0,1.99-1.4,2.464,2.464,0,0,0,.172-1.4C18.021,14.492,17.825,14.419,17.53,14.271Zm0,0" transform="translate(-0.25)" fill="#404040" fill-rule="evenodd"/>
</svg>
