<?xml version="1.0" standalone="no"?>
<!DOCTYPE svg PUBLIC "-//W3C//DTD SVG 1.1//EN" "http://www.w3.org/Graphics/SVG/1.1/DTD/svg11.dtd" >
<svg xmlns="http://www.w3.org/2000/svg" xmlns:xlink="http://www.w3.org/1999/xlink" version="1.1">
<metadata></metadata>
<defs>
<font id="gt_americaregular" horiz-adv-x="1513" >
<font-face units-per-em="2048" ascent="1638" descent="-410" />
<missing-glyph horiz-adv-x="532" />
<glyph unicode="&#xfb01;" horiz-adv-x="1253" d="M41 881v143h188v162q0 140 81.5 225.5t217.5 85.5q76 0 131 -14v-150q-62 10 -108 10q-78 0 -113 -44t-35 -138v-137h256v-143h-256v-881h-174v881h-188zM883 1214v220h198v-220h-198zM895 0v1024h174v-1024h-174z" />
<glyph unicode="&#xfb02;" horiz-adv-x="1273" d="M41 881v143h188v162q0 140 81.5 225.5t217.5 85.5q76 0 131 -14v-150q-62 10 -108 10q-78 0 -113 -44t-35 -138v-137h256v-143h-256v-881h-174v881h-188zM905 0v1485h174v-1485h-174z" />
<glyph horiz-adv-x="0" />
<glyph horiz-adv-x="0" />
<glyph horiz-adv-x="682" />
<glyph unicode="&#xd;" horiz-adv-x="0" />
<glyph unicode=" "  horiz-adv-x="532" />
<glyph unicode="&#x09;" horiz-adv-x="532" />
<glyph unicode="&#xa0;" horiz-adv-x="532" />
<glyph unicode="!" horiz-adv-x="634" d="M205 1485h225l-51 -1112h-123zM209 0v217h217v-217h-217z" />
<glyph unicode="&#x22;" horiz-adv-x="827" d="M143 1454h195l-37 -539h-121zM489 1454h195l-37 -539h-121z" />
<glyph unicode="#" horiz-adv-x="1146" d="M20 418v141h232l55 305h-205v142h232l78 417h161l-77 -417h260l78 417h161l-77 -417h208v-142h-235l-55 -305h221v-141h-248l-78 -418h-162l78 418h-260l-78 -418h-162l78 418h-205zM414 559h260l55 305h-260z" />
<glyph unicode="$" horiz-adv-x="1247" d="M61 387l189 37q42 -137 121 -208.5t198 -86.5v539l-34 8q-213 46 -309.5 142.5t-96.5 262.5q0 154 121 255.5t319 115.5v186h123v-186q176 -15 292 -109.5t151 -255.5l-187 -53q-58 222 -256 258v-467l19 -4q237 -51 345.5 -153.5t108.5 -292.5q0 -171 -127.5 -283 t-345.5 -125v-186h-123v186q-202 14 -335.5 121t-172.5 299zM322 1081q0 -89 56.5 -142.5t190.5 -86.5v446q-116 -8 -181.5 -63t-65.5 -154zM692 127q132 9 206.5 73t74.5 175q0 109 -63.5 168t-217.5 98v-514z" />
<glyph unicode="%" horiz-adv-x="1591" d="M41 1108q0 166 95.5 266.5t252.5 100.5q155 0 251.5 -102.5t96.5 -270.5q0 -166 -96 -266.5t-250 -100.5q-159 0 -254.5 101t-95.5 272zM188 1108q0 -114 55 -178t148 -64q89 0 142 63.5t53 172.5q0 112 -53.5 176.5t-143.5 64.5q-91 0 -146 -63.5t-55 -171.5zM260 -31 l895 1485h170l-895 -1485h-170zM854 340q0 166 95.5 266.5t252.5 100.5q155 0 251.5 -102.5t96.5 -270.5q0 -166 -96 -266.5t-250 -100.5q-159 0 -254.5 101t-95.5 272zM1001 340q0 -114 55 -178t148 -64q89 0 142 63.5t53 172.5q0 112 -53.5 176.5t-143.5 64.5 q-91 0 -146 -63.5t-55 -171.5z" />
<glyph unicode="&#x26;" horiz-adv-x="1318" d="M51 356q0 125 62 216.5t209 185.5l26 16q-184 223 -184 385q0 158 99 254t263 96t260.5 -88.5t96.5 -240.5q0 -101 -51.5 -193.5t-139.5 -152.5l-110 -74l348 -402q96 175 108 428l158 -22q-9 -310 -160 -526q81 -84 174 -84q54 0 78 6v-158q-54 -8 -88 -8 q-162 0 -276 117q-168 -146 -387 -146q-220 0 -353 106.5t-133 284.5zM236 369q0 -106 90 -177t223 -71q158 0 274 104l-379 441l-14 -11q-116 -78 -155 -135.5t-39 -150.5zM346 1169q0 -70 32 -138.5t114 -166.5l79 51q138 84 138 259q0 92 -47.5 142t-135.5 50 q-177 0 -180 -197z" />
<glyph unicode="'" horiz-adv-x="481" d="M143 1454h195l-37 -539h-121z" />
<glyph unicode="(" horiz-adv-x="626" d="M123 674q0 259 96 500.5t264 427.5l123 -74q-161 -211 -234 -415t-73 -445q0 -242 73 -451.5t234 -425.5l-127 -78q-167 200 -261.5 450.5t-94.5 510.5z" />
<glyph unicode=")" horiz-adv-x="626" d="M20 -209q161 217 234.5 426t73.5 451q0 241 -73 445t-235 415l123 74q168 -186 264.5 -428t96.5 -500q0 -260 -95 -510.5t-262 -450.5z" />
<glyph unicode="*" horiz-adv-x="669" d="M41 1219l49 145l199 -98l-31 219h154l-31 -219l199 98l49 -145l-217 -43l153 -160l-123 -92l-106 198l-109 -198l-123 92l154 160z" />
<glyph unicode="+" horiz-adv-x="1167" d="M102 600v150h394v389h174v-389h395v-150h-395v-414h-174v414h-394z" />
<glyph unicode="," horiz-adv-x="526" d="M143 0v242h240v-228q0 -125 -39.5 -191t-144.5 -110l-47 90q74 33 98 73t24 118v6h-131z" />
<glyph unicode="-" horiz-adv-x="796" d="M102 487v164h592v-164h-592z" />
<glyph unicode="." horiz-adv-x="526" d="M143 0v242h240v-242h-240z" />
<glyph unicode="/" horiz-adv-x="923" d="M92 -240l578 1796h161l-577 -1796h-162z" />
<glyph unicode="0" horiz-adv-x="1302" d="M102 711q0 348 141.5 545.5t407.5 197.5t407.5 -197.5t141.5 -545.5q0 -347 -141.5 -544.5t-407.5 -197.5t-407.5 197.5t-141.5 544.5zM287 711q0 -277 92 -432.5t272 -155.5t272.5 155.5t92.5 432.5q0 278 -92 433.5t-273 155.5q-180 0 -272 -155.5t-92 -433.5z" />
<glyph unicode="1" horiz-adv-x="806" d="M72 1026v166h45q106 0 184.5 60.5t104.5 170.5h155v-1423h-184v1116q-30 -42 -99 -66t-133 -24h-73z" />
<glyph unicode="2" horiz-adv-x="1107" d="M72 0v152q248 182 483 407q135 130 188.5 232.5t53.5 230.5q0 130 -68.5 201t-191.5 71q-124 0 -195.5 -69t-71.5 -187q0 -44 17 -131l-185 19q-14 57 -14 114q0 190 122.5 302t336.5 112q208 0 325 -112t117 -318q0 -149 -76.5 -286.5t-242.5 -291.5 q-165 -151 -351 -280h687v-166h-934z" />
<glyph unicode="3" horiz-adv-x="1161" d="M72 406l180 22q6 -144 94 -224.5t236 -80.5q144 0 218 70.5t74 205.5q0 129 -80.5 197t-238.5 68h-80v151h72q139 0 208.5 64.5t69.5 181.5q0 114 -70 176.5t-196 62.5q-139 0 -214 -83.5t-75 -241.5l-172 37q0 205 126.5 323.5t344.5 118.5q208 0 324.5 -99.5 t116.5 -273.5q0 -123 -69 -210.5t-189 -116.5q307 -54 307 -351q0 -203 -130 -318.5t-354 -115.5q-223 0 -360 119t-143 318z" />
<glyph unicode="4" horiz-adv-x="1126" d="M20 360v125l637 938h205v-919h234v-144h-234v-360h-174v360h-668zM207 504h481v522q0 143 4 217h-4q-32 -80 -102 -186l-244 -367q-77 -118 -135 -186z" />
<glyph unicode="5" horiz-adv-x="1157" d="M102 348l191 23q23 -111 96 -177.5t193 -66.5q141 0 220 89.5t79 246.5q0 164 -75.5 259t-219.5 95q-223 0 -285 -237l-176 18l84 825h786v-159h-647l-53 -484q104 191 336 191q202 0 318 -133.5t116 -364.5q0 -226 -135 -365t-359 -139q-188 0 -314.5 102.5 t-154.5 276.5z" />
<glyph unicode="6" horiz-adv-x="1155" d="M92 680q0 373 138 573.5t393 200.5q178 0 290 -91t144 -261l-185 -41q-25 121 -86.5 180t-164.5 59q-337 0 -349 -557q50 98 144 152.5t217 54.5q200 0 320 -132t120 -353q0 -222 -129.5 -359t-339.5 -137q-253 0 -382.5 179.5t-129.5 531.5zM279 508q15 -177 103.5 -281 t223.5 -104q129 0 206 92.5t77 247.5q0 154 -78.5 244t-212.5 90q-118 0 -200 -75t-119 -214z" />
<glyph unicode="7" horiz-adv-x="1003" d="M51 1253v170h922v-143q-249 -277 -376.5 -599.5t-127.5 -645.5v-35h-203v20q0 612 498 1233h-713z" />
<glyph unicode="8" horiz-adv-x="1183" d="M82 369q0 291 289 379q-123 56 -179.5 137t-56.5 202q0 164 127 265.5t332 101.5q207 0 331 -98.5t124 -263.5q0 -123 -63 -206.5t-183 -121.5q158 -58 228.5 -149t70.5 -234q0 -186 -138 -299t-366 -113q-233 0 -374.5 109.5t-141.5 290.5zM268 395q0 -126 90.5 -202 t239.5 -76q151 0 235.5 70t84.5 194q0 98 -60 161.5t-192 106.5l-136 43q-140 -49 -201 -118.5t-61 -178.5zM319 1087q0 -92 57 -150.5t185 -96.5l72 -23q128 49 179.5 109t51.5 157q0 109 -73 170.5t-203 61.5q-125 0 -197 -61t-72 -167z" />
<glyph unicode="9" horiz-adv-x="1159" d="M82 987q0 204 130.5 335.5t344.5 131.5q510 0 510 -715q0 -133 -17.5 -247t-56 -211.5t-96.5 -166t-143.5 -107t-192.5 -38.5q-194 0 -311.5 96t-151.5 277l185 41q23 -125 89 -192.5t191 -67.5q313 0 320 590q-107 -183 -344 -183q-202 0 -329.5 120t-127.5 337z M266 989q0 -140 80.5 -222.5t210.5 -82.5q115 0 206 76.5t116 191.5q-6 54 -18.5 101.5t-38 94t-60.5 79.5t-88 53t-119 20q-130 0 -209.5 -85.5t-79.5 -225.5z" />
<glyph unicode=":" horiz-adv-x="526" d="M143 0v242h240v-242h-240zM143 782v242h240v-242h-240z" />
<glyph unicode=";" horiz-adv-x="526" d="M143 0v242h240v-228q0 -125 -39.5 -191t-144.5 -110l-47 90q74 33 98 73t24 118v6h-131zM143 782v242h240v-242h-240z" />
<glyph unicode="&#x3c;" horiz-adv-x="1269" d="M117 594v147l952 420v-162l-760 -329l760 -330v-166z" />
<glyph unicode="=" horiz-adv-x="1167" d="M102 397v164h963v-164h-963zM102 786v164h963v-164h-963z" />
<glyph unicode="&#x3e;" horiz-adv-x="1269" d="M201 174v166l760 330l-760 329v162l952 -420v-147z" />
<glyph unicode="?" horiz-adv-x="958" d="M20 1079q0 194 118 312t339 118q211 0 331 -107t120 -302q0 -178 -193 -359l-102 -96q-46 -43 -65 -88.5t-19 -118.5v-57h-174v86q0 33 3 56.5t13 59.5t35.5 72.5t65.5 73.5l100 94q65 62 103 126t38 151q0 113 -72 181.5t-184 68.5q-122 0 -197 -78.5t-75 -216.5 q0 -52 12 -109l-186 23q-11 58 -11 110zM356 0v217h215v-217h-215z" />
<glyph unicode="@" horiz-adv-x="1695" d="M92 565q0 228 93 405.5t271.5 279.5t417.5 102q172 0 310.5 -54.5t230 -153.5t140.5 -236t49 -302q0 -209 -85.5 -334t-228.5 -125q-169 0 -217 158q-38 -78 -115.5 -124t-169.5 -46q-129 0 -211.5 68t-82.5 174q0 112 82.5 176t261.5 90l219 31v14q0 114 -39 159.5 t-139 45.5q-180 0 -195 -156h-158q9 129 106 206t251 77q169 0 244 -82t75 -268v-230q0 -94 24 -135t79 -41q72 0 115.5 92t43.5 246q0 293 -148.5 461t-434.5 168q-204 0 -351 -85t-220.5 -234t-73.5 -347q0 -292 178.5 -470.5t470.5 -178.5q201 0 381 80l57 -109 q-191 -96 -455 -96q-352 0 -564 212t-212 562zM657 381q0 -53 43 -87t109 -34q110 0 179 71.5t69 186.5v45l-185 -26q-117 -17 -166 -52.5t-49 -103.5z" />
<glyph unicode="A" horiz-adv-x="1376" d="M41 0l551 1454h192l551 -1454h-200l-150 420h-594l-149 -420h-201zM449 584h479l-203 567q-25 70 -35 111h-4q-10 -41 -35 -111z" />
<glyph unicode="B" horiz-adv-x="1347" d="M205 0v1454h506q110 0 196.5 -24t139.5 -62.5t87 -90.5t47 -103.5t13 -106.5q0 -108 -62.5 -194.5t-181.5 -120.5q132 -24 208.5 -116.5t76.5 -236.5q0 -59 -14 -113t-49.5 -107.5t-88.5 -92t-137.5 -62.5t-191.5 -24h-549zM399 164h344q82 0 142 21t93 57.5t48.5 80 t15.5 95.5q0 109 -68 175t-210 66h-365v-495zM399 823h312q290 0 290 230q0 47 -13 86t-43 75t-89.5 56t-144.5 20h-312v-467z" />
<glyph unicode="C" horiz-adv-x="1421" d="M92 731q0 225 74.5 394.5t225.5 266.5t362 97q256 0 401 -137t174 -373l-199 -21q-22 169 -122 267t-265 98q-210 0 -328 -160.5t-118 -429.5q0 -173 50 -306t153.5 -212.5t247.5 -79.5q154 0 258 95t135 259l188 -32q-21 -106 -65.5 -193t-114 -155t-172 -106 t-229.5 -38q-164 0 -292 60t-206 165.5t-118 242.5t-40 298z" />
<glyph unicode="D" horiz-adv-x="1464" d="M205 0v1454h477q312 0 501 -200t189 -525q0 -158 -49 -292.5t-138.5 -231t-220 -151t-286.5 -54.5h-473zM399 164h275q152 0 265 77t169.5 204t56.5 284q0 250 -129 405.5t-358 155.5h-279v-1126z" />
<glyph unicode="E" horiz-adv-x="1253" d="M205 0v1454h901v-164h-707v-463h672v-163h-672v-500h721v-164h-915z" />
<glyph unicode="F" horiz-adv-x="1187" d="M205 0v1454h901v-164h-707v-463h672v-163h-672v-664h-194z" />
<glyph unicode="G" horiz-adv-x="1476" d="M92 727q0 224 77 394.5t230 269t363 98.5q96 0 178 -21t139 -57.5t101 -80.5t71.5 -95.5t43 -96.5t22.5 -89l-193 -27q-8 52 -30 100t-63 96.5t-112 77.5t-163 29q-146 0 -252 -76.5t-159.5 -211t-53.5 -312.5q0 -126 29 -233t85.5 -188t147 -127t205.5 -46 q102 0 179.5 33t120 81t69 112t34.5 114t8 100v25h-426v164h600v-760h-141l-26 233q-48 -121 -167.5 -194.5t-279.5 -73.5q-194 0 -340 99.5t-221.5 271.5t-75.5 391z" />
<glyph unicode="H" horiz-adv-x="1531" d="M205 0v1454h194v-629h734v629h194v-1454h-194v662h-734v-662h-194z" />
<glyph unicode="I" horiz-adv-x="604" d="M205 0v1454h194v-1454h-194z" />
<glyph unicode="J" horiz-adv-x="806" d="M41 -20v180q57 -10 172 -10q39 0 69.5 6t60.5 22t50 43t32.5 71t12.5 103v1059h195v-1073q0 -95 -23.5 -168.5t-62.5 -119.5t-94.5 -75.5t-114 -41t-127.5 -11.5q-116 0 -170 15z" />
<glyph unicode="K" horiz-adv-x="1368" d="M205 0v1454h194v-721l639 721h244l-522 -569l-12 -13l579 -872h-227l-486 733l-215 -237v-496h-194z" />
<glyph unicode="L" horiz-adv-x="1112" d="M205 0v1454h194v-1290h672v-164h-866z" />
<glyph unicode="M" horiz-adv-x="1810" d="M205 0v1454h276l385 -1118q29 -83 37 -137h4q8 54 37 137l385 1118h277v-1454h-179v1122q0 86 9 156h-9q-11 -78 -43 -166l-385 -1112h-188l-385 1112q-32 88 -43 166h-8q8 -63 8 -156v-1122h-178z" />
<glyph unicode="N" horiz-adv-x="1523" d="M205 0v1454h235l617 -1059q59 -103 90 -186h4q-6 77 -6 192v1053h174v-1454h-236l-616 1059q-65 114 -90 186h-4q6 -77 6 -192v-1053h-174z" />
<glyph unicode="O" d="M92 727q0 354 181 558t485 204q303 0 483 -204t180 -558q0 -351 -180.5 -556.5t-482.5 -205.5q-303 0 -484.5 207t-181.5 555zM297 727q0 -276 122 -437t339 -161t338 159t121 439q0 281 -121 439.5t-338 158.5q-218 0 -339.5 -158.5t-121.5 -439.5z" />
<glyph unicode="P" horiz-adv-x="1255" d="M205 0v1454h516q226 0 359.5 -116.5t133.5 -313.5t-133.5 -313.5t-359.5 -116.5h-322v-594h-194zM399 758h301q141 0 225.5 72.5t84.5 193.5t-84.5 193.5t-225.5 72.5h-301v-532z" />
<glyph unicode="Q" d="M92 727q0 354 181 558t485 204q303 0 483 -204t180 -558q0 -271 -109 -458t-304 -261q31 -36 64.5 -58.5t68 -32t59 -12.5t57.5 -3q44 0 105 14v-170q-98 -12 -139 -12q-137 0 -236.5 62.5t-150.5 172.5q-50 -4 -78 -4q-303 0 -484.5 207t-181.5 555zM297 727 q0 -276 122 -437t339 -161t338 159t121 439q0 281 -121 439.5t-338 158.5q-218 0 -339.5 -158.5t-121.5 -439.5z" />
<glyph unicode="R" horiz-adv-x="1361" d="M205 0v1454h538q93 0 168 -16.5t126.5 -47t89 -69.5t58.5 -88t30.5 -99t9.5 -106q0 -65 -17.5 -124.5t-54.5 -114.5t-102.5 -96.5t-153.5 -61.5l373 -631h-219l-357 604h-295v-604h-194zM399 768h322q159 0 229 70.5t70 189.5q0 262 -299 262h-322v-522z" />
<glyph unicode="S" horiz-adv-x="1257" d="M61 432l197 29q11 -70 37.5 -128t72.5 -106t118 -75t165 -27q62 0 117.5 13.5t103 42t75.5 78.5t28 116q0 121 -68 177t-209 85l-211 43q-82 17 -145 46.5t-114 76t-78 117t-27 161.5q0 184 137.5 296t368.5 112q227 0 372 -104t166 -310l-194 -41q-39 301 -348 301 q-135 0 -218 -63t-83 -172q0 -105 57 -164t180 -86l213 -45q90 -19 158.5 -48t126 -76t87.5 -119.5t30 -168.5q0 -86 -33 -162t-96 -136t-167 -95t-235 -35q-267 0 -415.5 128.5t-168.5 338.5z" />
<glyph unicode="T" horiz-adv-x="1148" d="M20 1290v164h1108v-164h-456v-1290h-195v1290h-457z" />
<glyph unicode="U" horiz-adv-x="1466" d="M174 508v946h195v-934q0 -178 95 -280.5t269 -102.5t269.5 103t95.5 280v934h194v-946q0 -248 -147 -395.5t-412 -147.5t-412 147.5t-147 395.5z" />
<glyph unicode="V" horiz-adv-x="1241" d="M10 1454h205l348 -1069q36 -107 53 -197h9q17 90 53 197l348 1069h205l-504 -1454h-213z" />
<glyph unicode="W" horiz-adv-x="1867" d="M51 1454h199l252 -1171q9 -43 12 -80h6q2 17 17 80l299 1171h196l299 -1171q15 -63 17 -80h6q3 37 12 80l252 1171h199l-347 -1454h-237l-283 1135q-10 42 -12 67h-8q-2 -25 -12 -67l-283 -1135h-238z" />
<glyph unicode="X" horiz-adv-x="1310" d="M31 0l508 768l-461 686h227l305 -477q36 -58 47 -86h5q10 27 47 84l303 479h215l-457 -702l510 -752h-229l-332 516q-8 13 -20.5 32t-17 25.5t-11 17.5t-10.5 19.5t-9 20.5h-4q-18 -42 -67 -115l-330 -516h-219z" />
<glyph unicode="Y" horiz-adv-x="1183" d="M0 1454h217l334 -616q31 -61 39 -84h4q8 23 39 84l334 616h217l-494 -874v-580h-196v580z" />
<glyph unicode="Z" horiz-adv-x="1165" d="M72 0v180l817 1110h-791v164h998v-180l-820 -1110h848v-164h-1052z" />
<glyph unicode="[" horiz-adv-x="681" d="M205 -233v1783h395v-143h-240v-1497h240v-143h-395z" />
<glyph unicode="\" horiz-adv-x="923" d="M92 1556h162l577 -1796h-161z" />
<glyph unicode="]" horiz-adv-x="681" d="M82 -90h240v1497h-240v143h395v-1783h-395v143z" />
<glyph unicode="^" horiz-adv-x="819" d="M41 915l295 537h147l295 -537h-168l-200 390l-201 -390h-168z" />
<glyph unicode="_" horiz-adv-x="874" d="M0 -199h874v-123h-874v123z" />
<glyph unicode="`" horiz-adv-x="1228" d="M98 1481h213l189 -293h-160z" />
<glyph unicode="a" horiz-adv-x="1103" d="M92 276q0 77 37.5 140.5t106.5 101.5q113 56 344 84l190 23v16q0 140 -53 202t-172 62q-105 0 -166.5 -53.5t-67.5 -149.5h-186q11 157 124.5 252t293.5 95q211 0 307 -101t96 -325v-277q0 -234 35 -346h-182q-14 94 -17 186q-35 -98 -126.5 -154.5t-217.5 -56.5 q-157 0 -251.5 82.5t-94.5 218.5zM276 281q0 -75 53.5 -118.5t147.5 -43.5q134 0 214.5 89t80.5 238v52l-278 -41q-114 -17 -166 -59t-52 -117z" />
<glyph unicode="b" horiz-adv-x="1198" d="M195 0v1485h174v-639q42 91 126 147t199 56q186 0 299 -150t113 -387q0 -240 -115.5 -388.5t-306.5 -148.5q-114 0 -199.5 54.5t-126.5 146.5l-30 -176h-133zM365 481q0 -162 72 -257t200 -95q133 0 209 103.5t76 279.5q0 175 -74.5 279t-208.5 104q-129 0 -201.5 -96 t-72.5 -264v-54z" />
<glyph unicode="c" horiz-adv-x="1077" d="M92 512q0 250 126 393.5t345 143.5q180 0 291 -98t131 -275l-178 -21q-13 116 -78 179t-170 63q-132 0 -207.5 -101.5t-75.5 -281.5q0 -184 76 -285.5t213 -101.5q104 0 168 62t84 182l166 -27q-28 -175 -138 -272t-282 -97q-215 0 -343 145.5t-128 391.5z" />
<glyph unicode="d" horiz-adv-x="1198" d="M92 512q0 236 122 386.5t314 150.5q204 0 301 -177v613h175v-1485h-164v190q-96 -215 -332 -215q-186 0 -301 148t-115 389zM276 512q0 -180 74 -281.5t205 -101.5q128 0 203.5 97t75.5 261v48q0 167 -75 263.5t-204 96.5q-131 0 -205 -101t-74 -282z" />
<glyph unicode="e" horiz-adv-x="1095" d="M92 500q0 257 123 403t342 146q209 0 322.5 -118.5t113.5 -346.5v-123h-727q1 -151 84.5 -241.5t220.5 -90.5q98 0 168.5 50.5t104.5 144.5l143 -64q-54 -139 -163.5 -212t-264.5 -73q-221 0 -344 136.5t-123 388.5zM266 602h551v23q0 140 -68.5 213t-195.5 73 q-134 0 -209 -81.5t-78 -227.5z" />
<glyph unicode="f" horiz-adv-x="710" d="M41 881v143h188v162q0 140 81.5 225.5t217.5 85.5q76 0 131 -14v-150q-62 10 -108 10q-78 0 -113 -44t-35 -138v-137h256v-143h-256v-881h-174v881h-188z" />
<glyph unicode="g" horiz-adv-x="1075" d="M61 -143q0 74 43 130.5t123 82.5q-118 54 -118 178q0 74 39 126.5t106 78.5q-100 95 -100 249q0 153 101.5 250t276.5 97q110 0 201 -43q25 84 86 135t158 51q36 0 67 -8v-152q-40 8 -73 8q-118 0 -154 -96q94 -94 94 -242q0 -153 -102 -251.5t-277 -98.5q-108 0 -196 43 q-74 -31 -74 -100q0 -47 40.5 -76t129.5 -29h250q172 0 260 -74.5t88 -213.5q0 -152 -125.5 -239t-382.5 -87q-105 0 -186 15.5t-132 41.5t-84 63t-46 76t-13 85zM231 -113q0 -168 312 -168q90 0 153.5 13t97 37.5t48 53.5t14.5 66q0 148 -213 148h-217q-32 0 -86 4 q-54 -24 -81.5 -65t-27.5 -89zM317 702q0 -95 59 -156t156 -61t156.5 60t59.5 155t-59.5 155t-156.5 60t-156 -59t-59 -154z" />
<glyph unicode="h" horiz-adv-x="1196" d="M195 0v1485h174v-654q93 222 336 222q166 0 251.5 -106t85.5 -310v-637h-174v625q0 135 -56.5 204.5t-166.5 69.5q-132 0 -204 -95.5t-72 -268.5v-535h-174z" />
<glyph unicode="i" horiz-adv-x="542" d="M172 1214v220h199v-220h-199zM184 0v1024h174v-1024h-174z" />
<glyph unicode="j" horiz-adv-x="538" d="M-31 -252q59 -4 101 -4q60 0 85 36t25 136v1108h174v-1126q0 -312 -260 -312q-75 0 -125 13v149zM168 1214v220h199v-220h-199z" />
<glyph unicode="k" horiz-adv-x="1110" d="M195 0v1485h174v-965l458 504h228l-375 -395l399 -629h-215l-309 502l-186 -189v-313h-174z" />
<glyph unicode="l" horiz-adv-x="563" d="M195 0v1485h174v-1485h-174z" />
<glyph unicode="m" horiz-adv-x="1708" d="M184 0v1024h164v-178q86 207 293 207q106 0 181 -54t110 -155q102 209 311 209q148 0 229.5 -100.5t81.5 -280.5v-672h-174v657q0 242 -194 242q-109 0 -169.5 -77t-60.5 -216v-606h-174v666q0 112 -50 172.5t-142 60.5q-107 0 -169.5 -81t-62.5 -220v-598h-174z" />
<glyph unicode="n" horiz-adv-x="1185" d="M184 0v1024h164v-203q101 232 342 232q169 0 255.5 -105.5t86.5 -310.5v-637h-174v627q0 272 -225 272q-128 0 -201.5 -97t-73.5 -267v-535h-174z" />
<glyph unicode="o" horiz-adv-x="1138" d="M92 512q0 249 129.5 393t347.5 144t348 -144t130 -393t-130 -393t-348 -144t-347.5 144t-129.5 393zM276 512q0 -188 76.5 -286.5t216.5 -98.5t216.5 98.5t76.5 286.5t-76.5 286.5t-216.5 98.5t-216.5 -98.5t-76.5 -286.5z" />
<glyph unicode="p" horiz-adv-x="1187" d="M184 -399v1423h164v-190q49 105 135 160t199 55q186 0 300 -147t114 -390q0 -244 -118 -390.5t-306 -146.5q-113 0 -195.5 53.5t-118.5 133.5v-561h-174zM354 489q0 -166 74.5 -263t202.5 -97q131 0 205.5 101.5t74.5 281.5q0 181 -72.5 282t-201.5 101 q-130 0 -206.5 -95.5t-76.5 -260.5v-50z" />
<glyph unicode="q" horiz-adv-x="1187" d="M92 512q0 242 123 389.5t313 147.5q213 0 310 -187l39 162h127v-1423h-175v575q-42 -93 -124 -147t-193 -54q-188 0 -304 146.5t-116 390.5zM276 512q0 -179 73.5 -281t205.5 -102q127 0 203 94.5t76 257.5v58q0 162 -75.5 259t-203.5 97q-130 0 -204.5 -100.5 t-74.5 -282.5z" />
<glyph unicode="r" horiz-adv-x="735" d="M184 0v1024h162v-233q39 115 119.5 186.5t191.5 71.5q25 0 37 -2v-170h-8q-145 0 -225 -80q-35 -35 -57 -78t-31.5 -94.5t-12 -90.5t-2.5 -96v-438h-174z" />
<glyph unicode="s" horiz-adv-x="1011" d="M82 315l176 31q20 -112 90 -169.5t184 -57.5q102 0 157.5 40.5t55.5 112.5q0 76 -39.5 113.5t-123.5 46.5l-166 19q-148 17 -223.5 94.5t-75.5 199.5q0 140 104 222t285 82q174 0 285.5 -85t128.5 -227l-172 -39q-18 96 -81.5 152.5t-164.5 56.5q-102 0 -158.5 -40 t-56.5 -113q0 -136 184 -156l164 -18q283 -32 283 -291q0 -147 -103.5 -230.5t-290.5 -83.5q-184 0 -299 88t-143 252z" />
<glyph unicode="t" horiz-adv-x="722" d="M31 881v143h190v268l174 74v-342h256v-143h-256v-568q0 -88 36 -128t114 -40q40 0 106 15v-160q-67 -18 -151 -18q-81 0 -136.5 23.5t-86 68.5t-43.5 101t-13 132v574h-190z" />
<glyph unicode="u" horiz-adv-x="1169" d="M154 371v653h174v-633q0 -129 54 -197.5t155 -68.5q123 0 198.5 95.5t75.5 252.5v551h174v-1024h-164v193q-36 -95 -123.5 -156.5t-193.5 -61.5q-185 0 -267.5 103t-82.5 293z" />
<glyph unicode="v" horiz-adv-x="968" d="M20 1024h189l229 -690q28 -86 43 -156h6q15 70 43 156l230 690h188l-370 -1024h-187z" />
<glyph unicode="w" horiz-adv-x="1499" d="M51 1024h180l185 -731q13 -61 22 -121h4q4 24 15 70t12 51l186 731h189l186 -731q1 -5 12 -51t15 -70h4q9 60 22 121l185 731h180l-289 -1024h-190l-195 737q-15 63 -22 115h-4q-6 -43 -23 -115l-195 -737h-190z" />
<glyph unicode="x" horiz-adv-x="1013" d="M31 0l370 528l-344 496h205l187 -289q50 -78 59 -106h2q14 36 57 106l176 289h213l-338 -508l365 -516h-207l-211 315q-49 73 -57 105h-2q-8 -27 -60 -105l-208 -315h-207z" />
<glyph unicode="y" horiz-adv-x="997" d="M20 1024h195l262 -713q24 -68 35 -121h4q6 28 35 121l237 713h189l-399 -1090q-68 -188 -162 -267t-228 -79q-44 0 -94 9v153q54 -4 74 -4q91 0 144 44.5t89 146.5l27 75z" />
<glyph unicode="z" horiz-adv-x="931" d="M72 0v133l559 744h-539v147h748v-129l-553 -745h583v-150h-798z" />
<glyph unicode="{" horiz-adv-x="724" d="M123 604v139q40 1 66.5 12t41.5 26.5t22.5 46.5t9 58t1.5 75v327q0 129 85.5 210t234.5 81h53v-125h-33q-86 0 -131 -51.5t-45 -136.5v-285q0 -57 -6 -101t-21 -86.5t-45.5 -72t-74.5 -45.5q84 -35 114.5 -117.5t30.5 -202.5v-282q0 -86 44 -136.5t122 -50.5h51v-125h-92 q-131 0 -208 80t-77 209v328q0 45 -2 72.5t-9.5 59.5t-22.5 49.5t-42.5 30t-66.5 13.5z" />
<glyph unicode="|" horiz-adv-x="536" d="M195 -240v1796h147v-1796h-147z" />
<glyph unicode="}" horiz-adv-x="724" d="M82 -113h51q78 0 122 50.5t44 136.5v282q0 120 30.5 202.5t114.5 117.5q-44 16 -74.5 45.5t-45.5 72t-21 86.5t-6 101v285q0 85 -45 136.5t-131 51.5h-33v125h53q149 0 234.5 -81t85.5 -210v-327q0 -48 1.5 -75t9 -58t22.5 -46.5t41.5 -26.5t66.5 -12v-139 q-39 -1 -66.5 -13.5t-42.5 -30t-22.5 -49.5t-9.5 -59.5t-2 -72.5v-328q0 -129 -77 -209t-208 -80h-92v125z" />
<glyph unicode="~" horiz-adv-x="1269" d="M135 532q29 126 108 195.5t193 69.5q64 0 124.5 -25.5t99.5 -55.5t86.5 -55.5t89.5 -25.5q114 0 155 139l144 -24q-29 -126 -108 -195.5t-193 -69.5q-64 0 -124.5 25.5t-99.5 55.5t-86.5 55.5t-89.5 25.5q-114 0 -155 -139z" />
<glyph unicode="&#xa1;" horiz-adv-x="634" d="M205 -297l51 1112h123l51 -1112h-225zM209 971v217h217v-217h-217z" />
<glyph unicode="&#xa2;" horiz-adv-x="1124" d="M92 514q0 231 110.5 369t313.5 161v173h123v-170q165 -10 269.5 -103t123.5 -246l-168 -22q-35 199 -225 223v-776q97 10 156 68t73 153l162 -31q-29 -150 -130.5 -237t-260.5 -99v-159h-123v162q-199 22 -311.5 163t-112.5 371zM268 516q0 -165 64.5 -266.5 t183.5 -124.5v772q-119 -22 -183.5 -121t-64.5 -260z" />
<glyph unicode="&#xa3;" horiz-adv-x="1243" d="M41 113q291 98 291 381q0 83 -15 186h-225v129h199q-27 135 -27 217q0 196 116 312t318 116q169 0 276.5 -78.5t145.5 -230.5l-180 -45q-50 200 -244 200q-237 0 -237 -268q0 -93 26 -223h392v-129h-369q12 -68 12 -150q0 -133 -49.5 -222t-155.5 -146q57 14 152 14 q75 0 195.5 -17.5t195.5 -17.5q83 0 136 54.5t65 154.5l164 -33q-23 -163 -119.5 -255.5t-243.5 -92.5q-88 0 -224 27t-243 27q-151 0 -313 -39z" />
<glyph unicode="&#xa4;" horiz-adv-x="1122" d="M92 195l119 129q-96 126 -96 297q0 173 96 299l-119 129l82 73l119 -125q116 86 276 86q152 0 267 -79l112 120l82 -73l-112 -123q104 -126 104 -307q0 -180 -100 -304l108 -120l-82 -74l-108 117q-119 -82 -271 -82q-158 0 -280 88l-115 -125zM274 621q0 -139 83 -228.5 t212 -89.5t211 89t82 229t-82 228.5t-211 88.5t-212 -89t-83 -228z" />
<glyph unicode="&#xa5;" horiz-adv-x="1075" d="M0 1423h207l229 -399q67 -113 99 -195h6q35 87 98 195l229 399h207l-436 -725h350v-123h-358v-98h358v-123h-358v-354h-187v354h-358v123h358v98h-358v123h350z" />
<glyph unicode="&#xa6;" horiz-adv-x="534" d="M195 -240v775h145v-775h-145zM195 782v774h145v-774h-145z" />
<glyph unicode="&#xa7;" horiz-adv-x="1028" d="M61 156l160 30q44 -206 287 -206q107 0 165 43t58 122q0 63 -36.5 102t-131.5 77l-229 92q-140 57 -202 130.5t-62 182.5q0 141 120 211q-86 80 -86 209q0 143 108 229t286 86q167 0 273 -78.5t126 -218.5l-172 -41q-10 96 -70.5 146.5t-165.5 50.5q-98 0 -155.5 -42 t-57.5 -114q0 -70 41.5 -109t169.5 -89l215 -82q125 -47 184.5 -123.5t59.5 -188.5q0 -142 -108 -227q67 -79 67 -190q0 -152 -108 -238t-299 -86q-187 0 -300.5 83.5t-136.5 238.5zM240 758q0 -41 9.5 -67t41 -53.5t81 -52t140.5 -61.5l147 -59q40 -16 80 -39q39 53 39 117 q0 78 -49 124t-194 105l-197 80q-20 8 -49 22q-49 -49 -49 -116z" />
<glyph unicode="&#xa8;" horiz-adv-x="1228" d="M102 1221v211h199v-211h-199zM518 1221v211h199v-211h-199z" />
<glyph unicode="&#xa9;" horiz-adv-x="1712" d="M92 727q0 138 39.5 259.5t110.5 212.5t166 157t209.5 99.5t238.5 33.5t238.5 -33.5t209.5 -99.5t166 -157t110.5 -212.5t39.5 -259.5q0 -171 -61 -316t-165.5 -241.5t-243.5 -150.5t-294 -54t-294 54t-243.5 150.5t-165.5 241.5t-61 316zM199 727q0 -151 52.5 -277.5 t142.5 -210.5t209.5 -131t252.5 -47t252.5 47t209.5 131t142.5 210.5t52.5 277.5t-52.5 278t-142.5 211t-209 130.5t-253 46.5t-253 -46.5t-209 -130.5t-142.5 -211t-52.5 -278zM477 725q0 199 103 318.5t280 119.5q139 0 229.5 -77t96.5 -199l-142 -17q-9 78 -57.5 124 t-130.5 46q-109 0 -172 -85.5t-63 -229.5q0 -142 63.5 -226.5t175.5 -84.5q75 0 126.5 46.5t62.5 121.5l141 -21q-20 -122 -111 -196t-219 -74q-177 0 -280 117t-103 317z" />
<glyph unicode="&#xaa;" horiz-adv-x="894" d="M88 834q0 47 16 83t43 60t70 42t88.5 28t106.5 18l190 25v18q0 97 -38.5 139.5t-123.5 42.5q-79 0 -123 -37.5t-47 -109.5h-159q7 121 94.5 189.5t234.5 68.5q166 0 242 -74t76 -235v-215q0 -156 22 -242h-155q-10 71 -13 143q-28 -76 -98.5 -119t-167.5 -43 q-116 0 -187 60.5t-71 157.5zM248 844q0 -54 40 -86.5t107 -32.5q96 0 153.5 59.5t57.5 155.5v64l-184 -27q-174 -23 -174 -133z" />
<glyph unicode="&#xab;" horiz-adv-x="1030" d="M61 563l351 426h184l-338 -426l338 -426h-184zM455 563l350 426h184l-338 -426l338 -426h-184z" />
<glyph unicode="&#xac;" horiz-adv-x="1269" d="M137 602v164h953v-498h-164v334h-789z" />
<glyph unicode="&#xad;" horiz-adv-x="796" d="M102 487v164h592v-164h-592z" />
<glyph unicode="&#xae;" horiz-adv-x="1712" d="M92 727q0 138 39.5 259.5t110.5 212.5t166 157t209.5 99.5t238.5 33.5t238.5 -33.5t209.5 -99.5t166 -157t110.5 -212.5t39.5 -259.5q0 -171 -61 -316t-165.5 -241.5t-243.5 -150.5t-294 -54t-294 54t-243.5 150.5t-165.5 241.5t-61 316zM199 727q0 -151 52.5 -277.5 t142.5 -210.5t209.5 -131t252.5 -47t252.5 47t209.5 131t142.5 210.5t52.5 277.5t-52.5 278t-142.5 211t-209 130.5t-253 46.5t-253 -46.5t-209 -130.5t-142.5 -211t-52.5 -278zM586 319v832h291q139 0 213.5 -62t74.5 -178q0 -83 -46 -143t-130 -88l209 -361h-156l-188 351 h-133v-351h-135zM721 786h156q75 0 115 32.5t40 92.5q0 125 -155 125h-156v-250z" />
<glyph unicode="&#xaf;" horiz-adv-x="1228" d="M102 1255v140h611v-140h-611z" />
<glyph unicode="&#xb0;" horiz-adv-x="839" d="M59 1110q0 161 103 259.5t258 98.5t257.5 -98.5t102.5 -259.5t-102.5 -259.5t-257.5 -98.5t-258 98.5t-103 259.5zM221 1110q0 -92 56 -149.5t143 -57.5t142.5 57.5t55.5 149.5q0 93 -55.5 150t-142.5 57t-143 -57t-56 -150z" />
<glyph unicode="&#xb1;" horiz-adv-x="1269" d="M154 0v164h962v-164h-962zM154 598v150h391v329h174v-329h397v-150h-397v-328h-174v328h-391z" />
<glyph unicode="&#xb4;" horiz-adv-x="1228" d="M98 1188l189 293h213l-242 -293h-160z" />
<glyph unicode="&#xb5;" horiz-adv-x="1200" d="M184 -399v1423h174v-633q0 -129 54 -197.5t155 -68.5q123 0 199 96t76 252v551h174v-1024h-164v193q-36 -95 -123.5 -156.5t-193.5 -61.5q-116 0 -197 43v-417h-154z" />
<glyph unicode="&#xb6;" horiz-adv-x="1345" d="M92 1104q0 101 39.5 175t109 115.5t152.5 61t182 19.5h648v-117h-203v-1563h-133v1563h-189v-1563h-133v944q-77 0 -142 9.5t-127.5 35t-106.5 66t-70.5 105.5t-26.5 149z" />
<glyph unicode="&#xb7;" horiz-adv-x="526" d="M143 575v242h240v-242h-240z" />
<glyph unicode="&#xb8;" horiz-adv-x="1228" d="M102 -279l117 21q9 -26 32 -41.5t54 -15.5q38 0 63 23.5t25 60.5q0 38 -23 61t-61 23q-41 0 -69 -31l-80 24l88 168h108l-71 -114q27 24 88 24q69 0 110 -42.5t41 -114.5q0 -78 -59 -126.5t-156 -48.5q-80 0 -134 34t-73 95z" />
<glyph unicode="&#xba;" horiz-adv-x="911" d="M88 1010q0 184 101 287.5t268 103.5q166 0 266 -103.5t100 -287.5q0 -185 -100 -289.5t-266 -104.5q-167 0 -268 104.5t-101 289.5zM244 1010q0 -135 56 -206t157 -71q100 0 155.5 71t55.5 206q0 133 -55.5 203.5t-155.5 70.5q-101 0 -157 -70.5t-56 -203.5z" />
<glyph unicode="&#xbb;" horiz-adv-x="1030" d="M41 137l338 426l-338 426h184l350 -426l-350 -426h-184zM434 137l338 426l-338 426h184l351 -426l-351 -426h-184z" />
<glyph unicode="&#xbc;" horiz-adv-x="1593" d="M55 1186v133h17q151 0 198 137h117v-780h-143v581q-61 -71 -166 -71h-23zM217 -35l883 1524h151l-880 -1524h-154zM866 182v105l383 493h156v-491h127v-107h-127v-182h-141v182h-398zM987 289h277v356z" />
<glyph unicode="&#xbd;" horiz-adv-x="1671" d="M55 1186v133h17q151 0 198 137h117v-780h-143v581q-61 -71 -166 -71h-23zM217 -35l883 1524h151l-880 -1524h-154zM991 0v106q74 44 118 72t103 68t92.5 71.5t67 70t48 77.5t14.5 80q0 67 -36 103t-104 36q-72 0 -111.5 -36t-39.5 -103q0 -22 10 -60l-152 13q-6 27 -6 63 q0 110 81.5 174t223.5 64q135 0 211 -63t76 -177q0 -68 -34.5 -135.5t-94 -124.5t-126 -103t-142.5 -85h414v-111h-613z" />
<glyph unicode="&#xbe;" horiz-adv-x="1806" d="M63 911l148 13q1 -72 45 -113t119 -41q157 0 157 133q0 56 -42 85.5t-121 29.5h-78v104h71q69 0 110.5 32t41.5 85q0 61 -37 94t-106 33q-72 0 -115 -41t-43 -113l-145 13q0 116 83.5 183t227.5 67q135 0 210 -58.5t75 -161.5q0 -68 -48 -117.5t-124 -58.5q90 -9 143 -60 t53 -130q0 -107 -84 -168.5t-229 -61.5q-144 0 -227 67.5t-85 184.5zM430 -35l883 1524h151l-880 -1524h-154zM1079 182v105l383 493h156v-491h127v-107h-127v-182h-141v182h-398zM1200 289h277v356z" />
<glyph unicode="&#xbf;" horiz-adv-x="958" d="M31 88q0 178 192 358l103 97q46 43 65 88.5t19 118.5v57h174v-86q0 -33 -3 -56.5t-13 -59.5t-35.5 -72.5t-65.5 -73.5l-100 -94q-66 -62 -104 -126t-38 -151q0 -113 72 -181.5t184 -68.5q123 0 198 78.5t75 216.5q0 47 -13 109l187 -23q10 -53 10 -110 q0 -194 -118 -312.5t-339 -118.5q-211 0 -330.5 107.5t-119.5 302.5zM387 971v217h215v-217h-215z" />
<glyph unicode="&#xc0;" horiz-adv-x="1376" d="M41 0l551 1454h192l551 -1454h-200l-150 420h-594l-149 -420h-201zM393 1763h193l184 -221h-164zM449 584h479l-203 567q-25 70 -35 111h-4q-10 -41 -35 -111z" />
<glyph unicode="&#xc1;" horiz-adv-x="1376" d="M41 0l551 1454h192l551 -1454h-200l-150 420h-594l-149 -420h-201zM449 584h479l-203 567q-25 70 -35 111h-4q-10 -41 -35 -111zM606 1542l185 221h192l-213 -221h-164z" />
<glyph unicode="&#xc2;" horiz-adv-x="1376" d="M41 0l551 1454h192l551 -1454h-200l-150 420h-594l-149 -420h-201zM381 1542l199 221h217l198 -221h-176l-131 148l-131 -148h-176zM449 584h479l-203 567q-25 70 -35 111h-4q-10 -41 -35 -111z" />
<glyph unicode="&#xc3;" horiz-adv-x="1376" d="M41 0l551 1454h192l551 -1454h-200l-150 420h-594l-149 -420h-201zM342 1561q15 98 72.5 151t148.5 53q44 0 83 -15.5t62 -34.5t53 -34.5t58 -15.5q37 0 60 22.5t36 71.5l119 -22q-15 -98 -72.5 -151.5t-148.5 -53.5q-44 0 -83 15.5t-62 34.5t-53 34.5t-58 15.5 q-37 0 -60 -22.5t-36 -71.5zM449 584h479l-203 567q-25 70 -35 111h-4q-10 -41 -35 -111z" />
<glyph unicode="&#xc4;" horiz-adv-x="1376" d="M41 0l551 1454h192l551 -1454h-200l-150 420h-594l-149 -420h-201zM360 1542v201h199v-201h-199zM449 584h479l-203 567q-25 70 -35 111h-4q-10 -41 -35 -111zM817 1542v201h199v-201h-199z" />
<glyph unicode="&#xc5;" horiz-adv-x="1376" d="M41 0l551 1454h192l551 -1454h-200l-150 420h-594l-149 -420h-201zM449 584h479l-203 567q-25 70 -35 111h-4q-10 -41 -35 -111zM465 1720q0 93 62 151t161 58t161 -58t62 -151t-62 -151t-161 -58t-161 58t-62 151zM582 1720q0 -49 29.5 -79.5t76.5 -30.5t77 30.5 t30 79.5t-30 80t-77 31t-76.5 -31t-29.5 -80z" />
<glyph unicode="&#xc6;" horiz-adv-x="1896" d="M-20 0l849 1454h920v-164h-657v-463h622v-163h-622v-500h671v-164h-866v356h-512l-199 -356h-206zM475 520h422v760z" />
<glyph unicode="&#xc7;" horiz-adv-x="1421" d="M92 731q0 225 74.5 394.5t225.5 266.5t362 97q256 0 401 -137t174 -373l-199 -21q-22 169 -122 267t-265 98q-210 0 -328 -160.5t-118 -429.5q0 -173 50 -306t153.5 -212.5t247.5 -79.5q154 0 258 95t135 259l188 -32q-21 -102 -62 -186t-106 -151.5t-160 -107 t-213 -45.5l-40 -67q27 24 88 24q69 0 110 -42.5t41 -114.5q0 -78 -59 -126.5t-156 -48.5q-80 0 -134 34t-73 95l117 21q9 -26 32 -41.5t54 -15.5q38 0 63 23.5t25 60.5q0 38 -23 61t-61 23q-42 0 -70 -31l-79 24l63 121q-120 9 -218.5 53t-167.5 114t-116 164t-69.5 202.5 t-22.5 230.5z" />
<glyph unicode="&#xc8;" horiz-adv-x="1253" d="M205 0v1454h901v-164h-707v-463h672v-163h-672v-500h721v-164h-915zM332 1763h192l185 -221h-164z" />
<glyph unicode="&#xc9;" horiz-adv-x="1253" d="M205 0v1454h901v-164h-707v-463h672v-163h-672v-500h721v-164h-915zM545 1542l184 221h193l-213 -221h-164z" />
<glyph unicode="&#xca;" horiz-adv-x="1253" d="M205 0v1454h901v-164h-707v-463h672v-163h-672v-500h721v-164h-915zM319 1542l199 221h217l199 -221h-176l-131 148l-131 -148h-177z" />
<glyph unicode="&#xcb;" horiz-adv-x="1253" d="M205 0v1454h901v-164h-707v-463h672v-163h-672v-500h721v-164h-915zM299 1542v201h199v-201h-199zM756 1542v201h198v-201h-198z" />
<glyph unicode="&#xcc;" horiz-adv-x="604" d="M76 1763h180l123 -221h-152zM205 0v1454h194v-1454h-194z" />
<glyph unicode="&#xcd;" horiz-adv-x="604" d="M205 0v1454h194v-1454h-194zM227 1542l123 221h180l-151 -221h-152z" />
<glyph unicode="&#xce;" horiz-adv-x="604" d="M45 1542l150 221h217l149 -221h-168l-90 148l-90 -148h-168zM205 0v1454h194v-1454h-194z" />
<glyph unicode="&#xcf;" horiz-adv-x="604" d="M47 1542v201h199v-201h-199zM205 0v1454h194v-1454h-194zM360 1542v201h199v-201h-199z" />
<glyph unicode="&#xd0;" horiz-adv-x="1464" d="M29 686v148h176v620h477q312 0 501 -200t189 -525q0 -158 -49 -292.5t-138.5 -231t-220 -151t-286.5 -54.5h-473v686h-176zM399 164h275q152 0 265 77t169.5 204t56.5 284q0 250 -129 405.5t-358 155.5h-279v-456h359v-148h-359v-522z" />
<glyph unicode="&#xd1;" horiz-adv-x="1523" d="M205 0v1454h235l617 -1059q59 -103 90 -186h4q-6 77 -6 192v1053h174v-1454h-236l-616 1059q-65 114 -90 186h-4q6 -77 6 -192v-1053h-174zM416 1561q15 98 72.5 151t148.5 53q44 0 83 -15.5t62 -34.5t53 -34.5t58 -15.5q37 0 60 22.5t36 71.5l119 -22 q-15 -98 -72.5 -151.5t-148.5 -53.5q-44 0 -83 15.5t-62 34.5t-53 34.5t-58 15.5q-37 0 -60 -22.5t-36 -71.5z" />
<glyph unicode="&#xd2;" d="M92 727q0 354 181 558t485 204q303 0 483 -204t180 -558q0 -351 -180.5 -556.5t-482.5 -205.5q-303 0 -484.5 207t-181.5 555zM297 727q0 -276 122 -437t339 -161t338 159t121 439q0 281 -121 439.5t-338 158.5q-218 0 -339.5 -158.5t-121.5 -439.5zM463 1763h192 l185 -221h-164z" />
<glyph unicode="&#xd3;" d="M92 727q0 354 181 558t485 204q303 0 483 -204t180 -558q0 -351 -180.5 -556.5t-482.5 -205.5q-303 0 -484.5 207t-181.5 555zM297 727q0 -276 122 -437t339 -161t338 159t121 439q0 281 -121 439.5t-338 158.5q-218 0 -339.5 -158.5t-121.5 -439.5zM676 1542l184 221 h193l-213 -221h-164z" />
<glyph unicode="&#xd4;" d="M92 727q0 354 181 558t485 204q303 0 483 -204t180 -558q0 -351 -180.5 -556.5t-482.5 -205.5q-303 0 -484.5 207t-181.5 555zM297 727q0 -276 122 -437t339 -161t338 159t121 439q0 281 -121 439.5t-338 158.5q-218 0 -339.5 -158.5t-121.5 -439.5zM451 1542l198 221 h217l199 -221h-176l-131 148l-131 -148h-176z" />
<glyph unicode="&#xd5;" d="M92 727q0 354 181 558t485 204q303 0 483 -204t180 -558q0 -351 -180.5 -556.5t-482.5 -205.5q-303 0 -484.5 207t-181.5 555zM297 727q0 -276 122 -437t339 -161t338 159t121 439q0 281 -121 439.5t-338 158.5q-218 0 -339.5 -158.5t-121.5 -439.5zM412 1561 q15 98 72.5 151t148.5 53q44 0 83 -15.5t62 -34.5t53 -34.5t58 -15.5q37 0 60 22.5t36 71.5l119 -22q-15 -98 -72.5 -151.5t-148.5 -53.5q-44 0 -83 15.5t-62 34.5t-53 34.5t-58 15.5q-37 0 -60.5 -22.5t-36.5 -71.5z" />
<glyph unicode="&#xd6;" d="M92 727q0 354 181 558t485 204q303 0 483 -204t180 -558q0 -351 -180.5 -556.5t-482.5 -205.5q-303 0 -484.5 207t-181.5 555zM297 727q0 -276 122 -437t339 -161t338 159t121 439q0 281 -121 439.5t-338 158.5q-218 0 -339.5 -158.5t-121.5 -439.5zM430 1542v201h199 v-201h-199zM887 1542v201h198v-201h-198z" />
<glyph unicode="&#xd7;" horiz-adv-x="1269" d="M137 289l381 381l-381 381l117 116l381 -379l379 379l119 -116l-381 -381l381 -379l-117 -119l-381 381l-381 -381z" />
<glyph unicode="&#xd8;" d="M92 727q0 354 181 558t485 204q239 0 405 -131l92 119l111 -80l-104 -135q159 -201 159 -535q0 -351 -180.5 -556.5t-482.5 -205.5q-239 0 -404 131l-94 -121l-110 80l106 138q-164 207 -164 534zM297 727q0 -222 82 -377l674 864q-117 111 -295 111 q-218 0 -339.5 -158.5t-121.5 -439.5zM465 240q117 -111 293 -111q217 0 338 159t121 439q0 230 -80 375z" />
<glyph unicode="&#xd9;" horiz-adv-x="1466" d="M174 508v946h195v-934q0 -178 95 -280.5t269 -102.5t269.5 103t95.5 280v934h194v-946q0 -248 -147 -395.5t-412 -147.5t-412 147.5t-147 395.5zM438 1763h193l184 -221h-164z" />
<glyph unicode="&#xda;" horiz-adv-x="1466" d="M174 508v946h195v-934q0 -178 95 -280.5t269 -102.5t269.5 103t95.5 280v934h194v-946q0 -248 -147 -395.5t-412 -147.5t-412 147.5t-147 395.5zM651 1542l185 221h192l-213 -221h-164z" />
<glyph unicode="&#xdb;" horiz-adv-x="1466" d="M174 508v946h195v-934q0 -178 95 -280.5t269 -102.5t269.5 103t95.5 280v934h194v-946q0 -248 -147 -395.5t-412 -147.5t-412 147.5t-147 395.5zM426 1542l199 221h217l198 -221h-176l-131 148l-131 -148h-176z" />
<glyph unicode="&#xdc;" horiz-adv-x="1466" d="M174 508v946h195v-934q0 -178 95 -280.5t269 -102.5t269.5 103t95.5 280v934h194v-946q0 -248 -147 -395.5t-412 -147.5t-412 147.5t-147 395.5zM406 1542v201h198v-201h-198zM862 1542v201h199v-201h-199z" />
<glyph unicode="&#xdd;" horiz-adv-x="1183" d="M0 1454h217l334 -616q31 -61 39 -84h4q8 23 39 84l334 616h217l-494 -874v-580h-196v580zM510 1542l184 221h193l-213 -221h-164z" />
<glyph unicode="&#xde;" horiz-adv-x="1175" d="M205 0v1454h194v-291h283q209 0 331 -107.5t122 -291.5q0 -178 -125 -288.5t-328 -110.5h-283v-365h-194zM399 528h271q116 0 187 65t71 171q0 107 -70 171t-188 64h-271v-471z" />
<glyph unicode="&#xdf;" horiz-adv-x="1155" d="M174 0v1079q0 204 111 317t309 113q185 0 290 -87t105 -251q0 -143 -76 -234t-211 -108q188 -19 284.5 -118.5t96.5 -274.5q0 -215 -128 -330.5t-367 -115.5q-60 0 -113 6v145q53 -6 107 -6q155 0 236 76.5t81 224.5q0 294 -364 309h-82v148h82q133 7 201.5 74t68.5 190 q0 101 -59.5 158t-163.5 57q-234 0 -234 -297v-1075h-174z" />
<glyph unicode="&#xe0;" horiz-adv-x="1103" d="M92 276q0 77 37.5 140.5t106.5 101.5q113 56 344 84l190 23v16q0 140 -53 202t-172 62q-105 0 -166.5 -53.5t-67.5 -149.5h-186q11 157 124.5 252t293.5 95q211 0 307 -101t96 -325v-277q0 -234 35 -346h-182q-14 94 -17 186q-35 -98 -126.5 -154.5t-217.5 -56.5 q-157 0 -251.5 82.5t-94.5 218.5zM221 1481h213l189 -293h-160zM276 281q0 -75 53.5 -118.5t147.5 -43.5q134 0 214.5 89t80.5 238v52l-278 -41q-114 -17 -166 -59t-52 -117z" />
<glyph unicode="&#xe1;" horiz-adv-x="1103" d="M92 276q0 77 37.5 140.5t106.5 101.5q113 56 344 84l190 23v16q0 140 -53 202t-172 62q-105 0 -166.5 -53.5t-67.5 -149.5h-186q11 157 124.5 252t293.5 95q211 0 307 -101t96 -325v-277q0 -234 35 -346h-182q-14 94 -17 186q-35 -98 -126.5 -154.5t-217.5 -56.5 q-157 0 -251.5 82.5t-94.5 218.5zM276 281q0 -75 53.5 -118.5t147.5 -43.5q134 0 214.5 89t80.5 238v52l-278 -41q-114 -17 -166 -59t-52 -117zM471 1188l188 293h213l-241 -293h-160z" />
<glyph unicode="&#xe2;" horiz-adv-x="1103" d="M92 276q0 77 37.5 140.5t106.5 101.5q113 56 344 84l190 23v16q0 140 -53 202t-172 62q-105 0 -166.5 -53.5t-67.5 -149.5h-186q11 157 124.5 252t293.5 95q211 0 307 -101t96 -325v-277q0 -234 35 -346h-182q-14 94 -17 186q-35 -98 -126.5 -154.5t-217.5 -56.5 q-157 0 -251.5 82.5t-94.5 218.5zM236 1188l221 293h180l221 -293h-162l-149 205l-150 -205h-161zM276 281q0 -75 53.5 -118.5t147.5 -43.5q134 0 214.5 89t80.5 238v52l-278 -41q-114 -17 -166 -59t-52 -117z" />
<glyph unicode="&#xe3;" horiz-adv-x="1103" d="M92 276q0 77 37.5 140.5t106.5 101.5q113 56 344 84l190 23v16q0 140 -53 202t-172 62q-105 0 -166.5 -53.5t-67.5 -149.5h-186q11 157 124.5 252t293.5 95q211 0 307 -101t96 -325v-277q0 -234 35 -346h-182q-14 94 -17 186q-35 -98 -126.5 -154.5t-217.5 -56.5 q-157 0 -251.5 82.5t-94.5 218.5zM174 1243q18 110 76.5 172t150.5 62q51 0 96 -21.5t71.5 -46.5t61.5 -46.5t68 -21.5q40 0 64 27.5t39 89.5l119 -22q-15 -110 -75 -172t-153 -62q-51 0 -96 21t-72 46.5t-61.5 46.5t-67.5 21q-39 0 -63 -27.5t-39 -88.5zM276 281 q0 -75 53.5 -118.5t147.5 -43.5q134 0 214.5 89t80.5 238v52l-278 -41q-114 -17 -166 -59t-52 -117z" />
<glyph unicode="&#xe4;" horiz-adv-x="1103" d="M92 276q0 77 37.5 140.5t106.5 101.5q113 56 344 84l190 23v16q0 140 -53 202t-172 62q-105 0 -166.5 -53.5t-67.5 -149.5h-186q11 157 124.5 252t293.5 95q211 0 307 -101t96 -325v-277q0 -234 35 -346h-182q-14 94 -17 186q-35 -98 -126.5 -154.5t-217.5 -56.5 q-157 0 -251.5 82.5t-94.5 218.5zM240 1221v211h198v-211h-198zM276 281q0 -75 53.5 -118.5t147.5 -43.5q134 0 214.5 89t80.5 238v52l-278 -41q-114 -17 -166 -59t-52 -117zM655 1221v211h199v-211h-199z" />
<glyph unicode="&#xe5;" horiz-adv-x="1103" d="M92 276q0 77 37.5 140.5t106.5 101.5q113 56 344 84l190 23v16q0 140 -53 202t-172 62q-105 0 -166.5 -53.5t-67.5 -149.5h-186q11 157 124.5 252t293.5 95q211 0 307 -101t96 -325v-277q0 -234 35 -346h-182q-14 94 -17 186q-35 -98 -126.5 -154.5t-217.5 -56.5 q-157 0 -251.5 82.5t-94.5 218.5zM276 281q0 -75 53.5 -118.5t147.5 -43.5q134 0 214.5 89t80.5 238v52l-278 -41q-114 -17 -166 -59t-52 -117zM324 1348q0 92 61.5 150t161.5 58t161.5 -58t61.5 -150q0 -93 -62 -151t-161 -58t-161 58t-62 151zM440 1348q0 -49 30 -80 t77 -31t76.5 31t29.5 80t-29.5 79.5t-76.5 30.5t-77 -30.5t-30 -79.5z" />
<glyph unicode="&#xe6;" horiz-adv-x="1722" d="M92 268q0 129 91 209.5t274 100.5l301 30v33q0 133 -57.5 197.5t-174.5 64.5q-104 0 -162 -52t-63 -149h-178q12 164 117 255.5t288 91.5q242 0 334 -170q110 170 342 170q198 0 307 -130t109 -364v-92h-686q2 -151 80 -242.5t205 -91.5q91 0 155.5 50.5t95.5 144.5 l144 -64q-51 -139 -155.5 -212t-252.5 -73q-276 0 -379 240q-50 -118 -153.5 -179t-241.5 -61q-155 0 -247.5 78.5t-92.5 214.5zM276 266q0 -65 53 -106t136 -41q53 0 102.5 17t94 53t71.5 102t27 155v33l-252 -28q-126 -15 -179 -58.5t-53 -126.5zM934 604h506 q3 142 -60 224.5t-176 82.5q-116 0 -191 -82.5t-79 -224.5z" />
<glyph unicode="&#xe7;" horiz-adv-x="1077" d="M92 512q0 250 126 393.5t345 143.5q180 0 291 -98t131 -275l-178 -21q-13 116 -78 179t-170 63q-132 0 -207.5 -101.5t-75.5 -281.5q0 -184 76 -285.5t213 -101.5q104 0 168 62t84 182l166 -27q-26 -162 -122.5 -258t-246.5 -109l-49 -77q27 24 88 24q69 0 110.5 -42.5 t41.5 -114.5q0 -78 -59 -126.5t-156 -48.5q-80 0 -134 34t-73 95l117 21q9 -26 32 -41.5t54 -15.5q38 0 63 23.5t25 60.5q0 38 -23 61t-61 23q-42 0 -70 -31l-80 24l70 131q-193 19 -305.5 162.5t-112.5 372.5z" />
<glyph unicode="&#xe8;" horiz-adv-x="1095" d="M92 500q0 257 123 403t342 146q209 0 322.5 -118.5t113.5 -346.5v-123h-727q1 -151 84.5 -241.5t220.5 -90.5q98 0 168.5 50.5t104.5 144.5l143 -64q-54 -139 -163.5 -212t-264.5 -73q-221 0 -344 136.5t-123 388.5zM217 1481h213l188 -293h-159zM266 602h551v23 q0 140 -68.5 213t-195.5 73q-134 0 -209 -81.5t-78 -227.5z" />
<glyph unicode="&#xe9;" horiz-adv-x="1095" d="M92 500q0 257 123 403t342 146q209 0 322.5 -118.5t113.5 -346.5v-123h-727q1 -151 84.5 -241.5t220.5 -90.5q98 0 168.5 50.5t104.5 144.5l143 -64q-54 -139 -163.5 -212t-264.5 -73q-221 0 -344 136.5t-123 388.5zM266 602h551v23q0 140 -68.5 213t-195.5 73 q-134 0 -209 -81.5t-78 -227.5zM467 1188l188 293h213l-241 -293h-160z" />
<glyph unicode="&#xea;" horiz-adv-x="1095" d="M92 500q0 257 123 403t342 146q209 0 322.5 -118.5t113.5 -346.5v-123h-727q1 -151 84.5 -241.5t220.5 -90.5q98 0 168.5 50.5t104.5 144.5l143 -64q-54 -139 -163.5 -212t-264.5 -73q-221 0 -344 136.5t-123 388.5zM231 1188l222 293h180l221 -293h-162l-149 205 l-150 -205h-162zM266 602h551v23q0 140 -68.5 213t-195.5 73q-134 0 -209 -81.5t-78 -227.5z" />
<glyph unicode="&#xeb;" horiz-adv-x="1095" d="M92 500q0 257 123 403t342 146q209 0 322.5 -118.5t113.5 -346.5v-123h-727q1 -151 84.5 -241.5t220.5 -90.5q98 0 168.5 50.5t104.5 144.5l143 -64q-54 -139 -163.5 -212t-264.5 -73q-221 0 -344 136.5t-123 388.5zM236 1221v211h198v-211h-198zM266 602h551v23 q0 140 -68.5 213t-195.5 73q-134 0 -209 -81.5t-78 -227.5zM651 1221v211h199v-211h-199z" />
<glyph unicode="&#xec;" horiz-adv-x="542" d="M29 1481h192l127 -293h-160zM184 0v1024h174v-1024h-174z" />
<glyph unicode="&#xed;" horiz-adv-x="542" d="M184 0v1024h174v-1024h-174zM197 1188l127 293h192l-160 -293h-159z" />
<glyph unicode="&#xee;" horiz-adv-x="542" d="M23 1188l159 293h180l160 -293h-151l-99 207l-98 -207h-151zM184 0v1024h174v-1024h-174z" />
<glyph unicode="&#xef;" horiz-adv-x="542" d="M27 1221v211h198v-211h-198zM184 0v1024h174v-1024h-174zM319 1221v211h199v-211h-199z" />
<glyph unicode="&#xf0;" horiz-adv-x="1087" d="M92 516q0 245 120 389t323 144q46 0 86 -10.5t65.5 -25t48 -36.5t33.5 -38t23 -36h4q-48 166 -183 311l-256 -100l-41 90l220 86q-96 77 -199 117l115 109q134 -58 243 -164l166 65l39 -90l-131 -51q123 -146 190.5 -339.5t67.5 -408.5q0 -243 -133.5 -398t-343.5 -155 q-212 0 -334.5 145.5t-122.5 395.5zM276 516q0 -180 75 -283.5t206 -103.5q139 0 216 102t77 285q0 186 -77 286.5t-216 100.5q-130 0 -205.5 -103t-75.5 -284z" />
<glyph unicode="&#xf1;" horiz-adv-x="1185" d="M184 0v1024h164v-203q101 232 342 232q169 0 255.5 -105.5t86.5 -310.5v-637h-174v627q0 272 -225 272q-128 0 -201.5 -97t-73.5 -267v-535h-174zM303 1243q18 110 76.5 172t150.5 62q51 0 96 -21.5t71.5 -46.5t61.5 -46.5t68 -21.5q40 0 64 27.5t39 89.5l119 -22 q-15 -110 -75 -172t-153 -62q-51 0 -96 21t-72 46.5t-61.5 46.5t-67.5 21q-39 0 -63 -27.5t-39 -88.5z" />
<glyph unicode="&#xf2;" horiz-adv-x="1138" d="M92 512q0 249 129.5 393t347.5 144t348 -144t130 -393t-130 -393t-348 -144t-347.5 144t-129.5 393zM244 1481h213l188 -293h-160zM276 512q0 -188 76.5 -286.5t216.5 -98.5t216.5 98.5t76.5 286.5t-76.5 286.5t-216.5 98.5t-216.5 -98.5t-76.5 -286.5z" />
<glyph unicode="&#xf3;" horiz-adv-x="1138" d="M92 512q0 249 129.5 393t347.5 144t348 -144t130 -393t-130 -393t-348 -144t-347.5 144t-129.5 393zM276 512q0 -188 76.5 -286.5t216.5 -98.5t216.5 98.5t76.5 286.5t-76.5 286.5t-216.5 98.5t-216.5 -98.5t-76.5 -286.5zM494 1188l188 293h213l-242 -293h-159z" />
<glyph unicode="&#xf4;" horiz-adv-x="1138" d="M92 512q0 249 129.5 393t347.5 144t348 -144t130 -393t-130 -393t-348 -144t-347.5 144t-129.5 393zM258 1188l221 293h180l222 -293h-162l-150 205l-149 -205h-162zM276 512q0 -188 76.5 -286.5t216.5 -98.5t216.5 98.5t76.5 286.5t-76.5 286.5t-216.5 98.5 t-216.5 -98.5t-76.5 -286.5z" />
<glyph unicode="&#xf5;" horiz-adv-x="1138" d="M92 512q0 249 129.5 393t347.5 144t348 -144t130 -393t-130 -393t-348 -144t-347.5 144t-129.5 393zM197 1243q18 110 76.5 172t150.5 62q51 0 96 -21.5t71.5 -46.5t61.5 -46.5t68 -21.5q39 0 63 27.5t39 89.5l119 -22q-15 -110 -74.5 -172t-152.5 -62q-51 0 -96 21 t-72 46.5t-61.5 46.5t-67.5 21q-39 0 -63.5 -27.5t-39.5 -88.5zM276 512q0 -188 76.5 -286.5t216.5 -98.5t216.5 98.5t76.5 286.5t-76.5 286.5t-216.5 98.5t-216.5 -98.5t-76.5 -286.5z" />
<glyph unicode="&#xf6;" horiz-adv-x="1138" d="M92 512q0 249 129.5 393t347.5 144t348 -144t130 -393t-130 -393t-348 -144t-347.5 144t-129.5 393zM262 1221v211h199v-211h-199zM276 512q0 -188 76.5 -286.5t216.5 -98.5t216.5 98.5t76.5 286.5t-76.5 286.5t-216.5 98.5t-216.5 -98.5t-76.5 -286.5zM678 1221v211h199 v-211h-199z" />
<glyph unicode="&#xf7;" horiz-adv-x="1167" d="M102 590v155h963v-155h-963zM473 283q0 47 30.5 76.5t76.5 29.5q47 0 76.5 -28.5t29.5 -77.5q0 -47 -30 -77t-76 -30t-76.5 30t-30.5 77zM473 1053q0 47 30.5 76.5t76.5 29.5q47 0 76.5 -28.5t29.5 -77.5q0 -47 -30 -77t-76 -30t-76.5 30t-30.5 77z" />
<glyph unicode="&#xf8;" horiz-adv-x="1138" d="M92 512q0 249 129.5 393t347.5 144q168 0 285 -88l74 92l90 -64l-84 -104q113 -144 113 -373q0 -249 -130 -393t-348 -144q-168 0 -288 91l-74 -95l-88 64l84 106q-111 143 -111 371zM276 512q0 -137 41 -227l437 549q-69 63 -185 63q-140 0 -216.5 -98.5t-76.5 -286.5z M383 193q72 -66 186 -66q140 0 216.5 98.5t76.5 286.5q0 142 -43 229z" />
<glyph unicode="&#xf9;" horiz-adv-x="1169" d="M154 371v653h174v-633q0 -129 54 -197.5t155 -68.5q123 0 198.5 95.5t75.5 252.5v551h174v-1024h-164v193q-36 -95 -123.5 -156.5t-193.5 -61.5q-185 0 -267.5 103t-82.5 293zM244 1481h213l188 -293h-160z" />
<glyph unicode="&#xfa;" horiz-adv-x="1169" d="M154 371v653h174v-633q0 -129 54 -197.5t155 -68.5q123 0 198.5 95.5t75.5 252.5v551h174v-1024h-164v193q-36 -95 -123.5 -156.5t-193.5 -61.5q-185 0 -267.5 103t-82.5 293zM494 1188l188 293h213l-242 -293h-159z" />
<glyph unicode="&#xfb;" horiz-adv-x="1169" d="M154 371v653h174v-633q0 -129 54 -197.5t155 -68.5q123 0 198.5 95.5t75.5 252.5v551h174v-1024h-164v193q-36 -95 -123.5 -156.5t-193.5 -61.5q-185 0 -267.5 103t-82.5 293zM258 1188l221 293h180l222 -293h-162l-150 205l-149 -205h-162z" />
<glyph unicode="&#xfc;" horiz-adv-x="1169" d="M154 371v653h174v-633q0 -129 54 -197.5t155 -68.5q123 0 198.5 95.5t75.5 252.5v551h174v-1024h-164v193q-36 -95 -123.5 -156.5t-193.5 -61.5q-185 0 -267.5 103t-82.5 293zM262 1221v211h199v-211h-199zM678 1221v211h199v-211h-199z" />
<glyph unicode="&#xfd;" horiz-adv-x="997" d="M20 1024h195l262 -713q24 -68 35 -121h4q6 28 35 121l237 713h189l-399 -1090q-68 -188 -162 -267t-228 -79q-44 0 -94 9v153q54 -4 74 -4q91 0 144 44.5t89 146.5l27 75zM424 1188l188 293h213l-241 -293h-160z" />
<glyph unicode="&#xfe;" horiz-adv-x="1198" d="M195 -399v1884h174v-631q106 195 323 195q126 0 221.5 -73t144 -194t48.5 -270t-48.5 -270t-144 -194t-221.5 -73q-216 0 -323 175v-549h-174zM365 485q0 -166 73 -261t207 -95q127 0 202 109.5t75 273.5t-75 273.5t-202 109.5q-132 0 -206 -94.5t-74 -257.5v-58z" />
<glyph unicode="&#xff;" horiz-adv-x="997" d="M20 1024h195l262 -713q24 -68 35 -121h4q6 28 35 121l237 713h189l-399 -1090q-68 -188 -162 -267t-228 -79q-44 0 -94 9v153q54 -4 74 -4q91 0 144 44.5t89 146.5l27 75zM193 1221v211h198v-211h-198zM608 1221v211h199v-211h-199z" />
<glyph unicode="&#x152;" horiz-adv-x="2017" d="M92 729q0 333 193 529t528 196h1057v-164h-707v-463h672v-163h-672v-500h721v-164h-1067q-337 0 -531 199t-194 530zM295 729q0 -249 141 -407t381 -158h152v1126h-156q-246 0 -382 -153.5t-136 -407.5z" />
<glyph unicode="&#x153;" horiz-adv-x="1865" d="M92 512q0 243 130 390t347 147q257 0 377 -201q122 201 381 201q209 0 322.5 -118.5t113.5 -346.5v-123h-727q1 -151 84.5 -241.5t220.5 -90.5q98 0 168.5 50.5t104.5 144.5l143 -64q-54 -139 -163.5 -212t-264.5 -73q-267 0 -387 195q-120 -195 -373 -195 q-215 0 -346 147.5t-131 389.5zM276 512q0 -181 77.5 -283t215.5 -102t215.5 102t77.5 283t-78 283t-215 102q-138 0 -215.5 -102t-77.5 -283zM1036 602h551v23q0 140 -68.5 213t-195.5 73q-134 0 -209 -81.5t-78 -227.5z" />
<glyph unicode="&#x178;" horiz-adv-x="1183" d="M0 1454h217l334 -616q31 -61 39 -84h4q8 23 39 84l334 616h217l-494 -874v-580h-196v580zM264 1542v201h199v-201h-199zM721 1542v201h199v-201h-199z" />
<glyph unicode="&#x2c6;" horiz-adv-x="1228" d="M102 1188l222 293h180l221 -293h-162l-149 205l-150 -205h-162z" />
<glyph unicode="&#x2dc;" horiz-adv-x="1228" d="M109 1243q18 110 76.5 172t150.5 62q51 0 96 -21.5t71.5 -46.5t61.5 -46.5t68 -21.5q39 0 63 27.5t39 89.5l119 -22q-15 -110 -74.5 -172t-152.5 -62q-51 0 -96 21t-72 46.5t-61.5 46.5t-67.5 21q-39 0 -63.5 -27.5t-39.5 -88.5z" />
<glyph unicode="&#x2000;" horiz-adv-x="964" />
<glyph unicode="&#x2001;" horiz-adv-x="1929" />
<glyph unicode="&#x2002;" horiz-adv-x="964" />
<glyph unicode="&#x2003;" horiz-adv-x="1929" />
<glyph unicode="&#x2004;" horiz-adv-x="643" />
<glyph unicode="&#x2005;" horiz-adv-x="482" />
<glyph unicode="&#x2006;" horiz-adv-x="321" />
<glyph unicode="&#x2007;" horiz-adv-x="321" />
<glyph unicode="&#x2008;" horiz-adv-x="241" />
<glyph unicode="&#x2009;" horiz-adv-x="385" />
<glyph unicode="&#x200a;" horiz-adv-x="107" />
<glyph unicode="&#x2010;" horiz-adv-x="796" d="M102 487v164h592v-164h-592z" />
<glyph unicode="&#x2011;" horiz-adv-x="796" d="M102 487v164h592v-164h-592z" />
<glyph unicode="&#x2012;" horiz-adv-x="796" d="M102 487v164h592v-164h-592z" />
<glyph unicode="&#x2013;" horiz-adv-x="1048" d="M102 504v131h844v-131h-844z" />
<glyph unicode="&#x2014;" horiz-adv-x="1628" d="M102 504v131h1424v-131h-1424z" />
<glyph unicode="&#x2018;" horiz-adv-x="526" d="M143 950v228q0 124 40 190.5t145 110.5l47 -90q-74 -33 -98.5 -73t-24.5 -118v-6h131v-242h-240z" />
<glyph unicode="&#x2019;" horiz-adv-x="526" d="M143 1212v242h240v-227q0 -125 -39.5 -191t-144.5 -110l-47 90q74 33 98 72.5t24 117.5v6h-131z" />
<glyph unicode="&#x201a;" horiz-adv-x="526" d="M143 0v242h240v-228q0 -125 -39.5 -191t-144.5 -110l-47 90q74 33 98 73t24 118v6h-131z" />
<glyph unicode="&#x201c;" horiz-adv-x="862" d="M143 952v228q0 124 40 190.5t145 110.5l47 -90q-74 -33 -98.5 -73t-24.5 -118v-6h131v-242h-240zM479 952v228q0 124 40 190.5t145 110.5l47 -90q-74 -33 -98.5 -73t-24.5 -118v-6h131v-242h-240z" />
<glyph unicode="&#x201d;" horiz-adv-x="862" d="M143 1212v242h240v-227q0 -125 -39.5 -191t-144.5 -110l-47 90q74 33 98 72.5t24 117.5v6h-131zM479 1212v242h240v-227q0 -125 -39.5 -191t-144.5 -110l-48 90q74 33 98.5 72.5t24.5 117.5v6h-131z" />
<glyph unicode="&#x201e;" horiz-adv-x="862" d="M143 0v242h240v-228q0 -125 -39.5 -191t-144.5 -110l-47 90q74 33 98 73t24 118v6h-131zM479 0v242h240v-228q0 -125 -39.5 -191t-144.5 -110l-48 90q74 33 98.5 73t24.5 118v6h-131z" />
<glyph unicode="&#x2022;" horiz-adv-x="673" d="M143 707q0 87 54.5 140.5t138.5 53.5q86 0 140 -53t54 -141q0 -84 -54.5 -136.5t-139.5 -52.5q-84 0 -138.5 52.5t-54.5 136.5z" />
<glyph unicode="&#x2026;" horiz-adv-x="1681" d="M143 0v236h240v-236h-240zM721 0v236h240v-236h-240zM1298 0v236h240v-236h-240z" />
<glyph unicode="&#x202f;" horiz-adv-x="385" />
<glyph unicode="&#x2039;" horiz-adv-x="636" d="M61 563l351 426h184l-338 -426l338 -426h-184z" />
<glyph unicode="&#x203a;" horiz-adv-x="636" d="M41 137l338 426l-338 426h184l350 -426l-350 -426h-184z" />
<glyph unicode="&#x205f;" horiz-adv-x="482" />
<glyph unicode="&#x20ac;" horiz-adv-x="1325" d="M31 528v123h104q-2 29 -2 86q0 45 2 68h-104v123h116q42 250 199 388t416 138q181 0 301.5 -63.5t208.5 -198.5l-148 -105q-65 100 -154 152.5t-222 52.5q-166 0 -270 -95t-140 -269h709v-123h-723q-2 -20 -2 -66q0 -30 4 -88h721v-123h-703q39 -184 148.5 -290.5 t273.5 -106.5q236 0 379 219l139 -96q-81 -135 -213.5 -210t-310.5 -75q-257 0 -411 151.5t-199 407.5h-119z" />
<glyph unicode="&#x2122;" horiz-adv-x="1757" d="M10 1339v115h658v-115h-271v-716h-135v716h-252zM756 623v831h192l219 -612q24 -71 27 -105h4q3 34 27 105l215 612h194v-831h-127v591q0 85 4 138h-2q-6 -25 -43 -133l-211 -596h-122l-207 596q-37 108 -43 133h-2q4 -53 4 -138v-591h-129z" />
<glyph unicode="&#x25fc;" horiz-adv-x="1024" d="M0 0v1024h1024v-1024h-1024z" />
</font>
</defs>
</svg>
